{
.appVersion = "3151";
.formatVersion = 3;
DisplayStrings = (
"LIĲÍĬÎÏİÌĪĮĨ/I.ss01"
);
classes = (
{
automatic = 1;
code = "A Aacute Abreve Acircumflex Adieresis Agrave Amacron Aogonek Aring Aringacute Atilde AE AEacute B C Cacute Ccaron Ccedilla Ccircumflex Cdotaccent D Eth Dcaron Dcroat E Eacute Ebreve Ecaron Ecircumflex Edieresis Edotaccent Egrave Emacron Eogonek F G Gbreve Gcircumflex Gcommaaccent Gdotaccent H Hbar Hcircumflex I IJ Iacute Ibreve Icircumflex Idieresis Idotaccent Igrave Imacron Iogonek Itilde J Jcircumflex K Kcommaaccent L Lacute Lcaron Lcommaaccent Ldot Lslash M N Nacute Ncaron Ncommaaccent Ntilde Eng O Oacute Obreve Ocircumflex Odieresis Ograve Ohungarumlaut Omacron Oslash Oslashacute Otilde OE P Thorn Q R Racute Rcaron Rcommaaccent S Sacute Scaron Scedilla Scircumflex Scommaaccent T Tbar Tcaron Tcedilla Tcommaaccent U Uacute Ubreve Ucircumflex Udieresis Ugrave Uhungarumlaut Umacron Uogonek Uring Utilde V W Wacute Wcircumflex Wdieresis Wgrave X Y Yacute Ycircumflex Ydieresis Ygrave Z Zacute Zcaron Zdotaccent C.001 R.001 I.ss01 IJ.ss01 Iacute.ss01 Ibreve.ss01 Icircumflex.ss01 Idieresis.ss01 Idotaccent.ss01 Igrave.ss01 Imacron.ss01 Iogonek.ss01 Itilde.ss01 Delta Omega";
name = Uppercase;
}
);
customParameters = (
{
name = fsType;
value = (
);
},
{
name = "Use Typo Metrics";
value = 1;
}
);
date = "2023-02-02 13:36:49 +0000";
familyName = Offside;
featurePrefixes = (
{
automatic = 1;
code = "languagesystem DFLT dflt;

languagesystem latn dflt;
languagesystem latn AZE;
languagesystem latn CRT;
languagesystem latn KAZ;
languagesystem latn TAT;
languagesystem latn TRK;
languagesystem latn ROM;
languagesystem latn MOL;
languagesystem latn CAT;
";
name = Languagesystems;
}
);
features = (
{
automatic = 1;
code = "feature locl;
feature subs;
feature sinf;
feature sups;
feature frac;
feature ordn;
feature case;
feature salt;
feature ss01;
";
tag = aalt;
},
{
automatic = 1;
code = "lookup ccmp_Other_1 {

glyphs = (
{
glyphname = A;
lastChange = "2023-02-02 13:54:31 +0000";
layers = (
{
anchors = (
{
name = bottom;
pos = (342,0);
},
{
name = ogonek;
pos = (573,37);
},
{
name = top;
pos = (342,740);
}
);
background = {
shapes = (
{
closed = 1;
nodes = (
(176,-5,o),
(190,3,o),
(190,18,cs),
(190,289,l),
(493,289,l),
(493,18,ls),
(493,3,o),
(507,-5,o),
(533,-5,cs),
(559,-5,o),
(573,3,o),
(573,18,cs),
(573,597,ls),
(573,701,o),
(495,755,o),
(347,755,cs),
(194,755,o),
(110,699,o),
(110,597,cs),
(110,18,ls),
(110,3,o),
(124,-5,o),
(150,-5,cs,{
name = hr00;
})
);
},
{
closed = 1;
nodes = (
(190,658,o),
(243,685,o),
(342,685,cs),
(440,685,o),
(493,658,o),
(493,607,cs),
(493,359,l),
(190,359,l),
(190,607,ls)
);
}
);
};
layerId = master01;
shapes = (
{
closed = 1;
nodes = (
(176,-5,o),
(190,3,o),
(190,18,cs),
(190,289,l),
(493,289,l),
(493,18,ls),
(493,3,o),
(507,-5,o),
(533,-5,cs),
(559,-5,o),
(573,3,o),
(573,18,cs),
(573,597,ls),
(573,701,o),
(495,755,o),
(347,755,cs),
(194,755,o),
(110,699,o),
(110,597,cs),
(110,18,ls),
(110,3,o),
(124,-5,o),
(150,-5,cs,{
name = hr00;
})
);
},
{
closed = 1;
nodes = (
(190,658,o),
(243,685,o),
(342,685,cs),
(440,685,o),
(493,658,o),
(493,607,cs),
(493,359,l),
(190,359,l),
(190,607,ls)
);
}
);
width = 683;
}
);
unicode = 65;
},
{
glyphname = Aacute;
lastChange = "2023-02-02 13:54:17 +0000";
layers = (
{
background = {
shapes = (
{
closed = 1;
nodes = (
(176,-5,o),
(190,3,o),
(190,18,cs),
(190,289,l),
(493,289,l),
(493,18,ls),
(493,3,o),
(507,-5,o),
(533,-5,cs),
(559,-5,o),
(573,3,o),
(573,18,cs),
(573,597,ls),
(573,701,o),
(495,755,o),
(347,755,cs),
(194,755,o),
(110,699,o),
(110,597,cs),
(110,18,ls),
(110,3,o),
(124,-5,o),
(150,-5,cs,{
name = hr00;
})
);
},
{
closed = 1;
nodes = (
(190,658,o),
(243,685,o),
(342,685,cs),
(440,685,o),
(493,658,o),
(493,607,cs),
(493,359,l),
(190,359,l),
(190,607,ls)
);
},
{
closed = 1;
nodes = (
(256,807,o),
(258,808,o),
(272,814,cs),
(448,898,ls),
(456,902,o),
(459,907,o),
(459,918,cs),
(459,944,o),
(431,986,o),
(413,986,cs),
(407,986,o),
(404,985,o),
(400,982,cs),
(234,868,ls),
(226,863,o),
(224,859,o),
(224,853,cs),
(224,837,o),
(244,807,o),
(254,807,cs,{
name = hr00;
})
);
}
);
};
layerId = master01;
shapes = (
{
ref = A;
},
{
pos = (174,0);
ref = acutecomb.case;
}
);
width = 683;
}
);
unicode = 193;
},
{
glyphname = Abreve;
lastChange = "2023-02-02 13:54:17 +0000";
layers = (
{
background = {
shapes = (
{
closed = 1;
nodes = (
(176,-5,o),
(190,3,o),
(190,18,cs),
(190,289,l),
(493,289,l),
(493,18,ls),
(493,3,o),
(507,-5,o),
(533,-5,cs),
(559,-5,o),
(573,3,o),
(573,18,cs),
(573,597,ls),
(573,701,o),
(495,755,o),
(347,755,cs),
(194,755,o),
(110,699,o),
(110,597,cs),
(110,18,ls),
(110,3,o),
(124,-5,o),
(150,-5,cs,{
name = hr00;
})
);
},
{
closed = 1;
nodes = (
(190,658,o),
(243,685,o),
(342,685,cs),
(440,685,o),
(493,658,o),
(493,607,cs),
(493,359,l),
(190,359,l),
(190,607,ls)
);
},
{
closed = 1;
nodes = (
(290,949,o),
(273,954,o),
(254,954,cs),
(235,954,o),
(219,949,o),
(219,934,cs),
(219,909,ls),
(219,848,o),
(251,817,o),
(339,817,cs),
(426,817,o),
(463,848,o),
(463,909,cs),
(463,934,ls),
(463,949,o),
(446,954,o),
(427,954,cs),
(408,954,o),
(392,949,o),
(392,934,cs),
(392,910,ls),
(392,888,o),
(366,880,o),
(340,880,cs),
(312,880,o),
(290,887,o),
(290,909,cs),
(290,934,ls,{
name = hr00;
})
);
}
);
};
layerId = master01;
shapes = (
{
ref = A;
},
{
pos = (170,0);
ref = brevecomb.case;
}
);
width = 683;
}
);
unicode = 258;
},
{
glyphname = Acircumflex;
lastChange = "2023-02-02 13:54:17 +0000";
layers = (
{
background = {
shapes = (
{
closed = 1;
nodes = (
(176,-5,o),
(190,3,o),
(190,18,cs),
(190,289,l),
(493,289,l),
(493,18,ls),
(493,3,o),
(507,-5,o),
(533,-5,cs),
(559,-5,o),
(573,3,o),
(573,18,cs),
(573,597,ls),
(573,701,o),
(495,755,o),
(347,755,cs),
(194,755,o),
(110,699,o),
(110,597,cs),
(110,18,ls),
(110,3,o),
(124,-5,o),
(150,-5,cs,{
name = hr00;
})
);
},
{
closed = 1;
nodes = (
(190,658,o),
(243,685,o),
(342,685,cs),
(440,685,o),
(493,658,o),
(493,607,cs),
(493,359,l),
(190,359,l),
(190,607,ls)
);
},
{
closed = 1;
nodes = (
(333,986,o),
(328,984,o),
(326,982,cs),
(206,866,ls),
(201,861,o),
(199,856,o),
(199,851,cs),
(199,833,o),
(218,807,o),
(231,807,cs),
(233,807,o),
(234,808,o),
(238,810,cs),
(341,886,l),
(444,810,ls),
(447,808,o),
(449,807,o),
(451,807,cs),
(464,807,o),
(483,833,o),
(483,851,cs),
(483,856,o),
(481,861,o),
(476,866,cs),
(356,982,ls),
(354,984,o),
(349,986,o),
(347,986,cs),
(336,986,l,{
name = hr00;
})
);
}
);
};
layerId = master01;
shapes = (
{
ref = A;
},
{
pos = (100,0);
ref = circumflexcomb.case;
}
);
width = 683;
}
);
unicode = 194;
},
{
glyphname = Adieresis;
lastChange = "2023-02-02 13:54:17 +0000";
layers = (
{
background = {
shapes = (
{
closed = 1;
nodes = (
(176,-5,o),
(190,3,o),
(190,18,cs),
(190,289,l),
(493,289,l),
(493,18,ls),
(493,3,o),
(507,-5,o),
(533,-5,cs),
(559,-5,o),
(573,3,o),
(573,18,cs),
(573,597,ls),
(573,701,o),
(495,755,o),
(347,755,cs),
(194,755,o),
(110,699,o),
(110,597,cs),
(110,18,ls),
(110,3,o),
(124,-5,o),
(150,-5,cs,{
name = hr00;
})
);
},
{
closed = 1;
nodes = (
(190,658,o),
(243,685,o),
(342,685,cs),
(440,685,o),
(493,658,o),
(493,607,cs),
(493,359,l),
(190,359,l),
(190,607,ls)
);
},
{
closed = 1;
nodes = (
(285,832,o),
(270,823,o),
(242,823,cs),
(213,823,o),
(198,831,o),
(198,848,cs),
(198,935,ls),
(198,951,o),
(213,960,o),
(241,960,cs),
(270,960,o),
(285,952,o),
(285,935,cs),
(285,848,ls,{
name = hr00;
})
);
},
{
closed = 1;
nodes = (
(485,832,o),
(470,823,o),
(442,823,cs),
(413,823,o),
(398,831,o),
(398,848,cs),
(398,935,ls),
(398,951,o),
(413,960,o),
(441,960,cs),
(470,960,o),
(485,952,o),
(485,935,cs),
(485,848,ls)
);
}
);
};
layerId = master01;
shapes = (
{
ref = A;
},
{
pos = (98,0);
ref = dieresiscomb.case;
}
);
width = 683;
}
);
unicode = 196;
},
{
glyphname = Agrave;
lastChange = "2023-02-02 13:54:17 +0000";
layers = (
{
background = {
shapes = (
{
closed = 1;
nodes = (
(176,-5,o),
(190,3,o),
(190,18,cs),
(190,289,l),
(493,289,l),
(493,18,ls),
(493,3,o),
(507,-5,o),
(533,-5,cs),
(559,-5,o),
(573,3,o),
(573,18,cs),
(573,597,ls),
(573,701,o),
(495,755,o),
(347,755,cs),
(194,755,o),
(110,699,o),
(110,597,cs),
(110,18,ls),
(110,3,o),
(124,-5,o),
(150,-5,cs,{
name = hr00;
})
);
},
{
closed = 1;
nodes = (
(190,658,o),
(243,685,o),
(342,685,cs),
(440,685,o),
(493,658,o),
(493,607,cs),
(493,359,l),
(190,359,l),
(190,607,ls)
);
},
{
closed = 1;
nodes = (
(439,807,o),
(459,837,o),
(459,853,cs),
(459,859,o),
(457,863,o),
(449,868,cs),
(283,982,ls),
(279,985,o),
(276,986,o),
(270,986,cs),
(252,986,o),
(224,944,o),
(224,918,cs),
(224,907,o),
(227,902,o),
(235,898,cs),
(411,814,ls),
(425,808,o),
(427,807,o),
(429,807,cs,{
name = hr00;
})
);
}
);
};
layerId = master01;
shapes = (
{
ref = A;
},
{
pos = (174,0);
ref = gravecomb.case;
}
);
width = 683;
}
);
unicode = 192;
},
{
glyphname = Amacron;
lastChange = "2023-02-02 13:54:17 +0000";
layers = (
{
background = {
shapes = (
{
closed = 1;
nodes = (
(176,-5,o),
(190,3,o),
(190,18,cs),
(190,289,l),
(493,289,l),
(493,18,ls),
(493,3,o),
(507,-5,o),
(533,-5,cs),
(559,-5,o),
(573,3,o),
(573,18,cs),
(573,597,ls),
(573,701,o),
(495,755,o),
(347,755,cs),
(194,755,o),
(110,699,o),
(110,597,cs),
(110,18,ls),
(110,3,o),
(124,-5,o),
(150,-5,cs,{
name = hr00;
})
);
},
{
closed = 1;
nodes = (
(190,658,o),
(243,685,o),
(342,685,cs),
(440,685,o),
(493,658,o),
(493,607,cs),
(493,359,l),
(190,359,l),
(190,607,ls)
);
},
{
closed = 1;
nodes = (
(193,927,o),
(188,911,o),
(188,889,cs),
(188,868,o),
(193,850,o),
(208,850,cs),
(475,850,ls),
(490,850,o),
(495,867,o),
(495,889,cs),
(495,910,o),
(490,927,o),
(475,927,cs),
(208,927,ls,{
name = hr00;
})
);
}
);
};
layerId = master01;
shapes = (
{
ref = A;
},
{
pos = (88,0);
ref = macroncomb.case;
}
);
width = 683;
}
);
unicode = 256;
},
{
glyphname = Aogonek;
lastChange = "2023-02-02 13:54:31 +0000";
layers = (
{
background = {
shapes = (
{
closed = 1;
nodes = (
(527,-222,o),
(573,-185,o),
(573,-130,cs),
(573,-117,ls),
(573,-104,o),
(561,-96,o),
(540,-96,cs),
(518,-96,o),
(506,-103,o),
(506,-117,cs,{
name = hr01;
}),
(506,-135,ls),
(506,-154,o),
(489,-164,o),
(458,-164,cs),
(428,-164,o),
(409,-152,o),
(409,-134,cs),
(409,-109,ls),
(409,-74,o),
(422,-54,o),
(455,-41,cs),
(551,-3,ls),
(564,2,o),
(573,7,o),
(573,18,cs),
(573,597,ls),
(573,701,o),
(495,755,o),
(347,755,cs),
(194,755,o),
(110,699,o),
(110,597,cs),
(110,18,ls),
(110,3,o),
(124,-5,o),
(150,-5,cs),
(176,-5,o),
(190,3,o),
(190,18,cs),
(190,289,l),
(493,289,l,{
name = hr02;
}),
(493,16,l),
(440,-4,ls),
(359,-36,o),
(342,-54,o),
(342,-108,cs),
(342,-130,ls),
(342,-184,o),
(390,-222,o),
(459,-222,cs)
);
},
{
closed = 1;
nodes = (
(190,658,o),
(243,685,o),
(342,685,cs),
(440,685,o),
(493,658,o),
(493,607,cs),
(493,359,l),
(190,359,l),
(190,607,ls)
);
}
);
};
layerId = master01;
shapes = (
{
ref = A;
},
{
pos = (124,0);
ref = ogonekcomb;
}
);
width = 683;
}
);
unicode = 260;
},
{
glyphname = Aring;
lastChange = "2023-02-02 13:54:17 +0000";
layers = (
{
background = {
shapes = (
{
closed = 1;
nodes = (
(176,-5,o),
(190,3,o),
(190,18,cs),
(190,289,l),
(493,289,l),
(493,18,ls),
(493,3,o),
(507,-5,o),
(533,-5,cs),
(559,-5,o),
(573,3,o),
(573,18,cs),
(573,597,ls),
(573,701,o),
(495,755,o),
(347,755,cs),
(194,755,o),
(110,699,o),
(110,597,cs),
(110,18,ls),
(110,3,o),
(124,-5,o),
(150,-5,cs,{
name = hr00;
})
);
},
{
closed = 1;
nodes = (
(190,658,o),
(243,685,o),
(342,685,cs),
(440,685,o),
(493,658,o),
(493,607,cs),
(493,359,l),
(190,359,l),
(190,607,ls)
);
},
{
closed = 1;
nodes = (
(452,968,o),
(419,996,o),
(343,996,cs),
(266,996,o),
(231,967,o),
(231,904,cs),
(231,879,ls),
(231,815,o),
(264,787,o),
(340,787,cs),
(417,787,o),
(452,816,o),
(452,879,cs),
(452,904,l,{
name = hr00;
})
);
},
{
closed = 1;
nodes = (
(293,931,o),
(312,943,o),
(342,943,cs),
(373,943,o),
(390,933,o),
(390,914,cs),
(390,870,ls),
(390,852,o),
(371,840,o),
(341,840,cs),
(310,840,o),
(293,850,o),
(293,869,cs),
(293,913,l)
);
}
);
};
layerId = master01;
shapes = (
{
ref = A;
},
{
pos = (198,0);
ref = ringcomb.case;
}
);
width = 683;
}
);
unicode = 197;
},
{
glyphname = Aringacute;
lastChange = "2023-02-02 13:54:43 +0000";
layers = (
{
background = {
shapes = (
{
closed = 1;
nodes = (
(176,-5,o),
(190,3,o),
(190,18,cs),
(190,289,l),
(493,289,l),
(493,18,ls),
(493,3,o),
(507,-5,o),
(533,-5,cs),
(559,-5,o),
(573,3,o),
(573,18,cs),
(573,597,ls),
(573,701,o),
(495,755,o),
(347,755,cs),
(194,755,o),
(110,699,o),
(110,597,cs),
(110,18,ls),
(110,3,o),
(124,-5,o),
(150,-5,cs,{
name = hr00;
})
);
},
{
closed = 1;
nodes = (
(190,658,o),
(243,685,o),
(342,685,cs),
(440,685,o),
(493,658,o),
(493,607,cs),
(493,359,l),
(190,359,l),
(190,607,ls)
);
},
{
closed = 1;
nodes = (
(412,787,o),
(445,816,o),
(445,879,cs),
(445,904,ls),
(445,915,o),
(444,925,o),
(442,934,c),
(532,975,ls),
(538,978,o),
(541,982,o),
(541,990,cs),
(541,1011,o),
(518,1044,o),
(503,1044,cs),
(498,1044,o),
(496,1043,o),
(493,1041,cs),
(406,983,l),
(390,992,o),
(368,996,o),
(341,996,cs),
(267,996,o),
(234,967,o),
(234,904,cs),
(234,879,ls),
(234,815,o),
(266,787,o),
(338,787,cs,{
name = hr00;
})
);
},
{
closed = 1;
nodes = (
(296,931,o),
(313,943,o),
(340,943,cs),
(368,943,o),
(383,933,o),
(383,914,cs),
(383,870,ls),
(383,852,o),
(366,840,o),
(339,840,cs),
(311,840,o),
(296,850,o),
(296,869,cs),
(296,913,ls)
);
}
);
};
layerId = master01;
shapes = (
{
ref = A;
},
{
closed = 1;
nodes = (
(412,787,o),
(445,816,o),
(445,879,cs),
(445,904,ls),
(445,915,o),
(444,925,o),
(442,934,c),
(532,975,ls),
(538,978,o),
(541,982,o),
(541,990,cs),
(541,1011,o),
(518,1044,o),
(503,1044,cs),
(498,1044,o),
(496,1043,o),
(493,1041,cs),
(406,983,l),
(390,992,o),
(368,996,o),
(341,996,cs),
(267,996,o),
(234,967,o),
(234,904,cs),
(234,879,ls),
(234,815,o),
(266,787,o),
(338,787,cs,{
name = hr00;
})
);
},
{
closed = 1;
nodes = (
(296,931,o),
(313,943,o),
(340,943,cs),
(368,943,o),
(383,933,o),
(383,914,cs),
(383,870,ls),
(383,852,o),
(366,840,o),
(339,840,cs),
(311,840,o),
(296,850,o),
(296,869,cs),
(296,913,ls)
);
}
);
width = 683;
}
);
unicode = 506;
},
{
glyphname = Atilde;
lastChange = "2023-02-02 13:54:17 +0000";
layers = (
{
background = {
shapes = (
{
closed = 1;
nodes = (
(176,-5,o),
(190,3,o),
(190,18,cs),
(190,289,l),
(493,289,l),
(493,18,ls),
(493,3,o),
(507,-5,o),
(533,-5,cs),
(559,-5,o),
(573,3,o),
(573,18,cs),
(573,597,ls),
(573,701,o),
(495,755,o),
(347,755,cs),
(194,755,o),
(110,699,o),
(110,597,cs),
(110,18,ls),
(110,3,o),
(124,-5,o),
(150,-5,cs,{
name = hr00;
})
);
},
{
closed = 1;
nodes = (
(190,658,o),
(243,685,o),
(342,685,cs),
(440,685,o),
(493,658,o),
(493,607,cs),
(493,359,l),
(190,359,l),
(190,607,ls)
);
},
{
closed = 1;
nodes = (
(259,951,o),
(253,952,o),
(248,952,cs),
(207,952,o),
(183,912,o),
(183,843,cs),
(183,832,o),
(195,827,o),
(218,827,cs),
(241,827,o),
(253,834,o),
(253,847,cs),
(253,864,o),
(257,872,o),
(266,872,cs),
(268,872,o),
(269,871,o),
(271,871,cs),
(412,832,ls),
(420,830,o),
(427,829,o),
(434,829,cs),
(476,829,o),
(500,869,o),
(500,937,cs),
(500,948,o),
(488,953,o),
(465,953,cs,{
name = hr01;
}),
(442,953,o),
(430,946,o),
(430,933,cs),
(430,916,o),
(426,908,o),
(418,908,cs),
(415,908,o),
(413,908,o),
(412,909,cs),
(271,948,l)
);
}
);
};
layerId = master01;
shapes = (
{
ref = A;
},
{
pos = (83,0);
ref = tildecomb.case;
}
);
width = 683;
}
);
unicode = 195;
},
{
glyphname = AE;
lastChange = "2023-02-02 13:54:54 +0000";
layers = (
{
anchors = (
{
name = bottom;
pos = (483,0);
},
{
name = top;
pos = (545,740);
}
);
background = {
shapes = (
{
closed = 1;
nodes = (
(210,755,o),
(110,714,o),
(110,597,cs),
(110,18,ls),
(110,1,o),
(126,-5,o),
(147,-5,cs),
(168,-5,o),
(185,1,o),
(185,18,cs),
(185,346,l),
(529,346,l),
(487,329,o),
(462,295,o),
(462,228,cs),
(462,143,ls),
(462,26,o),
(562,-15,o),
(685,-15,cs,{
name = hr01;
}),
(808,-15,o),
(905,26,o),
(905,143,cs),
(905,205,ls),
(905,222,o),
(888,228,o),
(865,228,cs),
(843,228,o),
(825,222,o),
(825,205,cs),
(825,133,ls),
(825,75,o),
(767,55,o),
(687,55,cs),
(606,55,o),
(542,75,o),
(542,133,cs),
(542,258,ls),
(542,316,o),
(581,346,o),
(650,346,cs),
(735,346,ls),
(750,346,o),
(755,361,o),
(755,381,cs),
(755,400,o),
(750,416,o),
(735,416,cs),
(641,416,ls),
(578,416,o),
(543,449,o),
(543,504,cs),
(543,607,ls),
(543,665,o),
(604,685,o),
(680,685,cs),
(752,685,o),
(804,665,o),
(804,607,cs,{
name = hr02;
}),
(804,582,ls),
(804,565,o),
(822,559,o),
(844,559,cs),
(867,559,o),
(884,565,o),
(884,582,cs),
(884,597,ls),
(884,714,o),
(793,755,o),
(685,755,cs),
(610,755,o),
(544,740,o),
(504,702,c),
(467,740,o),
(404,755,o),
(332,755,cs)
);
},
{
closed = 1;
nodes = (
(185,665,o),
(248,685,o),
(327,685,cs),
(418,685,o),
(463,664,o),
(463,597,cs),
(463,534,ls),
(463,466,o),
(488,432,o),
(530,416,c),
(185,416,l),
(185,607,ls)
);
}
);
};
layerId = master01;
shapes = (
{
closed = 1;
nodes = (
(210,755,o),
(110,714,o),
(110,597,cs),
(110,18,ls),
(110,1,o),
(126,-5,o),
(147,-5,cs),
(168,-5,o),
(185,1,o),
(185,18,cs),
(185,346,l),
(529,346,l),
(487,329,o),
(462,295,o),
(462,228,cs),
(462,143,ls),
(462,26,o),
(562,-15,o),
(685,-15,cs,{
name = hr01;
}),
(808,-15,o),
(905,26,o),
(905,143,cs),
(905,205,ls),
(905,222,o),
(888,228,o),
(865,228,cs),
(843,228,o),
(825,222,o),
(825,205,cs),
(825,133,ls),
(825,75,o),
(767,55,o),
(687,55,cs),
(606,55,o),
(542,75,o),
(542,133,cs),
(542,258,ls),
(542,316,o),
(581,346,o),
(650,346,cs),
(735,346,ls),
(750,346,o),
(755,361,o),
(755,381,cs),
(755,400,o),
(750,416,o),
(735,416,cs),
(641,416,ls),
(578,416,o),
(543,449,o),
(543,504,cs),
(543,607,ls),
(543,665,o),
(604,685,o),
(680,685,cs),
(752,685,o),
(804,665,o),
(804,607,cs,{
name = hr02;
}),
(804,582,ls),
(804,565,o),
(822,559,o),
(844,559,cs),
(867,559,o),
(884,565,o),
(884,582,cs),
(884,597,ls),
(884,714,o),
(793,755,o),
(685,755,cs),
(610,755,o),
(544,740,o),
(504,702,c),
(467,740,o),
(404,755,o),
(332,755,cs)
);
},
{
closed = 1;
nodes = (
(185,665,o),
(248,685,o),
(327,685,cs),
(418,685,o),
(463,664,o),
(463,597,cs),
(463,534,ls),
(463,466,o),
(488,432,o),
(530,416,c),
(185,416,l),
(185,607,ls)
);
}
);
width = 965;
}
);
unicode = 198;
},
{
glyphname = AEacute;
lastChange = "2023-02-02 13:54:54 +0000";
layers = (
{
background = {
shapes = (
{
closed = 1;
nodes = (
(210,755,o),
(110,714,o),
(110,597,cs),
(110,18,ls),
(110,1,o),
(126,-5,o),
(147,-5,cs),
(168,-5,o),
(185,1,o),
(185,18,cs),
(185,346,l),
(529,346,l),
(487,329,o),
(462,295,o),
(462,228,cs),
(462,143,ls),
(462,26,o),
(562,-15,o),
(685,-15,cs,{
name = hr01;
}),
(808,-15,o),
(905,26,o),
(905,143,cs),
(905,205,ls),
(905,222,o),
(888,228,o),
(865,228,cs),
(843,228,o),
(825,222,o),
(825,205,cs),
(825,133,ls),
(825,75,o),
(767,55,o),
(687,55,cs),
(606,55,o),
(542,75,o),
(542,133,cs),
(542,258,ls),
(542,316,o),
(581,346,o),
(650,346,cs),
(735,346,ls),
(750,346,o),
(755,361,o),
(755,381,cs),
(755,400,o),
(750,416,o),
(735,416,cs),
(641,416,ls),
(578,416,o),
(543,449,o),
(543,504,cs),
(543,607,ls),
(543,665,o),
(604,685,o),
(680,685,cs),
(752,685,o),
(804,665,o),
(804,607,cs,{
name = hr02;
}),
(804,582,ls),
(804,565,o),
(822,559,o),
(844,559,cs),
(867,559,o),
(884,565,o),
(884,582,cs),
(884,597,ls),
(884,714,o),
(793,755,o),
(685,755,cs),
(610,755,o),
(544,740,o),
(504,702,c),
(467,740,o),
(404,755,o),
(332,755,cs)
);
},
{
closed = 1;
nodes = (
(185,665,o),
(248,685,o),
(327,685,cs),
(418,685,o),
(463,664,o),
(463,597,cs),
(463,534,ls),
(463,466,o),
(488,432,o),
(530,416,c),
(185,416,l),
(185,607,ls)
);
},
{
closed = 1;
nodes = (
(459,807,o),
(461,808,o),
(475,814,cs),
(651,898,ls),
(659,902,o),
(662,907,o),
(662,918,cs),
(662,944,o),
(634,986,o),
(616,986,cs),
(610,986,o),
(607,985,o),
(603,982,cs),
(437,868,ls),
(429,863,o),
(427,859,o),
(427,853,cs),
(427,837,o),
(447,807,o),
(457,807,c,{
name = hr00;
})
);
}
);
};
layerId = master01;
shapes = (
{
ref = AE;
},
{
pos = (377,0);
ref = acutecomb.case;
}
);
width = 965;
}
);
unicode = 508;
},
{
glyphname = B;
lastChange = "2023-02-02 13:49:55 +0000";
layers = (
{
anchors = (
{
name = bottom;
pos = (314,0);
},
{
name = center;
pos = (314,370);
},
{
name = top;
pos = (314,740);
}
);
background = {
shapes = (
{
closed = 1;
nodes = (
(469,-5,o),
(548,51,o),
(548,153,cs),
(548,258,ls),
(548,328,o),
(522,367,o),
(456,382,c),
(514,399,o),
(538,437,o),
(538,504,cs),
(538,597,ls),
(538,700,o),
(462,755,o),
(320,755,cs),
(177,755,o),
(100,700,o),
(100,597,cs),
(100,171,ls),
(100,45,o),
(145,-5,o),
(258,-5,cs),
(325,-5,ls,{
name = hr00;
})
);
},
{
closed = 1;
nodes = (
(430,346,o),
(468,315,o),
(468,258,cs),
(468,143,ls),
(468,92,o),
(417,65,o),
(323,65,cs),
(258,65,ls),
(201,65,o),
(180,94,o),
(180,171,cs),
(180,607,ls),
(180,658,o),
(227,685,o),
(319,685,cs),
(409,685,o),
(458,657,o),
(458,607,cs),
(458,504,ls),
(458,447,o),
(420,416,o),
(350,416,cs),
(235,416,ls),
(222,416,o),
(215,404,o),
(215,381,cs),
(215,358,o),
(222,346,o),
(235,346,cs),
(360,346,l)
);
}
);
};
layerId = master01;
shapes = (
{
closed = 1;
nodes = (
(469,-5,o),
(548,51,o),
(548,153,cs),
(548,258,ls),
(548,328,o),
(522,367,o),
(456,382,c),
(514,399,o),
(538,437,o),
(538,504,cs),
(538,597,ls),
(538,700,o),
(462,755,o),
(320,755,cs),
(177,755,o),
(100,700,o),
(100,597,cs),
(100,171,ls),
(100,45,o),
(145,-5,o),
(258,-5,cs),
(325,-5,ls,{
name = hr00;
})
);
},
{
closed = 1;
nodes = (
(430,346,o),
(468,315,o),
(468,258,cs),
(468,143,ls),
(468,92,o),
(417,65,o),
(323,65,cs),
(258,65,ls),
(201,65,o),
(180,94,o),
(180,171,cs),
(180,607,ls),
(180,658,o),
(227,685,o),
(319,685,cs),
(409,685,o),
(458,657,o),
(458,607,cs),
(458,504,ls),
(458,447,o),
(420,416,o),
(350,416,cs),
(235,416,ls),
(222,416,o),
(215,404,o),
(215,381,cs),
(215,358,o),
(222,346,o),
(235,346,cs),
(360,346,l)
);
}
);
width = 628;
}
);
unicode = 66;
},
{
glyphname = C;
lastChange = "2023-02-02 13:55:12 +0000";
layers = (
{
anchors = (
{
name = bottom;
pos = (322,0);
},
{
name = top;
pos = (336,740);
}
);
background = {
shapes = (
{
closed = 1;
nodes = (
(180,658,o),
(233,685,o),
(330,685,cs),
(425,685,o),
(473,659,o),
(473,607,cs),
(473,535,ls),
(473,520,o),
(487,512,o),
(513,512,cs),
(539,512,o),
(553,520,o),
(553,535,cs),
(553,597,ls),
(553,700,o),
(476,755,o),
(330,755,cs),
(181,755,o),
(100,699,o),
(100,597,cs),
(100,143,ls),
(100,41,o),
(181,-15,o),
(330,-15,cs),
(476,-15,o),
(553,40,o),
(553,143,cs),
(553,205,ls),
(553,220,o),
(539,228,o),
(513,228,cs),
(487,228,o),
(473,220,o),
(473,205,cs),
(473,133,ls),
(473,81,o),
(425,55,o),
(330,55,cs),
(233,55,o),
(180,82,o),
(180,133,cs),
(180,607,ls,{
name = hr00;
})
);
}
);
};
layerId = master01;
shapes = (
{
closed = 1;
nodes = (
(180,658,o),
(233,685,o),
(330,685,cs),
(425,685,o),
(473,659,o),
(473,607,cs),
(473,535,ls),
(473,520,o),
(487,512,o),
(513,512,cs),
(539,512,o),
(553,520,o),
(553,535,cs),
(553,597,ls),
(553,700,o),
(476,755,o),
(330,755,cs),
(181,755,o),
(100,699,o),
(100,597,cs),
(100,143,ls),
(100,41,o),
(181,-15,o),
(330,-15,cs),
(476,-15,o),
(553,40,o),
(553,143,cs),
(553,205,ls),
(553,220,o),
(539,228,o),
(513,228,cs),
(487,228,o),
(473,220,o),
(473,205,cs),
(473,133,ls),
(473,81,o),
(425,55,o),
(330,55,cs),
(233,55,o),
(180,82,o),
(180,133,cs),
(180,607,ls,{
name = hr00;
})
);
}
);
width = 633;
}
);
unicode = 67;
},
{
glyphname = Cacute;
lastChange = "2023-02-02 13:55:07 +0000";
layers = (
{
background = {
shapes = (
{
closed = 1;
nodes = (
(180,658,o),
(233,685,o),
(330,685,cs),
(425,685,o),
(473,659,o),
(473,607,cs),
(473,535,ls),
(473,520,o),
(487,512,o),
(513,512,cs),
(539,512,o),
(553,520,o),
(553,535,cs),
(553,597,ls),
(553,700,o),
(476,755,o),
(330,755,cs),
(181,755,o),
(100,699,o),
(100,597,cs),
(100,143,ls),
(100,41,o),
(181,-15,o),
(330,-15,cs),
(476,-15,o),
(553,40,o),
(553,143,cs),
(553,205,ls),
(553,220,o),
(539,228,o),
(513,228,cs),
(487,228,o),
(473,220,o),
(473,205,cs),
(473,133,ls),
(473,81,o),
(425,55,o),
(330,55,cs),
(233,55,o),
(180,82,o),
(180,133,cs),
(180,607,ls,{
name = hr00;
})
);
},
{
closed = 1;
nodes = (
(251,807,o),
(253,808,o),
(267,814,cs),
(443,898,ls),
(451,902,o),
(454,907,o),
(454,918,cs),
(454,944,o),
(426,986,o),
(408,986,cs),
(402,986,o),
(399,985,o),
(395,982,cs),
(229,868,ls),
(221,863,o),
(219,859,o),
(219,853,cs),
(219,837,o),
(239,807,o),
(249,807,c,{
name = hr00;
})
);
}
);
};
layerId = master01;
shapes = (
{
ref = C;
},
{
pos = (168,0);
ref = acutecomb.case;
}
);
width = 633;
}
);
unicode = 262;
},
{
glyphname = Ccaron;
lastChange = "2023-02-02 13:55:07 +0000";
layers = (
{
background = {
shapes = (
{
closed = 1;
nodes = (
(180,658,o),
(233,685,o),
(330,685,cs),
(425,685,o),
(473,659,o),
(473,607,cs),
(473,535,ls),
(473,520,o),
(487,512,o),
(513,512,cs),
(539,512,o),
(553,520,o),
(553,535,cs),
(553,597,ls),
(553,700,o),
(476,755,o),
(330,755,cs),
(181,755,o),
(100,699,o),
(100,597,cs),
(100,143,ls),
(100,41,o),
(181,-15,o),
(330,-15,cs),
(476,-15,o),
(553,40,o),
(553,143,cs),
(553,205,ls),
(553,220,o),
(539,228,o),
(513,228,cs),
(487,228,o),
(473,220,o),
(473,205,cs),
(473,133,ls),
(473,81,o),
(425,55,o),
(330,55,cs),
(233,55,o),
(180,82,o),
(180,133,cs),
(180,607,ls,{
name = hr00;
})
);
},
{
closed = 1;
nodes = (
(343,802,o),
(348,803,o),
(351,806,cs),
(471,922,ls),
(477,928,o),
(478,933,o),
(478,937,cs),
(478,955,o),
(459,981,o),
(446,981,cs),
(444,981,o),
(442,980,o),
(439,978,cs),
(336,902,l),
(233,978,ls),
(230,980,o),
(228,981,o),
(226,981,cs),
(213,981,o),
(194,955,o),
(194,937,cs),
(194,933,o),
(195,928,o),
(201,922,cs),
(321,806,ls),
(324,803,o),
(329,802,o),
(331,802,c),
(342,802,l,{
name = hr00;
})
);
}
);
};
layerId = master01;
shapes = (
{
ref = C;
},
{
pos = (94,0);
ref = caroncomb.case;
}
);
width = 633;
}
);
unicode = 268;
},
{
glyphname = Ccedilla;
lastChange = "2023-02-02 13:55:12 +0000";
layers = (
{
background = {
shapes = (
{
closed = 1;
nodes = (
(180,658,o),
(233,685,o),
(330,685,cs),
(425,685,o),
(473,659,o),
(473,607,cs),
(473,535,ls),
(473,520,o),
(487,512,o),
(513,512,cs),
(539,512,o),
(553,520,o),
(553,535,cs),
(553,597,ls),
(553,700,o),
(476,755,o),
(330,755,cs),
(181,755,o),
(100,699,o),
(100,597,cs),
(100,143,ls),
(100,41,o),
(181,-15,o),
(330,-15,cs),
(476,-15,o),
(553,40,o),
(553,143,cs),
(553,205,ls),
(553,220,o),
(539,228,o),
(513,228,cs),
(487,228,o),
(473,220,o),
(473,205,cs),
(473,133,ls),
(473,81,o),
(425,55,o),
(330,55,cs),
(233,55,o),
(180,82,o),
(180,133,cs),
(180,607,ls,{
name = hr00;
})
);
},
{
closed = 1;
nodes = (
(273,-157,o),
(296,-164,o),
(321,-164,cs),
(345,-164,o),
(370,-156,o),
(370,-134,cs),
(370,-109,ls),
(370,-77,o),
(356,-70,o),
(316,-70,c),
(316,-34,l),
(390,-34,o),
(437,-43,o),
(437,-108,cs),
(437,-130,ls),
(437,-191,o),
(380,-222,o),
(320,-222,cs),
(260,-222,o),
(206,-191,o),
(206,-130,cs),
(206,-117,ls),
(206,-102,o),
(221,-96,o),
(239,-96,cs),
(259,-96,o),
(273,-102,o),
(273,-117,cs),
(273,-135,ls,{
name = hr00;
})
);
}
);
};
layerId = master01;
shapes = (
{
ref = C;
},
{
pos = (24,0);
ref = cedillacomb;
}
);
width = 633;
}
);
unicode = 199;
},
{
glyphname = Ccircumflex;
lastChange = "2023-02-02 13:55:07 +0000";
layers = (
{
background = {
shapes = (
{
closed = 1;
nodes = (
(180,658,o),
(233,685,o),
(330,685,cs),
(425,685,o),
(473,659,o),
(473,607,cs),
(473,535,ls),
(473,520,o),
(487,512,o),
(513,512,cs),
(539,512,o),
(553,520,o),
(553,535,cs),
(553,597,ls),
(553,700,o),
(476,755,o),
(330,755,cs),
(181,755,o),
(100,699,o),
(100,597,cs),
(100,143,ls),
(100,41,o),
(181,-15,o),
(330,-15,cs),
(476,-15,o),
(553,40,o),
(553,143,cs),
(553,205,ls),
(553,220,o),
(539,228,o),
(513,228,cs),
(487,228,o),
(473,220,o),
(473,205,cs),
(473,133,ls),
(473,81,o),
(425,55,o),
(330,55,cs),
(233,55,o),
(180,82,o),
(180,133,cs),
(180,607,ls,{
name = hr00;
})
);
},
{
closed = 1;
nodes = (
(329,986,o),
(324,985,o),
(321,982,cs),
(201,866,ls),
(195,860,o),
(194,855,o),
(194,851,cs),
(194,833,o),
(213,807,o),
(226,807,cs),
(228,807,o),
(230,808,o),
(233,810,cs),
(336,886,l),
(439,810,ls),
(442,808,o),
(444,807,o),
(446,807,cs),
(459,807,o),
(478,833,o),
(478,851,cs),
(478,855,o),
(477,860,o),
(471,866,cs),
(351,982,ls),
(348,985,o),
(343,986,o),
(342,986,cs),
(331,986,l,{
name = hr00;
})
);
}
);
};
layerId = master01;
shapes = (
{
ref = C;
},
{
pos = (94,0);
ref = circumflexcomb.case;
}
);
width = 633;
}
);
unicode = 264;
},
{
glyphname = Cdotaccent;
lastChange = "2023-02-02 13:55:07 +0000";
layers = (
{
background = {
shapes = (
{
closed = 1;
nodes = (
(180,658,o),
(233,685,o),
(330,685,cs),
(425,685,o),
(473,659,o),
(473,607,cs),
(473,535,ls),
(473,520,o),
(487,512,o),
(513,512,cs),
(539,512,o),
(553,520,o),
(553,535,cs),
(553,597,ls),
(553,700,o),
(476,755,o),
(330,755,cs),
(181,755,o),
(100,699,o),
(100,597,cs),
(100,143,ls),
(100,41,o),
(181,-15,o),
(330,-15,cs),
(476,-15,o),
(553,40,o),
(553,143,cs),
(553,205,ls),
(553,220,o),
(539,228,o),
(513,228,cs),
(487,228,o),
(473,220,o),
(473,205,cs),
(473,133,ls),
(473,81,o),
(425,55,o),
(330,55,cs),
(233,55,o),
(180,82,o),
(180,133,cs),
(180,607,ls,{
name = hr00;
})
);
},
{
closed = 1;
nodes = (
(380,829,o),
(361,823,o),
(337,823,cs),
(312,823,o),
(293,829,o),
(293,848,cs),
(293,935,ls),
(293,954,o),
(312,960,o),
(336,960,cs),
(361,960,o),
(380,954,o),
(380,935,cs),
(380,848,ls,{
name = hr00;
})
);
}
);
};
layerId = master01;
shapes = (
{
ref = C;
},
{
pos = (192,0);
ref = dotaccentcomb.case;
}
);
width = 633;
}
);
unicode = 266;
},
{
glyphname = D;
lastChange = "2023-02-02 13:49:55 +0000";
layers = (
{
anchors = (
{
name = bottom;
pos = (342,0);
},
{
name = center;
pos = (342,370);
},
{
name = top;
pos = (342,740);
}
);
background = {
shapes = (
{
closed = 1;
nodes = (
(190,670,l),
(378,670,ls),
(464,670,o),
(493,650,o),
(493,592,cs),
(493,148,ls),
(493,90,o),
(464,70,o),
(378,70,cs),
(190,70,l,{
name = hr00;
})
);
},
{
closed = 1;
nodes = (
(110,14,o),
(121,0,o),
(170,0,cs),
(378,0,ls),
(515,0,o),
(573,47,o),
(573,158,cs),
(573,582,ls),
(573,693,o),
(515,740,o),
(378,740,cs),
(170,740,ls),
(121,740,o),
(110,726,o),
(110,665,cs),
(110,75,ls)
);
}
);
};
layerId = master01;
shapes = (
{
closed = 1;
nodes = (
(190,670,l),
(378,670,ls),
(464,670,o),
(493,650,o),
(493,592,cs),
(493,148,ls),
(493,90,o),
(464,70,o),
(378,70,cs),
(190,70,l,{
name = hr00;
})
);
},
{
closed = 1;
nodes = (
(110,14,o),
(121,0,o),
(170,0,cs),
(378,0,ls),
(515,0,o),
(573,47,o),
(573,158,cs),
(573,582,ls),
(573,693,o),
(515,740,o),
(378,740,cs),
(170,740,ls),
(121,740,o),
(110,726,o),
(110,665,cs),
(110,75,ls)
);
}
);
width = 683;
}
);
unicode = 68;
},
{
glyphname = Eth;
lastChange = "2023-02-02 13:55:25 +0000";
layers = (
{
background = {
shapes = (
{
closed = 1;
nodes = (
(190,670,l),
(378,670,ls),
(464,670,o),
(493,650,o),
(493,592,cs),
(493,148,ls),
(493,90,o),
(464,70,o),
(378,70,cs),
(190,70,l,{
name = hr00;
})
);
},
{
closed = 1;
nodes = (
(110,14,o),
(121,0,o),
(170,0,cs),
(378,0,ls),
(515,0,o),
(573,47,o),
(573,158,cs),
(573,582,ls),
(573,693,o),
(515,740,o),
(378,740,cs),
(170,740,ls),
(121,740,o),
(110,726,o),
(110,665,cs),
(110,75,ls)
);
},
{
closed = 1;
nodes = (
(57,404,o),
(50,392,o),
(50,369,cs),
(50,346,o),
(57,334,o),
(70,334,cs),
(395,334,ls),
(408,334,o),
(415,346,o),
(415,369,cs),
(415,392,o),
(408,404,o),
(395,404,cs),
(70,404,ls,{
name = hr00;
})
);
}
);
};
layerId = master01;
shapes = (
{
ref = D;
},
{
closed = 1;
nodes = (
(57,404,o),
(50,392,o),
(50,369,cs),
(50,346,o),
(57,334,o),
(70,334,cs),
(395,334,ls),
(408,334,o),
(415,346,o),
(415,369,cs),
(415,392,o),
(408,404,o),
(395,404,cs),
(70,404,ls,{
name = hr00;
})
);
}
);
width = 683;
}
);
unicode = 208;
},
{
glyphname = Dcaron;
lastChange = "2023-02-02 13:54:17 +0000";
layers = (
{
background = {
shapes = (
{
closed = 1;
nodes = (
(190,670,l),
(378,670,ls),
(464,670,o),
(493,650,o),
(493,592,cs),
(493,148,ls),
(493,90,o),
(464,70,o),
(378,70,cs),
(190,70,l,{
name = hr00;
})
);
},
{
closed = 1;
nodes = (
(110,14,o),
(121,0,o),
(170,0,cs),
(378,0,ls),
(515,0,o),
(573,47,o),
(573,158,cs),
(573,582,ls),
(573,693,o),
(515,740,o),
(378,740,cs),
(170,740,ls),
(121,740,o),
(110,726,o),
(110,665,cs),
(110,75,ls)
);
},
{
closed = 1;
nodes = (
(348,802,o),
(353,803,o),
(356,806,cs),
(476,922,ls),
(482,928,o),
(483,933,o),
(483,937,cs),
(483,955,o),
(464,981,o),
(451,981,cs),
(449,981,o),
(447,980,o),
(444,978,cs),
(341,902,l),
(238,978,ls),
(235,980,o),
(233,981,o),
(231,981,cs),
(218,981,o),
(199,955,o),
(199,937,cs),
(199,933,o),
(200,928,o),
(206,922,cs),
(326,806,ls),
(329,803,o),
(334,802,o),
(336,802,c),
(347,802,l,{
name = hr00;
})
);
}
);
};
layerId = master01;
shapes = (
{
ref = D;
},
{
pos = (100,0);
ref = caroncomb.case;
}
);
width = 683;
}
);
unicode = 270;
},
{
glyphname = Dcroat;
lastChange = "2023-02-02 13:54:17 +0000";
layers = (
{
background = {
shapes = (
{
closed = 1;
nodes = (
(190,670,l),
(378,670,ls),
(464,670,o),
(493,650,o),
(493,592,cs),
(493,148,ls),
(493,90,o),
(464,70,o),
(378,70,cs),
(190,70,l,{
name = hr00;
})
);
},
{
closed = 1;
nodes = (
(110,14,o),
(121,0,o),
(170,0,cs),
(378,0,ls),
(515,0,o),
(573,47,o),
(573,158,cs),
(573,582,ls),
(573,693,o),
(515,740,o),
(378,740,cs),
(170,740,ls),
(121,740,o),
(110,726,o),
(110,665,cs),
(110,75,ls)
);
},
{
closed = 1;
nodes = (
(57,404,o),
(50,392,o),
(50,369,cs),
(50,346,o),
(57,334,o),
(70,334,cs),
(395,334,ls),
(408,334,o),
(415,346,o),
(415,369,cs),
(415,392,o),
(408,404,o),
(395,404,cs),
(70,404,ls,{
name = hr00;
})
);
}
);
};
layerId = master01;
shapes = (
{
ref = Eth;
}
);
width = 683;
}
);
unicode = 272;
},
{
glyphname = E;
lastChange = "2023-02-02 13:56:39 +0000";
layers = (
{
anchors = (
{
name = bottom;
pos = (302,0);
},
{
name = ogonek;
pos = (447,37);
},
{
name = top;
pos = (331,740);
},
{
name = topleft;
pos = (20,740);
}
);
background = {
shapes = (
{
closed = 1;
nodes = (
(188,755,o),
(110,699,o),
(110,597,cs),
(110,504,ls),
(110,437,o),
(133,399,o),
(192,382,c),
(126,367,o),
(100,328,o),
(100,258,cs),
(100,143,ls),
(100,41,o),
(179,-15,o),
(323,-15,cs),
(466,-15,o),
(543,40,o),
(543,143,cs),
(543,205,ls),
(543,220,o),
(529,228,o),
(503,228,cs),
(477,228,o),
(463,220,o),
(463,205,cs),
(463,133,ls),
(463,81,o),
(416,55,o),
(325,55,cs),
(231,55,o),
(180,82,o),
(180,133,cs),
(180,258,ls),
(180,315,o),
(218,346,o),
(288,346,cs),
(373,346,ls),
(386,346,o),
(393,358,o),
(393,381,cs),
(393,404,o),
(386,416,o),
(373,416,cs),
(298,416,ls),
(228,416,o),
(190,447,o),
(190,504,cs),
(190,607,ls),
(190,658,o),
(238,685,o),
(327,685,cs),
(409,685,o),
(451,659,o),
(451,607,cs,{
name = hr01;
}),
(451,582,ls),
(451,567,o),
(465,559,o),
(491,559,cs),
(517,559,o),
(531,567,o),
(531,582,cs),
(531,597,ls),
(531,698,o),
(460,755,o),
(332,755,cs)
);
}
);
};
layerId = master01;
shapes = (
{
closed = 1;
nodes = (
(188,755,o),
(110,699,o),
(110,597,cs),
(110,504,ls),
(110,437,o),
(133,399,o),
(192,382,c),
(126,367,o),
(100,328,o),
(100,258,cs),
(100,143,ls),
(100,41,o),
(179,-15,o),
(323,-15,cs),
(466,-15,o),
(543,40,o),
(543,143,cs),
(543,205,ls),
(543,220,o),
(529,228,o),
(503,228,cs),
(477,228,o),
(463,220,o),
(463,205,cs),
(463,133,ls),
(463,81,o),
(416,55,o),
(325,55,cs),
(231,55,o),
(180,82,o),
(180,133,cs),
(180,258,ls),
(180,315,o),
(218,346,o),
(288,346,cs),
(373,346,ls),
(386,346,o),
(393,358,o),
(393,381,cs),
(393,404,o),
(386,416,o),
(373,416,cs),
(298,416,ls),
(228,416,o),
(190,447,o),
(190,504,cs),
(190,607,ls),
(190,658,o),
(238,685,o),
(327,685,cs),
(409,685,o),
(451,659,o),
(451,607,cs,{
name = hr01;
}),
(451,582,ls),
(451,567,o),
(465,559,o),
(491,559,cs),
(517,559,o),
(531,567,o),
(531,582,cs),
(531,597,ls),
(531,698,o),
(460,755,o),
(332,755,cs)
);
}
);
width = 603;
}
);
unicode = 69;
},
{
glyphname = Eacute;
lastChange = "2023-02-02 13:55:47 +0000";
layers = (
{
background = {
shapes = (
{
closed = 1;
nodes = (
(188,755,o),
(110,699,o),
(110,597,cs),
(110,504,ls),
(110,437,o),
(133,399,o),
(192,382,c),
(126,367,o),
(100,328,o),
(100,258,cs),
(100,143,ls),
(100,41,o),
(179,-15,o),
(323,-15,cs),
(466,-15,o),
(543,40,o),
(543,143,cs),
(543,205,ls),
(543,220,o),
(529,228,o),
(503,228,cs),
(477,228,o),
(463,220,o),
(463,205,cs),
(463,133,ls),
(463,81,o),
(416,55,o),
(325,55,cs),
(231,55,o),
(180,82,o),
(180,133,cs),
(180,258,ls),
(180,315,o),
(218,346,o),
(288,346,cs),
(373,346,ls),
(386,346,o),
(393,358,o),
(393,381,cs),
(393,404,o),
(386,416,o),
(373,416,cs),
(298,416,ls),
(228,416,o),
(190,447,o),
(190,504,cs),
(190,607,ls),
(190,658,o),
(238,685,o),
(327,685,cs),
(409,685,o),
(451,659,o),
(451,607,cs,{
name = hr01;
}),
(451,582,ls),
(451,567,o),
(465,559,o),
(491,559,cs),
(517,559,o),
(531,567,o),
(531,582,cs),
(531,597,ls),
(531,698,o),
(460,755,o),
(332,755,cs)
);
},
{
closed = 1;
nodes = (
(246,807,o),
(248,808,o),
(262,814,cs),
(438,898,ls),
(446,902,o),
(449,907,o),
(449,918,cs),
(449,944,o),
(421,986,o),
(403,986,cs),
(397,986,o),
(394,985,o),
(390,982,cs),
(224,868,ls),
(216,863,o),
(214,859,o),
(214,853,cs),
(214,837,o),
(234,807,o),
(244,807,cs,{
name = hr00;
})
);
}
);
};
layerId = master01;
shapes = (
{
ref = E;
},
{
pos = (163,0);
ref = acutecomb.case;
}
);
width = 603;
}
);
unicode = 201;
},
{
glyphname = Ebreve;
lastChange = "2023-02-02 13:55:47 +0000";
layers = (
{
background = {
shapes = (
{
closed = 1;
nodes = (
(188,755,o),
(110,699,o),
(110,597,cs),
(110,504,ls),
(110,437,o),
(133,399,o),
(192,382,c),
(126,367,o),
(100,328,o),
(100,258,cs),
(100,143,ls),
(100,41,o),
(179,-15,o),
(323,-15,cs),
(466,-15,o),
(543,40,o),
(543,143,cs),
(543,205,ls),
(543,220,o),
(529,228,o),
(503,228,cs),
(477,228,o),
(463,220,o),
(463,205,cs),
(463,133,ls),
(463,81,o),
(416,55,o),
(325,55,cs),
(231,55,o),
(180,82,o),
(180,133,cs),
(180,258,ls),
(180,315,o),
(218,346,o),
(288,346,cs),
(373,346,ls),
(386,346,o),
(393,358,o),
(393,381,cs),
(393,404,o),
(386,416,o),
(373,416,cs),
(298,416,ls),
(228,416,o),
(190,447,o),
(190,504,cs),
(190,607,ls),
(190,658,o),
(238,685,o),
(327,685,cs),
(409,685,o),
(451,659,o),
(451,607,cs,{
name = hr01;
}),
(451,582,ls),
(451,567,o),
(465,559,o),
(491,559,cs),
(517,559,o),
(531,567,o),
(531,582,cs),
(531,597,ls),
(531,698,o),
(460,755,o),
(332,755,cs)
);
},
{
closed = 1;
nodes = (
(280,949,o),
(263,954,o),
(244,954,cs),
(225,954,o),
(209,949,o),
(209,934,cs),
(209,909,ls),
(209,848,o),
(241,817,o),
(329,817,cs),
(416,817,o),
(453,848,o),
(453,909,cs),
(453,934,ls),
(453,949,o),
(436,954,o),
(417,954,cs),
(398,954,o),
(382,949,o),
(382,934,cs),
(382,910,ls),
(382,888,o),
(356,880,o),
(330,880,cs),
(302,880,o),
(280,887,o),
(280,909,cs),
(280,934,ls,{
name = hr00;
})
);
}
);
};
layerId = master01;
shapes = (
{
ref = E;
},
{
pos = (159,0);
ref = brevecomb.case;
}
);
width = 603;
}
);
unicode = 276;
},
{
glyphname = Ecaron;
lastChange = "2023-02-02 13:55:47 +0000";
layers = (
{
background = {
shapes = (
{
closed = 1;
nodes = (
(188,755,o),
(110,699,o),
(110,597,cs),
(110,504,ls),
(110,437,o),
(133,399,o),
(192,382,c),
(126,367,o),
(100,328,o),
(100,258,cs),
(100,143,ls),
(100,41,o),
(179,-15,o),
(323,-15,cs),
(466,-15,o),
(543,40,o),
(543,143,cs),
(543,205,ls),
(543,220,o),
(529,228,o),
(503,228,cs),
(477,228,o),
(463,220,o),
(463,205,cs),
(463,133,ls),
(463,81,o),
(416,55,o),
(325,55,cs),
(231,55,o),
(180,82,o),
(180,133,cs),
(180,258,ls),
(180,315,o),
(218,346,o),
(288,346,cs),
(373,346,ls),
(386,346,o),
(393,358,o),
(393,381,cs),
(393,404,o),
(386,416,o),
(373,416,cs),
(298,416,ls),
(228,416,o),
(190,447,o),
(190,504,cs),
(190,607,ls),
(190,658,o),
(238,685,o),
(327,685,cs),
(409,685,o),
(451,659,o),
(451,607,cs,{
name = hr01;
}),
(451,582,ls),
(451,567,o),
(465,559,o),
(491,559,cs),
(517,559,o),
(531,567,o),
(531,582,cs),
(531,597,ls),
(531,698,o),
(460,755,o),
(332,755,cs)
);
},
{
closed = 1;
nodes = (
(339,802,o),
(344,804,o),
(346,806,cs),
(466,922,ls),
(471,927,o),
(473,932,o),
(473,937,cs),
(473,955,o),
(454,981,o),
(441,981,cs),
(439,981,o),
(437,980,o),
(434,978,cs),
(331,902,l),
(228,978,ls),
(224,980,o),
(223,981,o),
(221,981,cs),
(208,981,o),
(189,955,o),
(189,937,cs),
(189,932,o),
(191,927,o),
(196,922,cs),
(316,806,ls),
(318,804,o),
(323,802,o),
(326,802,c),
(337,802,l,{
name = hr00;
})
);
}
);
};
layerId = master01;
shapes = (
{
ref = E;
},
{
pos = (89,0);
ref = caroncomb.case;
}
);
width = 603;
}
);
unicode = 282;
},
{
glyphname = Ecircumflex;
lastChange = "2023-02-02 13:55:47 +0000";
layers = (
{
background = {
shapes = (
{
closed = 1;
nodes = (
(188,755,o),
(110,699,o),
(110,597,cs),
(110,504,ls),
(110,437,o),
(133,399,o),
(192,382,c),
(126,367,o),
(100,328,o),
(100,258,cs),
(100,143,ls),
(100,41,o),
(179,-15,o),
(323,-15,cs),
(466,-15,o),
(543,40,o),
(543,143,cs),
(543,205,ls),
(543,220,o),
(529,228,o),
(503,228,cs),
(477,228,o),
(463,220,o),
(463,205,cs),
(463,133,ls),
(463,81,o),
(416,55,o),
(325,55,cs),
(231,55,o),
(180,82,o),
(180,133,cs),
(180,258,ls),
(180,315,o),
(218,346,o),
(288,346,cs),
(373,346,ls),
(386,346,o),
(393,358,o),
(393,381,cs),
(393,404,o),
(386,416,o),
(373,416,cs),
(298,416,ls),
(228,416,o),
(190,447,o),
(190,504,cs),
(190,607,ls),
(190,658,o),
(238,685,o),
(327,685,cs),
(409,685,o),
(451,659,o),
(451,607,cs,{
name = hr01;
}),
(451,582,ls),
(451,567,o),
(465,559,o),
(491,559,cs),
(517,559,o),
(531,567,o),
(531,582,cs),
(531,597,ls),
(531,698,o),
(460,755,o),
(332,755,cs)
);
},
{
closed = 1;
nodes = (
(323,986,o),
(318,984,o),
(316,982,cs),
(196,866,ls),
(191,861,o),
(189,856,o),
(189,851,cs),
(189,833,o),
(208,807,o),
(221,807,cs),
(223,807,o),
(224,808,o),
(228,810,cs),
(331,886,l),
(434,810,ls),
(437,808,o),
(439,807,o),
(441,807,cs),
(454,807,o),
(473,833,o),
(473,851,cs),
(473,856,o),
(471,861,o),
(466,866,cs),
(346,982,ls),
(344,984,o),
(339,986,o),
(337,986,cs),
(326,986,l,{
name = hr00;
})
);
}
);
};
layerId = master01;
shapes = (
{
ref = E;
},
{
pos = (89,0);
ref = circumflexcomb.case;
}
);
width = 603;
}
);
unicode = 202;
},
{
glyphname = Edieresis;
lastChange = "2023-02-02 13:55:47 +0000";
layers = (
{
background = {
shapes = (
{
closed = 1;
nodes = (
(188,755,o),
(110,699,o),
(110,597,cs),
(110,504,ls),
(110,437,o),
(133,399,o),
(192,382,c),
(126,367,o),
(100,328,o),
(100,258,cs),
(100,143,ls),
(100,41,o),
(179,-15,o),
(323,-15,cs),
(466,-15,o),
(543,40,o),
(543,143,cs),
(543,205,ls),
(543,220,o),
(529,228,o),
(503,228,cs),
(477,228,o),
(463,220,o),
(463,205,cs),
(463,133,ls),
(463,81,o),
(416,55,o),
(325,55,cs),
(231,55,o),
(180,82,o),
(180,133,cs),
(180,258,ls),
(180,315,o),
(218,346,o),
(288,346,cs),
(373,346,ls),
(386,346,o),
(393,358,o),
(393,381,cs),
(393,404,o),
(386,416,o),
(373,416,cs),
(298,416,ls),
(228,416,o),
(190,447,o),
(190,504,cs),
(190,607,ls),
(190,658,o),
(238,685,o),
(327,685,cs),
(409,685,o),
(451,659,o),
(451,607,cs,{
name = hr01;
}),
(451,582,ls),
(451,567,o),
(465,559,o),
(491,559,cs),
(517,559,o),
(531,567,o),
(531,582,cs),
(531,597,ls),
(531,698,o),
(460,755,o),
(332,755,cs)
);
},
{
closed = 1;
nodes = (
(275,832,o),
(260,823,o),
(232,823,cs),
(203,823,o),
(188,831,o),
(188,848,cs),
(188,935,ls),
(188,951,o),
(203,960,o),
(231,960,cs),
(260,960,o),
(275,952,o),
(275,935,cs),
(275,848,ls,{
name = hr00;
})
);
},
{
closed = 1;
nodes = (
(475,832,o),
(460,823,o),
(432,823,cs),
(403,823,o),
(388,831,o),
(388,848,cs),
(388,935,ls),
(388,951,o),
(403,960,o),
(431,960,cs),
(460,960,o),
(475,952,o),
(475,935,cs),
(475,848,ls)
);
}
);
};
layerId = master01;
shapes = (
{
ref = E;
},
{
pos = (87,0);
ref = dieresiscomb.case;
}
);
width = 603;
}
);
unicode = 203;
},
{
glyphname = Edotaccent;
lastChange = "2023-02-02 13:55:47 +0000";
layers = (
{
background = {
shapes = (
{
closed = 1;
nodes = (
(188,755,o),
(110,699,o),
(110,597,cs),
(110,504,ls),
(110,437,o),
(133,399,o),
(192,382,c),
(126,367,o),
(100,328,o),
(100,258,cs),
(100,143,ls),
(100,41,o),
(179,-15,o),
(323,-15,cs),
(466,-15,o),
(543,40,o),
(543,143,cs),
(543,205,ls),
(543,220,o),
(529,228,o),
(503,228,cs),
(477,228,o),
(463,220,o),
(463,205,cs),
(463,133,ls),
(463,81,o),
(416,55,o),
(325,55,cs),
(231,55,o),
(180,82,o),
(180,133,cs),
(180,258,ls),
(180,315,o),
(218,346,o),
(288,346,cs),
(373,346,ls),
(386,346,o),
(393,358,o),
(393,381,cs),
(393,404,o),
(386,416,o),
(373,416,cs),
(298,416,ls),
(228,416,o),
(190,447,o),
(190,504,cs),
(190,607,ls),
(190,658,o),
(238,685,o),
(327,685,cs),
(409,685,o),
(451,659,o),
(451,607,cs,{
name = hr01;
}),
(451,582,ls),
(451,567,o),
(465,559,o),
(491,559,cs),
(517,559,o),
(531,567,o),
(531,582,cs),
(531,597,ls),
(531,698,o),
(460,755,o),
(332,755,cs)
);
},
{
closed = 1;
nodes = (
(375,829,o),
(356,823,o),
(332,823,cs),
(307,823,o),
(288,829,o),
(288,848,cs),
(288,935,ls),
(288,954,o),
(307,960,o),
(331,960,cs),
(356,960,o),
(375,954,o),
(375,935,cs),
(375,848,ls,{
name = hr00;
})
);
}
);
};
layerId = master01;
shapes = (
{
ref = E;
},
{
pos = (187,0);
ref = dotaccentcomb.case;
}
);
width = 603;
}
);
unicode = 278;
},
{
glyphname = Egrave;
lastChange = "2023-02-02 13:55:47 +0000";
layers = (
{
background = {
shapes = (
{
closed = 1;
nodes = (
(188,755,o),
(110,699,o),
(110,597,cs),
(110,504,ls),
(110,437,o),
(133,399,o),
(192,382,c),
(126,367,o),
(100,328,o),
(100,258,cs),
(100,143,ls),
(100,41,o),
(179,-15,o),
(323,-15,cs),
(466,-15,o),
(543,40,o),
(543,143,cs),
(543,205,ls),
(543,220,o),
(529,228,o),
(503,228,cs),
(477,228,o),
(463,220,o),
(463,205,cs),
(463,133,ls),
(463,81,o),
(416,55,o),
(325,55,cs),
(231,55,o),
(180,82,o),
(180,133,cs),
(180,258,ls),
(180,315,o),
(218,346,o),
(288,346,cs),
(373,346,ls),
(386,346,o),
(393,358,o),
(393,381,cs),
(393,404,o),
(386,416,o),
(373,416,cs),
(298,416,ls),
(228,416,o),
(190,447,o),
(190,504,cs),
(190,607,ls),
(190,658,o),
(238,685,o),
(327,685,cs),
(409,685,o),
(451,659,o),
(451,607,cs,{
name = hr01;
}),
(451,582,ls),
(451,567,o),
(465,559,o),
(491,559,cs),
(517,559,o),
(531,567,o),
(531,582,cs),
(531,597,ls),
(531,698,o),
(460,755,o),
(332,755,cs)
);
},
{
closed = 1;
nodes = (
(399,807,o),
(419,837,o),
(419,853,cs),
(419,859,o),
(417,863,o),
(409,868,cs),
(243,982,ls),
(239,985,o),
(236,986,o),
(230,986,cs),
(212,986,o),
(184,944,o),
(184,918,cs),
(184,907,o),
(187,902,o),
(195,898,cs),
(371,814,ls),
(385,808,o),
(387,807,o),
(389,807,cs,{
name = hr00;
})
);
}
);
};
layerId = master01;
shapes = (
{
ref = E;
},
{
pos = (163,0);
ref = gravecomb.case;
}
);
width = 603;
}
);
unicode = 200;
},
{
glyphname = Emacron;
lastChange = "2023-02-02 13:55:47 +0000";
layers = (
{
background = {
shapes = (
{
closed = 1;
nodes = (
(188,755,o),
(110,699,o),
(110,597,cs),
(110,504,ls),
(110,437,o),
(133,399,o),
(192,382,c),
(126,367,o),
(100,328,o),
(100,258,cs),
(100,143,ls),
(100,41,o),
(179,-15,o),
(323,-15,cs),
(466,-15,o),
(543,40,o),
(543,143,cs),
(543,205,ls),
(543,220,o),
(529,228,o),
(503,228,cs),
(477,228,o),
(463,220,o),
(463,205,cs),
(463,133,ls),
(463,81,o),
(416,55,o),
(325,55,cs),
(231,55,o),
(180,82,o),
(180,133,cs),
(180,258,ls),
(180,315,o),
(218,346,o),
(288,346,cs),
(373,346,ls),
(386,346,o),
(393,358,o),
(393,381,cs),
(393,404,o),
(386,416,o),
(373,416,cs),
(298,416,ls),
(228,416,o),
(190,447,o),
(190,504,cs),
(190,607,ls),
(190,658,o),
(238,685,o),
(327,685,cs),
(409,685,o),
(451,659,o),
(451,607,cs,{
name = hr01;
}),
(451,582,ls),
(451,567,o),
(465,559,o),
(491,559,cs),
(517,559,o),
(531,567,o),
(531,582,cs),
(531,597,ls),
(531,698,o),
(460,755,o),
(332,755,cs)
);
},
{
closed = 1;
nodes = (
(183,927,o),
(178,911,o),
(178,889,cs),
(178,868,o),
(183,850,o),
(198,850,cs),
(465,850,ls),
(480,850,o),
(485,867,o),
(485,889,cs),
(485,910,o),
(480,927,o),
(465,927,cs),
(198,927,ls,{
name = hr00;
})
);
}
);
};
layerId = master01;
shapes = (
{
ref = E;
},
{
pos = (77,0);
ref = macroncomb.case;
}
);
width = 603;
}
);
unicode = 274;
},
{
glyphname = Eogonek;
lastChange = "2023-02-02 13:56:39 +0000";
layers = (
{
anchors = (
{
name = top;
pos = (302,740);
}
);
background = {
shapes = (
{
closed = 1;
nodes = (
(401,-222,o),
(447,-185,o),
(447,-130,cs),
(447,-117,ls),
(447,-104,o),
(435,-96,o),
(414,-96,cs),
(392,-96,o),
(380,-103,o),
(380,-117,cs),
(380,-135,ls),
(380,-154,o),
(363,-164,o),
(332,-164,cs),
(302,-164,o),
(283,-152,o),
(283,-134,cs),
(283,-109,ls),
(283,-74,o),
(296,-54,o),
(329,-41,cs),
(430,-1,ls),
(502,27,o),
(543,70,o),
(543,143,cs),
(543,205,ls),
(543,220,o),
(529,228,o),
(503,228,cs),
(477,228,o),
(463,220,o),
(463,205,cs),
(463,133,ls),
(463,81,o),
(416,55,o),
(325,55,cs),
(231,55,o),
(180,82,o),
(180,133,cs),
(180,258,ls),
(180,315,o),
(218,346,o),
(288,346,cs),
(373,346,ls),
(386,346,o),
(393,358,o),
(393,381,cs),
(393,404,o),
(386,416,o),
(373,416,cs),
(298,416,ls),
(228,416,o),
(190,447,o),
(190,504,cs),
(190,607,ls),
(190,658,o),
(238,685,o),
(327,685,cs),
(409,685,o),
(451,659,o),
(451,607,cs,{
name = hr01;
}),
(451,582,ls),
(451,567,o),
(465,559,o),
(491,559,cs),
(517,559,o),
(531,567,o),
(531,582,cs),
(531,597,ls),
(531,698,o),
(460,755,o),
(332,755,cs),
(188,755,o),
(110,699,o),
(110,597,cs),
(110,504,ls),
(110,437,o),
(133,399,o),
(192,382,c),
(126,367,o),
(100,328,o),
(100,258,cs),
(100,143,ls),
(100,49,o),
(166,-6,o),
(289,-14,c),
(229,-40,o),
(216,-60,o),
(216,-108,cs),
(216,-130,ls),
(216,-184,o),
(264,-222,o),
(333,-222,cs)
);
}
);
};
layerId = master01;
shapes = (
{
ref = E;
},
{
pos = (-2,0);
ref = ogonekcomb;
}
);
width = 603;
}
);
unicode = 280;
},
{
glyphname = F;
lastChange = "2023-02-02 13:49:55 +0000";
layers = (
{
anchors = (
{
name = bottom;
pos = (245,0);
},
{
name = top;
pos = (245,740);
}
);
background = {
shapes = (
{
closed = 1;
nodes = (
(433,346,o),
(440,358,o),
(440,381,cs),
(440,404,o),
(433,416,o),
(420,416,cs),
(190,416,l),
(190,564,ls),
(190,641,o),
(211,670,o),
(268,670,cs),
(460,670,ls),
(473,670,o),
(480,682,o),
(480,705,cs),
(480,728,o),
(473,740,o),
(460,740,cs),
(268,740,ls),
(155,740,o),
(110,690,o),
(110,564,cs),
(110,18,ls),
(110,3,o),
(124,-5,o),
(150,-5,cs),
(176,-5,o),
(190,3,o),
(190,18,cs),
(190,346,l),
(420,346,ls,{
name = hr00;
})
);
}
);
};
layerId = master01;
shapes = (
{
closed = 1;
nodes = (
(433,346,o),
(440,358,o),
(440,381,cs),
(440,404,o),
(433,416,o),
(420,416,cs),
(190,416,l),
(190,564,ls),
(190,641,o),
(211,670,o),
(268,670,cs),
(460,670,ls),
(473,670,o),
(480,682,o),
(480,705,cs),
(480,728,o),
(473,740,o),
(460,740,cs),
(268,740,ls),
(155,740,o),
(110,690,o),
(110,564,cs),
(110,18,ls),
(110,3,o),
(124,-5,o),
(150,-5,cs),
(176,-5,o),
(190,3,o),
(190,18,cs),
(190,346,l),
(420,346,ls,{
name = hr00;
})
);
}
);
width = 490;
}
);
unicode = 70;
},
{
glyphname = G;
lastChange = "2023-02-02 13:57:03 +0000";
layers = (
{
anchors = (
{
name = bottom;
pos = (337,0);
},
{
name = top;
pos = (331,740);
}
);
background = {
shapes = (
{
closed = 1;
nodes = (
(483,82,o),
(429,55,o),
(328,55,cs),
(230,55,o),
(180,81,o),
(180,133,cs),
(180,607,ls),
(180,657,o),
(232,685,o),
(327,685,cs),
(420,685,o),
(468,659,o),
(468,607,cs,{
name = hr01;
}),
(468,542,ls),
(468,527,o),
(482,519,o),
(508,519,cs),
(534,519,o),
(548,527,o),
(548,542,cs),
(548,597,ls),
(548,701,o),
(472,755,o),
(327,755,cs),
(180,755,o),
(100,699,o),
(100,597,cs),
(100,143,ls),
(100,39,o),
(179,-15,o),
(328,-15,cs),
(480,-15,o),
(563,41,o),
(563,143,cs,{
name = hr02;
}),
(563,231,ls),
(563,345,o),
(516,389,o),
(397,389,cs),
(320,389,ls),
(307,389,o),
(300,377,o),
(300,354,cs),
(300,331,o),
(307,319,o),
(320,319,cs),
(397,319,ls),
(463,319,o),
(483,299,o),
(483,231,cs),
(483,133,ls)
);
}
);
};
layerId = master01;
shapes = (
{
closed = 1;
nodes = (
(483,82,o),
(429,55,o),
(328,55,cs),
(230,55,o),
(180,81,o),
(180,133,cs),
(180,607,ls),
(180,657,o),
(232,685,o),
(327,685,cs),
(420,685,o),
(468,659,o),
(468,607,cs,{
name = hr01;
}),
(468,542,ls),
(468,527,o),
(482,519,o),
(508,519,cs),
(534,519,o),
(548,527,o),
(548,542,cs),
(548,597,ls),
(548,701,o),
(472,755,o),
(327,755,cs),
(180,755,o),
(100,699,o),
(100,597,cs),
(100,143,ls),
(100,39,o),
(179,-15,o),
(328,-15,cs),
(480,-15,o),
(563,41,o),
(563,143,cs,{
name = hr02;
}),
(563,231,ls),
(563,345,o),
(516,389,o),
(397,389,cs),
(320,389,ls),
(307,389,o),
(300,377,o),
(300,354,cs),
(300,331,o),
(307,319,o),
(320,319,cs),
(397,319,ls),
(463,319,o),
(483,299,o),
(483,231,cs),
(483,133,ls)
);
}
);
width = 643;
}
);
unicode = 71;
},
{
glyphname = Gbreve;
lastChange = "2023-02-02 13:56:56 +0000";
layers = (
{
background = {
shapes = (
{
closed = 1;
nodes = (
(483,82,o),
(429,55,o),
(328,55,cs),
(230,55,o),
(180,81,o),
(180,133,cs),
(180,607,ls),
(180,657,o),
(232,685,o),
(327,685,cs),
(420,685,o),
(468,659,o),
(468,607,cs,{
name = hr01;
}),
(468,542,ls),
(468,527,o),
(482,519,o),
(508,519,cs),
(534,519,o),
(548,527,o),
(548,542,cs),
(548,597,ls),
(548,701,o),
(472,755,o),
(327,755,cs),
(180,755,o),
(100,699,o),
(100,597,cs),
(100,143,ls),
(100,39,o),
(179,-15,o),
(328,-15,cs),
(480,-15,o),
(563,41,o),
(563,143,cs,{
name = hr02;
}),
(563,231,ls),
(563,345,o),
(516,389,o),
(397,389,cs),
(320,389,ls),
(307,389,o),
(300,377,o),
(300,354,cs),
(300,331,o),
(307,319,o),
(320,319,cs),
(397,319,ls),
(463,319,o),
(483,299,o),
(483,231,cs),
(483,133,ls)
);
},
{
closed = 1;
nodes = (
(280,949,o),
(263,954,o),
(244,954,cs),
(225,954,o),
(209,949,o),
(209,934,cs),
(209,909,ls),
(209,848,o),
(241,817,o),
(329,817,cs),
(416,817,o),
(453,848,o),
(453,909,cs),
(453,934,ls),
(453,949,o),
(436,954,o),
(417,954,cs),
(398,954,o),
(382,949,o),
(382,934,cs),
(382,910,ls),
(382,888,o),
(356,880,o),
(330,880,cs),
(302,880,o),
(280,887,o),
(280,909,cs),
(280,934,ls,{
name = hr00;
})
);
}
);
};
layerId = master01;
shapes = (
{
ref = G;
},
{
pos = (159,0);
ref = brevecomb.case;
}
);
width = 643;
}
);
unicode = 286;
},
{
glyphname = Gcircumflex;
lastChange = "2023-02-02 13:56:56 +0000";
layers = (
{
background = {
shapes = (
{
closed = 1;
nodes = (
(483,82,o),
(429,55,o),
(328,55,cs),
(230,55,o),
(180,81,o),
(180,133,cs),
(180,607,ls),
(180,657,o),
(232,685,o),
(327,685,cs),
(420,685,o),
(468,659,o),
(468,607,cs,{
name = hr01;
}),
(468,542,ls),
(468,527,o),
(482,519,o),
(508,519,cs),
(534,519,o),
(548,527,o),
(548,542,cs),
(548,597,ls),
(548,701,o),
(472,755,o),
(327,755,cs),
(180,755,o),
(100,699,o),
(100,597,cs),
(100,143,ls),
(100,39,o),
(179,-15,o),
(328,-15,cs),
(480,-15,o),
(563,41,o),
(563,143,cs,{
name = hr02;
}),
(563,231,ls),
(563,345,o),
(516,389,o),
(397,389,cs),
(320,389,ls),
(307,389,o),
(300,377,o),
(300,354,cs),
(300,331,o),
(307,319,o),
(320,319,cs),
(397,319,ls),
(463,319,o),
(483,299,o),
(483,231,cs),
(483,133,ls)
);
},
{
closed = 1;
nodes = (
(324,986,o),
(319,985,o),
(316,982,cs),
(196,866,ls),
(190,860,o),
(189,855,o),
(189,851,cs),
(189,833,o),
(208,807,o),
(221,807,cs),
(223,807,o),
(225,808,o),
(228,810,cs),
(331,886,l),
(434,810,ls),
(437,808,o),
(439,807,o),
(441,807,cs),
(454,807,o),
(473,833,o),
(473,851,cs),
(473,855,o),
(472,860,o),
(466,866,cs),
(346,982,ls),
(343,985,o),
(338,986,o),
(337,986,cs),
(326,986,l,{
name = hr00;
})
);
}
);
};
layerId = master01;
shapes = (
{
ref = G;
},
{
pos = (89,0);
ref = circumflexcomb.case;
}
);
width = 643;
}
);
unicode = 284;
},
{
glyphname = Gcommaaccent;
lastChange = "2023-02-02 13:57:03 +0000";
layers = (
{
background = {
shapes = (
{
closed = 1;
nodes = (
(483,82,o),
(429,55,o),
(328,55,cs),
(230,55,o),
(180,81,o),
(180,133,cs),
(180,607,ls),
(180,657,o),
(232,685,o),
(327,685,cs),
(420,685,o),
(468,659,o),
(468,607,cs,{
name = hr01;
}),
(468,542,ls),
(468,527,o),
(482,519,o),
(508,519,cs),
(534,519,o),
(548,527,o),
(548,542,cs),
(548,597,ls),
(548,701,o),
(472,755,o),
(327,755,cs),
(180,755,o),
(100,699,o),
(100,597,cs),
(100,143,ls),
(100,39,o),
(179,-15,o),
(328,-15,cs),
(480,-15,o),
(563,41,o),
(563,143,cs,{
name = hr02;
}),
(563,231,ls),
(563,345,o),
(516,389,o),
(397,389,cs),
(320,389,ls),
(307,389,o),
(300,377,o),
(300,354,cs),
(300,331,o),
(307,319,o),
(320,319,cs),
(397,319,ls),
(463,319,o),
(483,299,o),
(483,231,cs),
(483,133,ls)
);
},
{
closed = 1;
nodes = (
(349,-257,o),
(355,-254,o),
(357,-248,cs),
(362,-234,ls),
(373,-198,o),
(379,-172,o),
(379,-155,cs),
(379,-64,ls),
(379,-46,o),
(361,-40,o),
(336,-40,cs),
(312,-40,o),
(294,-46,o),
(294,-64,cs),
(294,-116,ls),
(294,-140,o),
(318,-152,o),
(318,-174,cs,{
name = hr01;
}),
(318,-182,o),
(315,-190,o),
(312,-199,cs),
(302,-225,ls),
(300,-230,o),
(300,-232,o),
(300,-234,cs),
(300,-243,o),
(325,-257,o),
(342,-257,cs)
);
}
);
};
layerId = master01;
shapes = (
{
ref = G;
},
{
pos = (236,0);
ref = commaaccentcomb;
}
);
width = 643;
}
);
unicode = 290;
},
{
glyphname = Gdotaccent;
lastChange = "2023-02-02 13:56:56 +0000";
layers = (
{
background = {
shapes = (
{
closed = 1;
nodes = (
(483,82,o),
(429,55,o),
(328,55,cs),
(230,55,o),
(180,81,o),
(180,133,cs),
(180,607,ls),
(180,657,o),
(232,685,o),
(327,685,cs),
(420,685,o),
(468,659,o),
(468,607,cs,{
name = hr01;
}),
(468,542,ls),
(468,527,o),
(482,519,o),
(508,519,cs),
(534,519,o),
(548,527,o),
(548,542,cs),
(548,597,ls),
(548,701,o),
(472,755,o),
(327,755,cs),
(180,755,o),
(100,699,o),
(100,597,cs),
(100,143,ls),
(100,39,o),
(179,-15,o),
(328,-15,cs),
(480,-15,o),
(563,41,o),
(563,143,cs,{
name = hr02;
}),
(563,231,ls),
(563,345,o),
(516,389,o),
(397,389,cs),
(320,389,ls),
(307,389,o),
(300,377,o),
(300,354,cs),
(300,331,o),
(307,319,o),
(320,319,cs),
(397,319,ls),
(463,319,o),
(483,299,o),
(483,231,cs),
(483,133,ls)
);
},
{
closed = 1;
nodes = (
(375,829,o),
(356,823,o),
(332,823,cs),
(307,823,o),
(288,829,o),
(288,848,cs),
(288,935,ls),
(288,954,o),
(307,960,o),
(331,960,cs),
(356,960,o),
(375,954,o),
(375,935,cs),
(375,848,ls,{
name = hr00;
})
);
}
);
};
layerId = master01;
shapes = (
{
ref = G;
},
{
pos = (187,0);
ref = dotaccentcomb.case;
}
);
width = 643;
}
);
unicode = 288;
},
{
glyphname = H;
lastChange = "2023-02-02 13:49:55 +0000";
layers = (
{
anchors = (
{
name = bottom;
pos = (342,0);
},
{
name = center;
pos = (342,370);
},
{
name = top;
pos = (342,740);
},
{
name = topleft;
pos = (20,740);
}
);
background = {
shapes = (
{
closed = 1;
nodes = (
(573,737,o),
(559,745,o),
(533,745,cs),
(507,745,o),
(493,737,o),
(493,722,cs),
(493,399,l),
(190,399,l),
(190,722,ls),
(190,737,o),
(176,745,o),
(150,745,cs),
(124,745,o),
(110,737,o),
(110,722,cs),
(110,18,ls),
(110,3,o),
(124,-5,o),
(150,-5,cs),
(176,-5,o),
(190,3,o),
(190,18,cs),
(190,329,l),
(493,329,l),
(493,18,ls),
(493,3,o),
(507,-5,o),
(533,-5,cs),
(559,-5,o),
(573,3,o),
(573,18,cs),
(573,722,ls,{
name = hr00;
})
);
}
);
};
layerId = master01;
shapes = (
{
closed = 1;
nodes = (
(573,737,o),
(559,745,o),
(533,745,cs),
(507,745,o),
(493,737,o),
(493,722,cs),
(493,399,l),
(190,399,l),
(190,722,ls),
(190,737,o),
(176,745,o),
(150,745,cs),
(124,745,o),
(110,737,o),
(110,722,cs),
(110,18,ls),
(110,3,o),
(124,-5,o),
(150,-5,cs),
(176,-5,o),
(190,3,o),
(190,18,cs),
(190,329,l),
(493,329,l),
(493,18,ls),
(493,3,o),
(507,-5,o),
(533,-5,cs),
(559,-5,o),
(573,3,o),
(573,18,cs),
(573,722,ls,{
name = hr00;
})
);
}
);
width = 683;
}
);
unicode = 72;
},
{
glyphname = Hbar;
lastChange = "2023-02-02 13:57:11 +0000";
layers = (
{
background = {
shapes = (
{
closed = 1;
nodes = (
(573,737,o),
(559,745,o),
(533,745,cs),
(507,745,o),
(493,737,o),
(493,722,cs),
(493,399,l),
(190,399,l),
(190,722,ls),
(190,737,o),
(176,745,o),
(150,745,cs),
(124,745,o),
(110,737,o),
(110,722,cs),
(110,18,ls),
(110,3,o),
(124,-5,o),
(150,-5,cs),
(176,-5,o),
(190,3,o),
(190,18,cs),
(190,329,l),
(493,329,l),
(493,18,ls),
(493,3,o),
(507,-5,o),
(533,-5,cs),
(559,-5,o),
(573,3,o),
(573,18,cs),
(573,722,ls,{
name = hr00;
})
);
},
{
closed = 1;
nodes = (
(27,575,o),
(19,562,o),
(19,544,cs),
(19,527,o),
(27,512,o),
(50,512,cs),
(633,512,ls),
(656,512,o),
(664,526,o),
(664,544,cs),
(664,561,o),
(656,575,o),
(633,575,cs),
(50,575,ls,{
name = hr00;
})
);
}
);
};
layerId = master01;
shapes = (
{
alignment = -1;
ref = H;
},
{
closed = 1;
nodes = (
(27,575,o),
(19,562,o),
(19,544,cs),
(19,527,o),
(27,512,o),
(50,512,cs),
(633,512,ls),
(656,512,o),
(664,526,o),
(664,544,cs),
(664,561,o),
(656,575,o),
(633,575,cs),
(50,575,ls,{
name = hr00;
})
);
}
);
width = 683;
}
);
unicode = 294;
},
{
glyphname = Hcircumflex;
lastChange = "2023-02-02 13:54:17 +0000";
layers = (
{
background = {
shapes = (
{
closed = 1;
nodes = (
(573,737,o),
(559,745,o),
(533,745,cs),
(507,745,o),
(493,737,o),
(493,722,cs),
(493,399,l),
(190,399,l),
(190,722,ls),
(190,737,o),
(176,745,o),
(150,745,cs),
(124,745,o),
(110,737,o),
(110,722,cs),
(110,18,ls),
(110,3,o),
(124,-5,o),
(150,-5,cs),
(176,-5,o),
(190,3,o),
(190,18,cs),
(190,329,l),
(493,329,l),
(493,18,ls),
(493,3,o),
(507,-5,o),
(533,-5,cs),
(559,-5,o),
(573,3,o),
(573,18,cs),
(573,722,ls,{
name = hr00;
})
);
},
{
closed = 1;
nodes = (
(334,986,o),
(329,985,o),
(326,982,cs),
(206,866,ls),
(200,860,o),
(199,855,o),
(199,851,cs),
(199,833,o),
(218,807,o),
(231,807,cs),
(233,807,o),
(235,808,o),
(238,810,cs),
(341,886,l),
(444,810,ls),
(447,808,o),
(449,807,o),
(451,807,cs),
(464,807,o),
(483,833,o),
(483,851,cs),
(483,855,o),
(482,860,o),
(476,866,cs),
(356,982,ls),
(353,985,o),
(348,986,o),
(347,986,cs),
(336,986,l,{
name = hr00;
})
);
}
);
};
layerId = master01;
shapes = (
{
ref = H;
},
{
pos = (100,0);
ref = circumflexcomb.case;
}
);
width = 683;
}
);
unicode = 292;
},
{
glyphname = I;
lastChange = "2023-02-02 14:56:53 +0000";
layers = (
{
anchors = (
{
name = bottom;
pos = (160,0);
},
{
name = ogonek;
pos = (273,37);
},
{
name = top;
pos = (160,740);
},
{
name = topleft;
pos = (20,740);
}
);
background = {
shapes = (
{
closed = 1;
nodes = (
(273,677,o),
(280,688,o),
(280,709,cs),
(280,730,o),
(273,740,o),
(260,740,cs),
(60,740,ls),
(47,740,o),
(40,730,o),
(40,709,cs),
(40,688,o),
(47,677,o),
(60,677,cs),
(120,677,l),
(120,63,l),
(60,63,ls),
(47,63,o),
(40,53,o),
(40,32,cs),
(40,11,o),
(47,0,o),
(60,0,cs),
(260,0,ls),
(273,0,o),
(280,11,o),
(280,32,cs),
(280,53,o),
(273,63,o),
(260,63,cs),
(200,63,l),
(200,677,l),
(260,677,ls,{
name = hr00;
})
);
}
);
};
layerId = master01;
shapes = (
{
closed = 1;
nodes = (
(186,-5,o),
(200,3,o),
(200,18,cs),
(200,722,ls),
(200,737,o),
(186,745,o),
(160,745,cs),
(134,745,o),
(120,737,o),
(120,722,cs),
(120,18,ls),
(120,3,o),
(134,-5,o),
(160,-5,cs)
);
}
);
width = 320;
}
);
unicode = 73;
},
{
glyphname = IJ;
lastChange = "2023-02-02 13:54:17 +0000";
layers = (
{
background = {
shapes = (
{
closed = 1;
nodes = (
(273,677,o),
(280,688,o),
(280,709,cs),
(280,730,o),
(273,740,o),
(260,740,cs),
(60,740,ls),
(47,740,o),
(40,730,o),
(40,709,cs),
(40,688,o),
(47,677,o),
(60,677,cs),
(120,677,l),
(120,63,l),
(60,63,ls),
(47,63,o),
(40,53,o),
(40,32,cs),
(40,11,o),
(47,0,o),
(60,0,cs),
(260,0,ls),
(273,0,o),
(280,11,o),
(280,32,cs),
(280,53,o),
(273,63,o),
(260,63,cs),
(200,63,l),
(200,677,l),
(260,677,ls,{
name = hr00;
})
);
},
{
closed = 1;
nodes = (
(633,82,o),
(594,55,o),
(521,55,cs),
(449,55,o),
(410,82,o),
(410,133,cs),
(410,265,ls),
(410,280,o),
(396,288,o),
(370,288,cs),
(344,288,o),
(330,280,o),
(330,265,cs),
(330,143,ls),
(330,44,o),
(401,-15,o),
(521,-15,cs),
(641,-15,o),
(713,44,o),
(713,143,cs),
(713,722,ls),
(713,737,o),
(699,745,o),
(673,745,cs),
(647,745,o),
(633,737,o),
(633,722,cs),
(633,133,ls,{
name = hr00;
})
);
}
);
};
layerId = master01;
shapes = (
{
ref = I;
},
{
pos = (320,0);
ref = J;
}
);
width = 823;
}
);
unicode = 306;
},
{
glyphname = Iacute;
lastChange = "2023-02-02 13:54:17 +0000";
layers = (
{
background = {
shapes = (
{
closed = 1;
nodes = (
(273,677,o),
(280,688,o),
(280,709,cs),
(280,730,o),
(273,740,o),
(260,740,cs),
(60,740,ls),
(47,740,o),
(40,730,o),
(40,709,cs),
(40,688,o),
(47,677,o),
(60,677,cs),
(120,677,l),
(120,63,l),
(60,63,ls),
(47,63,o),
(40,53,o),
(40,32,cs),
(40,11,o),
(47,0,o),
(60,0,cs),
(260,0,ls),
(273,0,o),
(280,11,o),
(280,32,cs),
(280,53,o),
(273,63,o),
(260,63,cs),
(200,63,l),
(200,677,l),
(260,677,ls,{
name = hr00;
})
);
},
{
closed = 1;
nodes = (
(75,807,o),
(77,808,o),
(91,814,cs),
(267,898,ls),
(275,902,o),
(278,907,o),
(278,918,cs),
(278,944,o),
(250,986,o),
(232,986,cs),
(226,986,o),
(223,985,o),
(219,982,cs),
(53,868,ls),
(45,863,o),
(43,859,o),
(43,853,cs),
(43,837,o),
(63,807,o),
(73,807,cs,{
name = hr00;
})
);
}
);
};
layerId = master01;
shapes = (
{
ref = I;
},
{
pos = (-8,0);
ref = acutecomb.case;
}
);
width = 320;
}
);
unicode = 205;
},
{
glyphname = Ibreve;
lastChange = "2023-02-02 13:54:17 +0000";
layers = (
{
background = {
shapes = (
{
closed = 1;
nodes = (
(273,677,o),
(280,688,o),
(280,709,cs),
(280,730,o),
(273,740,o),
(260,740,cs),
(60,740,ls),
(47,740,o),
(40,730,o),
(40,709,cs),
(40,688,o),
(47,677,o),
(60,677,cs),
(120,677,l),
(120,63,l),
(60,63,ls),
(47,63,o),
(40,53,o),
(40,32,cs),
(40,11,o),
(47,0,o),
(60,0,cs),
(260,0,ls),
(273,0,o),
(280,11,o),
(280,32,cs),
(280,53,o),
(273,63,o),
(260,63,cs),
(200,63,l),
(200,677,l),
(260,677,ls,{
name = hr00;
})
);
},
{
closed = 1;
nodes = (
(109,949,o),
(92,954,o),
(73,954,cs),
(54,954,o),
(38,949,o),
(38,934,cs),
(38,909,ls),
(38,848,o),
(70,817,o),
(158,817,cs),
(245,817,o),
(282,848,o),
(282,909,cs),
(282,934,ls),
(282,949,o),
(265,954,o),
(246,954,cs),
(227,954,o),
(211,949,o),
(211,934,cs),
(211,910,ls),
(211,888,o),
(185,880,o),
(159,880,cs),
(131,880,o),
(109,887,o),
(109,909,cs),
(109,934,ls,{
name = hr00;
})
);
}
);
};
layerId = master01;
shapes = (
{
ref = I;
},
{
pos = (-12,0);
ref = brevecomb.case;
}
);
width = 320;
}
);
unicode = 300;
},
{
glyphname = Icircumflex;
lastChange = "2023-02-02 13:54:17 +0000";
layers = (
{
background = {
shapes = (
{
closed = 1;
nodes = (
(273,677,o),
(280,688,o),
(280,709,cs),
(280,730,o),
(273,740,o),
(260,740,cs),
(60,740,ls),
(47,740,o),
(40,730,o),
(40,709,cs),
(40,688,o),
(47,677,o),
(60,677,cs),
(120,677,l),
(120,63,l),
(60,63,ls),
(47,63,o),
(40,53,o),
(40,32,cs),
(40,11,o),
(47,0,o),
(60,0,cs),
(260,0,ls),
(273,0,o),
(280,11,o),
(280,32,cs),
(280,53,o),
(273,63,o),
(260,63,cs),
(200,63,l),
(200,677,l),
(260,677,ls,{
name = hr00;
})
);
},
{
closed = 1;
nodes = (
(152,986,o),
(147,984,o),
(145,982,cs),
(25,866,ls),
(20,861,o),
(18,856,o),
(18,851,cs),
(18,833,o),
(37,807,o),
(50,807,cs),
(52,807,o),
(53,808,o),
(57,810,cs),
(160,886,l),
(263,810,ls),
(266,808,o),
(268,807,o),
(270,807,cs),
(283,807,o),
(302,833,o),
(302,851,cs),
(302,856,o),
(300,861,o),
(295,866,cs),
(175,982,ls),
(173,984,o),
(168,986,o),
(166,986,cs),
(155,986,l,{
name = hr00;
})
);
}
);
};
layerId = master01;
shapes = (
{
ref = I;
},
{
pos = (-82,0);
ref = circumflexcomb.case;
}
);
width = 320;
}
);
unicode = 206;
},
{
glyphname = Idieresis;
lastChange = "2023-02-02 13:54:17 +0000";
layers = (
{
background = {
shapes = (
{
closed = 1;
nodes = (
(273,677,o),
(280,688,o),
(280,709,cs),
(280,730,o),
(273,740,o),
(260,740,cs),
(60,740,ls),
(47,740,o),
(40,730,o),
(40,709,cs),
(40,688,o),
(47,677,o),
(60,677,cs),
(120,677,l),
(120,63,l),
(60,63,ls),
(47,63,o),
(40,53,o),
(40,32,cs),
(40,11,o),
(47,0,o),
(60,0,cs),
(260,0,ls),
(273,0,o),
(280,11,o),
(280,32,cs),
(280,53,o),
(273,63,o),
(260,63,cs),
(200,63,l),
(200,677,l),
(260,677,ls,{
name = hr00;
})
);
},
{
closed = 1;
nodes = (
(104,832,o),
(89,823,o),
(61,823,cs),
(32,823,o),
(17,831,o),
(17,848,cs),
(17,935,ls),
(17,951,o),
(32,960,o),
(60,960,cs),
(89,960,o),
(104,952,o),
(104,935,cs),
(104,848,ls,{
name = hr00;
})
);
},
{
closed = 1;
nodes = (
(304,832,o),
(289,823,o),
(261,823,cs),
(232,823,o),
(217,831,o),
(217,848,cs),
(217,935,ls),
(217,951,o),
(232,960,o),
(260,960,cs),
(289,960,o),
(304,952,o),
(304,935,cs),
(304,848,ls)
);
}
);
};
layerId = master01;
shapes = (
{
ref = I;
},
{
pos = (-84,0);
ref = dieresiscomb.case;
}
);
width = 320;
}
);
unicode = 207;
},
{
glyphname = Idotaccent;
lastChange = "2023-02-02 13:54:17 +0000";
layers = (
{
background = {
shapes = (
{
closed = 1;
nodes = (
(273,677,o),
(280,688,o),
(280,709,cs),
(280,730,o),
(273,740,o),
(260,740,cs),
(60,740,ls),
(47,740,o),
(40,730,o),
(40,709,cs),
(40,688,o),
(47,677,o),
(60,677,cs),
(120,677,l),
(120,63,l),
(60,63,ls),
(47,63,o),
(40,53,o),
(40,32,cs),
(40,11,o),
(47,0,o),
(60,0,cs),
(260,0,ls),
(273,0,o),
(280,11,o),
(280,32,cs),
(280,53,o),
(273,63,o),
(260,63,cs),
(200,63,l),
(200,677,l),
(260,677,ls,{
name = hr00;
})
);
},
{
closed = 1;
nodes = (
(203,829,o),
(184,823,o),
(160,823,cs),
(135,823,o),
(116,829,o),
(116,848,cs),
(116,935,ls),
(116,954,o),
(135,960,o),
(159,960,cs),
(184,960,o),
(203,954,o),
(203,935,cs),
(203,848,ls,{
name = hr00;
})
);
}
);
};
layerId = master01;
shapes = (
{
ref = I;
},
{
pos = (16,0);
ref = dotaccentcomb.case;
}
);
width = 320;
}
);
unicode = 304;
},
{
glyphname = Igrave;
lastChange = "2023-02-02 13:54:17 +0000";
layers = (
{
background = {
shapes = (
{
closed = 1;
nodes = (
(273,677,o),
(280,688,o),
(280,709,cs),
(280,730,o),
(273,740,o),
(260,740,cs),
(60,740,ls),
(47,740,o),
(40,730,o),
(40,709,cs),
(40,688,o),
(47,677,o),
(60,677,cs),
(120,677,l),
(120,63,l),
(60,63,ls),
(47,63,o),
(40,53,o),
(40,32,cs),
(40,11,o),
(47,0,o),
(60,0,cs),
(260,0,ls),
(273,0,o),
(280,11,o),
(280,32,cs),
(280,53,o),
(273,63,o),
(260,63,cs),
(200,63,l),
(200,677,l),
(260,677,ls,{
name = hr00;
})
);
},
{
closed = 1;
nodes = (
(258,807,o),
(278,837,o),
(278,853,cs),
(278,859,o),
(276,863,o),
(268,868,cs),
(102,982,ls),
(98,985,o),
(95,986,o),
(89,986,cs),
(71,986,o),
(43,944,o),
(43,918,cs),
(43,907,o),
(46,902,o),
(54,898,cs),
(230,814,ls),
(244,808,o),
(246,807,o),
(248,807,cs,{
name = hr00;
})
);
}
);
};
layerId = master01;
shapes = (
{
ref = I;
},
{
pos = (-8,0);
ref = gravecomb.case;
}
);
width = 320;
}
);
unicode = 204;
},
{
glyphname = Imacron;
lastChange = "2023-02-02 13:54:17 +0000";
layers = (
{
background = {
shapes = (
{
closed = 1;
nodes = (
(273,677,o),
(280,688,o),
(280,709,cs),
(280,730,o),
(273,740,o),
(260,740,cs),
(60,740,ls),
(47,740,o),
(40,730,o),
(40,709,cs),
(40,688,o),
(47,677,o),
(60,677,cs),
(120,677,l),
(120,63,l),
(60,63,ls),
(47,63,o),
(40,53,o),
(40,32,cs),
(40,11,o),
(47,0,o),
(60,0,cs),
(260,0,ls),
(273,0,o),
(280,11,o),
(280,32,cs),
(280,53,o),
(273,63,o),
(260,63,cs),
(200,63,l),
(200,677,l),
(260,677,ls,{
name = hr00;
})
);
},
{
closed = 1;
nodes = (
(14,927,o),
(7,914,o),
(7,889,cs),
(7,864,o),
(14,850,o),
(27,850,cs),
(294,850,ls),
(307,850,o),
(314,863,o),
(314,889,cs),
(314,914,o),
(307,927,o),
(294,927,cs),
(27,927,ls,{
name = hr00;
})
);
}
);
};
layerId = master01;
shapes = (
{
ref = I;
},
{
pos = (-94,0);
ref = macroncomb.case;
}
);
width = 320;
}
);
unicode = 298;
},
{
glyphname = Iogonek;
lastChange = "2023-02-02 14:58:29 +0000";
layers = (
{
background = {
shapes = (
{
closed = 1;
nodes = (
(227,-222,o),
(273,-185,o),
(273,-130,cs),
(273,-117,ls),
(273,-104,o),
(261,-96,o),
(240,-96,cs),
(218,-96,o),
(206,-103,o),
(206,-117,cs),
(206,-135,ls),
(206,-154,o),
(189,-164,o),
(158,-164,cs),
(128,-164,o),
(109,-152,o),
(109,-134,cs),
(109,-109,ls),
(109,-74,o),
(122,-54,o),
(155,-41,cs),
(260,0,l),
(272,5,o),
(280,11,o),
(280,32,cs),
(280,53,o),
(273,63,o),
(260,63,cs),
(200,63,l),
(200,677,l),
(260,677,ls),
(273,677,o),
(280,688,o),
(280,709,cs),
(280,730,o),
(273,740,o),
(260,740,cs),
(60,740,ls),
(47,740,o),
(40,730,o),
(40,709,cs),
(40,688,o),
(47,677,o),
(60,677,cs),
(120,677,l),
(120,63,l),
(60,63,ls),
(47,63,o),
(40,53,o),
(40,32,cs),
(40,11,o),
(47,0,o),
(60,0,cs),
(140,0,l),
(140,-4,l),
(59,-36,o),
(42,-54,o),
(42,-108,cs),
(42,-130,ls),
(42,-184,o),
(90,-222,o),
(159,-222,cs,{
name = hr00;
})
);
}
);
};
layerId = master01;
shapes = (
{
ref = I;
},
{
closed = 1;
nodes = (
(141,13,l),
(130,6,ls),
(56,-41,o),
(22,-54,o),
(22,-108,cs),
(22,-130,ls),
(22,-184,o),
(70,-222,o),
(139,-222,c,{
name = hr00;
}),
(207,-222,o),
(253,-185,o),
(253,-130,cs),
(253,-117,ls),
(253,-104,o),
(241,-96,o),
(220,-96,cs),
(198,-96,o),
(186,-103,o),
(186,-117,cs),
(186,-135,ls),
(186,-154,o),
(169,-164,o),
(138,-164,cs),
(108,-164,o),
(89,-152,o),
(89,-134,cs),
(89,-109,ls),
(89,-74,o),
(106,-64,o),
(135,-41,cs),
(186,3,l)
);
}
);
width = 320;
}
);
unicode = 302;
},
{
glyphname = Itilde;
lastChange = "2023-02-02 13:54:17 +0000";
layers = (
{
background = {
shapes = (
{
closed = 1;
nodes = (
(273,677,o),
(280,688,o),
(280,709,cs),
(280,730,o),
(273,740,o),
(260,740,cs),
(60,740,ls),
(47,740,o),
(40,730,o),
(40,709,cs),
(40,688,o),
(47,677,o),
(60,677,cs),
(120,677,l),
(120,63,l),
(60,63,ls),
(47,63,o),
(40,53,o),
(40,32,cs),
(40,11,o),
(47,0,o),
(60,0,cs),
(260,0,ls),
(273,0,o),
(280,11,o),
(280,32,cs),
(280,53,o),
(273,63,o),
(260,63,cs),
(200,63,l),
(200,677,l),
(260,677,ls,{
name = hr00;
})
);
},
{
closed = 1;
nodes = (
(82,950,o),
(74,952,o),
(67,952,cs),
(30,952,o),
(2,919,o),
(2,843,cs),
(2,831,o),
(17,827,o),
(37,827,cs),
(56,827,o),
(72,832,o),
(72,847,cs),
(72,865,o),
(77,872,o),
(85,872,cs),
(87,872,o),
(88,871,o),
(90,871,cs),
(231,832,ls),
(239,830,o),
(246,829,o),
(253,829,cs),
(290,829,o),
(319,861,o),
(319,937,cs),
(319,949,o),
(304,953,o),
(284,953,cs,{
name = hr01;
}),
(265,953,o),
(249,948,o),
(249,933,cs),
(249,916,o),
(245,908,o),
(237,908,cs),
(235,908,o),
(233,908,o),
(231,909,cs),
(90,948,l)
);
}
);
};
layerId = master01;
shapes = (
{
ref = I;
},
{
pos = (-99,0);
ref = tildecomb.case;
}
);
width = 320;
}
);
unicode = 296;
},
{
glyphname = J;
kernLeft = J;
lastChange = "2023-02-02 14:41:55 +0000";
layers = (
{
anchors = (
{
name = bottom;
pos = (252,0);
},
{
name = top;
pos = (353,740);
}
);
background = {
shapes = (
{
closed = 1;
nodes = (
(313,82,o),
(274,55,o),
(201,55,cs),
(129,55,o),
(90,82,o),
(90,133,cs),
(90,265,ls),
(90,280,o),
(76,288,o),
(50,288,cs),
(24,288,o),
(10,280,o),
(10,265,cs),
(10,143,ls),
(10,44,o),
(81,-15,o),
(201,-15,cs),
(321,-15,o),
(393,44,o),
(393,143,cs),
(393,722,ls),
(393,737,o),
(379,745,o),
(353,745,cs),
(327,745,o),
(313,737,o),
(313,722,cs),
(313,133,ls,{
name = hr00;
})
);
}
);
};
layerId = master01;
shapes = (
{
closed = 1;
nodes = (
(313,82,o),
(274,55,o),
(201,55,cs),
(129,55,o),
(90,82,o),
(90,133,cs),
(90,265,ls),
(90,280,o),
(76,288,o),
(50,288,cs),
(24,288,o),
(10,280,o),
(10,265,cs),
(10,143,ls),
(10,44,o),
(81,-15,o),
(201,-15,cs),
(321,-15,o),
(393,44,o),
(393,143,cs),
(393,722,ls),
(393,737,o),
(379,745,o),
(353,745,cs),
(327,745,o),
(313,737,o),
(313,722,cs),
(313,133,ls,{
name = hr00;
})
);
}
);
width = 503;
}
);
unicode = 74;
},
{
glyphname = Jcircumflex;
kernLeft = J;
lastChange = "2023-02-02 14:41:55 +0000";
layers = (
{
background = {
shapes = (
{
closed = 1;
nodes = (
(313,82,o),
(274,55,o),
(201,55,cs),
(129,55,o),
(90,82,o),
(90,133,cs),
(90,265,ls),
(90,280,o),
(76,288,o),
(50,288,cs),
(24,288,o),
(10,280,o),
(10,265,cs),
(10,143,ls),
(10,44,o),
(81,-15,o),
(201,-15,cs),
(321,-15,o),
(393,44,o),
(393,143,cs),
(393,722,ls),
(393,737,o),
(379,745,o),
(353,745,cs),
(327,745,o),
(313,737,o),
(313,722,cs),
(313,133,ls,{
name = hr00;
})
);
},
{
closed = 1;
nodes = (
(346,986,o),
(341,985,o),
(338,982,cs),
(218,866,ls),
(212,860,o),
(211,855,o),
(211,851,cs),
(211,833,o),
(230,807,o),
(243,807,cs),
(245,807,o),
(247,808,o),
(250,810,cs),
(353,886,l),
(456,810,ls),
(459,808,o),
(461,807,o),
(463,807,cs),
(476,807,o),
(495,833,o),
(495,851,cs),
(495,855,o),
(494,860,o),
(488,866,cs),
(368,982,ls),
(365,985,o),
(360,986,o),
(359,986,cs),
(348,986,l,{
name = hr00;
})
);
}
);
};
layerId = master01;
shapes = (
{
ref = J;
},
{
pos = (111,0);
ref = circumflexcomb.case;
}
);
width = 503;
}
);
unicode = 308;
},
{
glyphname = K;
lastChange = "2023-02-02 13:58:11 +0000";
layers = (
{
anchors = (
{
name = bottom;
pos = (328,0);
},
{
name = top;
pos = (307,740);
}
);
background = {
shapes = (
{
closed = 1;
nodes = (
(539,-5,o),
(553,1,o),
(553,12,cs),
(553,15,o),
(549,29,o),
(547,37,cs),
(474,304,ls),
(462,346,o),
(448,371,o),
(420,384,c),
(441,399,o),
(452,421,o),
(461,454,cs),
(525,695,ls),
(529,709,o),
(533,725,o),
(533,727,cs),
(533,739,o),
(520,745,o),
(495,745,cs),
(470,745,o),
(460,739,o),
(456,722,cs),
(384,454,ls),
(372,411,o),
(360,401,o),
(293,400,cs),
(244,400,ls),
(231,400,o),
(224,388,o),
(224,365,cs),
(224,342,o),
(231,330,o),
(244,330,cs),
(310,330,ls),
(381,330,o),
(392,324,o),
(405,276,cs),
(476,18,ls),
(481,1,o),
(491,-5,o),
(515,-5,cs,{
name = hr00;
})
);
},
{
closed = 1;
nodes = (
(176,-5,o),
(190,3,o),
(190,18,cs),
(190,722,ls),
(190,737,o),
(176,745,o),
(150,745,cs),
(124,745,o),
(110,737,o),
(110,722,cs),
(110,18,ls),
(110,3,o),
(124,-5,o),
(150,-5,cs)
);
}
);
};
layerId = master01;
shapes = (
{
closed = 1;
nodes = (
(539,-5,o),
(553,1,o),
(553,12,cs),
(553,15,o),
(549,29,o),
(547,37,cs),
(474,304,ls),
(462,346,o),
(448,371,o),
(420,384,c),
(441,399,o),
(452,421,o),
(461,454,cs),
(525,695,ls),
(529,709,o),
(533,725,o),
(533,727,cs),
(533,739,o),
(520,745,o),
(495,745,cs),
(470,745,o),
(461,739,o),
(456,722,cs),
(384,454,ls),
(372,411,o),
(360,400,o),
(293,400,cs),
(244,400,ls),
(231,400,o),
(224,388,o),
(224,365,cs),
(224,342,o),
(231,330,o),
(244,330,cs),
(310,330,ls),
(381,330,o),
(392,324,o),
(405,276,cs),
(476,18,ls),
(481,1,o),
(491,-5,o),
(515,-5,cs,{
name = hr00;
})
);
},
{
closed = 1;
nodes = (
(176,-5,o),
(190,3,o),
(190,18,cs),
(190,722,ls),
(190,737,o),
(176,745,o),
(150,745,cs),
(124,745,o),
(110,737,o),
(110,722,cs),
(110,18,ls),
(110,3,o),
(124,-5,o),
(150,-5,cs)
);
}
);
width = 614;
}
);
unicode = 75;
},
{
glyphname = Kcommaaccent;
lastChange = "2023-02-02 13:58:11 +0000";
layers = (
{
background = {
shapes = (
{
closed = 1;
nodes = (
(539,-5,o),
(553,1,o),
(553,12,cs),
(553,15,o),
(549,29,o),
(547,37,cs),
(474,304,ls),
(462,346,o),
(448,371,o),
(420,384,c),
(441,399,o),
(452,421,o),
(461,454,cs),
(525,695,ls),
(529,709,o),
(533,725,o),
(533,727,cs),
(533,739,o),
(520,745,o),
(495,745,cs),
(470,745,o),
(460,739,o),
(456,722,cs),
(384,454,ls),
(372,411,o),
(360,401,o),
(293,400,cs),
(244,400,ls),
(231,400,o),
(224,388,o),
(224,365,cs),
(224,342,o),
(231,330,o),
(244,330,cs),
(310,330,ls),
(381,330,o),
(392,324,o),
(405,276,cs),
(476,18,ls),
(481,1,o),
(491,-5,o),
(515,-5,cs,{
name = hr00;
})
);
},
{
closed = 1;
nodes = (
(176,-5,o),
(190,3,o),
(190,18,cs),
(190,722,ls),
(190,737,o),
(176,745,o),
(150,745,cs),
(124,745,o),
(110,737,o),
(110,722,cs),
(110,18,ls),
(110,3,o),
(124,-5,o),
(150,-5,cs)
);
},
{
closed = 1;
nodes = (
(340,-257,o),
(346,-254,o),
(348,-248,cs),
(353,-234,ls),
(364,-198,o),
(370,-172,o),
(370,-155,cs),
(370,-64,ls),
(370,-46,o),
(352,-40,o),
(327,-40,cs),
(303,-40,o),
(285,-46,o),
(285,-64,cs),
(285,-116,ls),
(285,-140,o),
(309,-152,o),
(309,-174,cs,{
name = hr01;
}),
(309,-182,o),
(306,-190,o),
(303,-199,cs),
(293,-225,ls),
(291,-230,o),
(291,-232,o),
(291,-234,cs),
(291,-243,o),
(316,-257,o),
(333,-257,cs)
);
}
);
};
layerId = master01;
shapes = (
{
ref = K;
},
{
pos = (227,0);
ref = commaaccentcomb;
}
);
width = 614;
}
);
unicode = 310;
},
{
glyphname = L;
kernRight = L;
lastChange = "2023-02-02 14:42:05 +0000";
layers = (
{
anchors = (
{
name = bottom;
pos = (291,0);
},
{
name = center;
pos = (230,370);
},
{
name = top;
pos = (172,740);
},
{
name = topright;
pos = (332,740);
}
);
background = {
shapes = (
{
closed = 1;
nodes = (
(211,70,o),
(190,99,o),
(190,176,cs),
(190,722,ls),
(190,737,o),
(176,745,o),
(150,745,cs),
(124,745,o),
(110,737,o),
(110,722,cs),
(110,176,ls),
(110,50,o),
(155,0,o),
(268,0,cs),
(430,0,ls),
(443,0,o),
(450,12,o),
(450,35,cs),
(450,58,o),
(443,70,o),
(430,70,cs),
(268,70,l,{
name = hr00;
})
);
}
);
};
layerId = master01;
shapes = (
{
closed = 1;
nodes = (
(211,70,o),
(190,99,o),
(190,176,cs),
(190,722,ls),
(190,737,o),
(176,745,o),
(150,745,cs),
(124,745,o),
(110,737,o),
(110,722,cs),
(110,176,ls),
(110,50,o),
(155,0,o),
(268,0,cs),
(430,0,ls),
(443,0,o),
(450,12,o),
(450,35,cs),
(450,58,o),
(443,70,o),
(430,70,cs),
(268,70,l,{
name = hr00;
})
);
}
);
width = 460;
}
);
unicode = 76;
},
{
glyphname = Lacute;
kernRight = L;
lastChange = "2023-02-02 14:42:05 +0000";
layers = (
{
background = {
shapes = (
{
closed = 1;
nodes = (
(211,70,o),
(190,99,o),
(190,176,cs),
(190,722,ls),
(190,737,o),
(176,745,o),
(150,745,cs),
(124,745,o),
(110,737,o),
(110,722,cs),
(110,176,ls),
(110,50,o),
(155,0,o),
(268,0,cs),
(430,0,ls),
(443,0,o),
(450,12,o),
(450,35,cs),
(450,58,o),
(443,70,o),
(430,70,cs),
(268,70,l,{
name = hr00;
})
);
},
{
closed = 1;
nodes = (
(86,807,o),
(88,808,o),
(102,814,cs),
(278,898,ls),
(286,902,o),
(289,907,o),
(289,918,cs),
(289,944,o),
(261,986,o),
(243,986,cs),
(237,986,o),
(234,985,o),
(230,982,cs),
(64,868,ls),
(56,863,o),
(54,859,o),
(54,853,cs),
(54,837,o),
(74,807,o),
(84,807,c,{
name = hr00;
})
);
}
);
};
layerId = master01;
shapes = (
{
ref = L;
},
{
pos = (4,0);
ref = acutecomb.case;
}
);
width = 460;
}
);
unicode = 313;
},
{
glyphname = Lcaron;
kernRight = L;
lastChange = "2023-02-02 14:42:05 +0000";
layers = (
{
background = {
shapes = (
{
closed = 1;
nodes = (
(211,70,o),
(190,99,o),
(190,176,cs),
(190,722,ls),
(190,737,o),
(176,745,o),
(150,745,cs),
(124,745,o),
(110,737,o),
(110,722,cs),
(110,176,ls),
(110,50,o),
(155,0,o),
(268,0,cs),
(430,0,ls),
(443,0,o),
(450,12,o),
(450,35,cs),
(450,58,o),
(443,70,o),
(430,70,cs),
(268,70,l,{
name = hr00;
})
);
},
{
closed = 1;
nodes = (
(345,523,o),
(351,526,o),
(353,532,cs),
(358,546,ls),
(369,582,o),
(375,608,o),
(375,625,cs),
(375,726,ls),
(375,744,o),
(357,750,o),
(332,750,cs),
(308,750,o),
(290,744,o),
(290,726,cs),
(290,664,ls),
(290,640,o),
(314,628,o),
(314,606,cs,{
name = hr01;
}),
(314,598,o),
(311,590,o),
(308,581,cs),
(298,555,ls),
(296,550,o),
(296,548,o),
(296,546,cs),
(296,537,o),
(321,523,o),
(338,523,c)
);
}
);
};
layerId = master01;
shapes = (
{
ref = L;
},
{
ref = caroncomb.alt;
}
);
width = 460;
}
);
unicode = 317;
},
{
glyphname = Lcommaaccent;
kernRight = L;
lastChange = "2023-02-02 14:42:05 +0000";
layers = (
{
background = {
shapes = (
{
closed = 1;
nodes = (
(211,70,o),
(190,99,o),
(190,176,cs),
(190,722,ls),
(190,737,o),
(176,745,o),
(150,745,cs),
(124,745,o),
(110,737,o),
(110,722,cs),
(110,176,ls),
(110,50,o),
(155,0,o),
(268,0,cs),
(430,0,ls),
(443,0,o),
(450,12,o),
(450,35,cs),
(450,58,o),
(443,70,o),
(430,70,cs),
(268,70,l,{
name = hr00;
})
);
},
{
closed = 1;
nodes = (
(303,-257,o),
(309,-254,o),
(311,-248,cs),
(316,-234,ls),
(327,-198,o),
(333,-172,o),
(333,-155,cs),
(333,-64,ls),
(333,-46,o),
(315,-40,o),
(290,-40,cs),
(266,-40,o),
(248,-46,o),
(248,-64,cs),
(248,-116,ls),
(248,-140,o),
(272,-152,o),
(272,-174,cs,{
name = hr01;
}),
(272,-182,o),
(269,-190,o),
(266,-199,cs),
(256,-225,ls),
(254,-230,o),
(254,-232,o),
(254,-234,cs),
(254,-243,o),
(279,-257,o),
(296,-257,cs)
);
}
);
};
layerId = master01;
shapes = (
{
ref = L;
},
{
pos = (190,0);
ref = commaaccentcomb;
}
);
width = 460;
}
);
unicode = 315;
},
{
glyphname = Ldot;
kernRight = L;
lastChange = "2023-02-02 14:42:05 +0000";
layers = (
{
background = {
shapes = (
{
closed = 1;
nodes = (
(211,70,o),
(190,99,o),
(190,176,cs),
(190,722,ls),
(190,737,o),
(176,745,o),
(150,745,cs),
(124,745,o),
(110,737,o),
(110,722,cs),
(110,176,ls),
(110,50,o),
(155,0,o),
(268,0,cs),
(430,0,ls),
(443,0,o),
(450,12,o),
(450,35,cs),
(450,58,o),
(443,70,o),
(430,70,cs),
(268,70,l,{
name = hr00;
})
);
},
{
closed = 1;
nodes = (
(376,481,o),
(362,489,o),
(333,489,cs),
(305,489,o),
(291,481,o),
(291,465,cs),
(291,380,ls),
(291,364,o),
(305,356,o),
(334,356,cs),
(362,356,o),
(376,364,o),
(376,380,cs),
(376,465,l,{
name = hr00;
})
);
}
);
};
layerId = master01;
shapes = (
{
ref = L;
},
{
pos = (233,111);
ref = periodcentered;
}
);
width = 460;
}
);
unicode = 319;
},
{
glyphname = Lslash;
kernRight = L;
lastChange = "2023-02-02 14:42:05 +0000";
layers = (
{
background = {
shapes = (
{
closed = 1;
nodes = (
(211,70,o),
(190,99,o),
(190,176,cs),
(190,722,ls),
(190,737,o),
(176,745,o),
(150,745,cs),
(124,745,o),
(110,737,o),
(110,722,cs),
(110,176,ls),
(110,50,o),
(155,0,o),
(268,0,cs),
(430,0,ls),
(443,0,o),
(450,12,o),
(450,35,cs),
(450,58,o),
(443,70,o),
(430,70,cs),
(268,70,l,{
name = hr00;
})
);
},
{
closed = 1;
nodes = (
(286,391,o),
(292,401,o),
(292,422,cs),
(292,436,o),
(289,452,o),
(274,452,c),
(33,387,ls),
(18,383,o),
(12,374,o),
(12,353,cs),
(12,339,o),
(15,323,o),
(30,323,c),
(271,388,l,{
name = hr00;
})
);
}
);
};
layerId = master01;
shapes = (
{
alignment = -1;
ref = L;
},
{
closed = 1;
nodes = (
(286,391,o),
(292,401,o),
(292,422,cs),
(292,436,o),
(289,452,o),
(274,452,c),
(33,387,ls),
(18,383,o),
(12,374,o),
(12,353,cs),
(12,339,o),
(15,323,o),
(30,323,c),
(271,388,l,{
name = hr00;
})
);
}
);
width = 460;
}
);
unicode = 321;
},
{
glyphname = M;
lastChange = "2023-02-02 13:49:55 +0000";
layers = (
{
anchors = (
{
name = bottom;
pos = (427,0);
},
{
name = top;
pos = (427,740);
}
);
background = {
shapes = (
{
closed = 1;
nodes = (
(664,3,o),
(678,-5,o),
(704,-5,cs),
(730,-5,o),
(744,3,o),
(744,18,cs),
(744,665,ls),
(744,726,o),
(733,740,o),
(684,740,cs),
(662,740,ls),
(566,740,o),
(548,727,o),
(528,644,cs),
(427,229,l),
(326,644,ls),
(306,727,o),
(288,740,o),
(192,740,cs),
(170,740,ls),
(122,740,o),
(110,726,o),
(110,668,cs),
(110,18,ls),
(110,3,o),
(124,-5,o),
(150,-5,cs),
(176,-5,o),
(190,3,o),
(190,18,cs),
(190,670,l),
(241,670,o),
(245,666,o),
(257,616,cs),
(388,97,ls),
(392,81,o),
(403,74,o),
(427,74,cs),
(451,74,o),
(462,81,o),
(466,97,cs),
(597,616,ls),
(609,665,o),
(613,670,o),
(664,670,c),
(664,18,ls,{
name = hr00;
})
);
}
);
};
layerId = master01;
shapes = (
{
closed = 1;
nodes = (
(664,3,o),
(678,-5,o),
(704,-5,cs),
(730,-5,o),
(744,3,o),
(744,18,cs),
(744,665,ls),
(744,726,o),
(733,740,o),
(684,740,cs),
(662,740,ls),
(566,740,o),
(548,727,o),
(528,644,cs),
(427,229,l),
(326,644,ls),
(306,727,o),
(288,740,o),
(192,740,cs),
(170,740,ls),
(122,740,o),
(110,726,o),
(110,668,cs),
(110,18,ls),
(110,3,o),
(124,-5,o),
(150,-5,cs),
(176,-5,o),
(190,3,o),
(190,18,cs),
(190,670,l),
(241,670,o),
(245,666,o),
(257,616,cs),
(388,97,ls),
(392,81,o),
(403,74,o),
(427,74,cs),
(451,74,o),
(462,81,o),
(466,97,cs),
(597,616,ls),
(609,665,o),
(613,670,o),
(664,670,c),
(664,18,ls,{
name = hr00;
})
);
}
);
width = 854;
}
);
unicode = 77;
},
{
glyphname = N;
lastChange = "2023-02-02 13:59:47 +0000";
layers = (
{
anchors = (
{
name = bottom;
pos = (357,0);
},
{
name = top;
pos = (377,740);
}
);
background = {
shapes = (
{
closed = 1;
nodes = (
(408,8,o),
(426,-5,o),
(521,-5,cs),
(543,-5,ls),
(592,-5,o),
(603,9,o),
(603,70,cs),
(603,717,ls),
(603,732,o),
(589,740,o),
(563,740,cs),
(537,740,o),
(523,732,o),
(523,717,cs),
(523,65,l),
(472,65,o),
(468,70,o),
(456,119,cs),
(326,644,ls),
(305,727,o),
(287,740,o),
(192,740,cs),
(170,740,ls),
(122,740,o),
(110,726,o),
(110,668,cs),
(110,18,ls),
(110,3,o),
(124,-5,o),
(150,-5,cs),
(176,-5,o),
(190,3,o),
(190,18,cs),
(190,670,l),
(241,670,o),
(245,666,o),
(257,616,cs),
(387,91,ls,{
name = hr00;
})
);
}
);
};
layerId = master01;
shapes = (
{
closed = 1;
nodes = (
(408,8,o),
(426,-5,o),
(521,-5,cs),
(543,-5,ls),
(592,-5,o),
(603,9,o),
(603,70,cs),
(603,717,ls),
(603,732,o),
(589,740,o),
(563,740,cs),
(537,740,o),
(523,732,o),
(523,717,cs),
(523,65,l),
(472,65,o),
(468,70,o),
(456,119,cs),
(326,644,ls),
(305,727,o),
(287,740,o),
(192,740,cs),
(170,740,ls),
(122,740,o),
(110,726,o),
(110,668,cs),
(110,18,ls),
(110,3,o),
(124,-5,o),
(150,-5,cs),
(176,-5,o),
(190,3,o),
(190,18,cs),
(190,670,l),
(241,670,o),
(245,666,o),
(257,616,cs),
(387,91,ls,{
name = hr00;
})
);
}
);
width = 713;
}
);
unicode = 78;
},
{
glyphname = Nacute;
lastChange = "2023-02-02 13:59:47 +0000";
layers = (
{
background = {
shapes = (
{
closed = 1;
nodes = (
(408,8,o),
(426,-5,o),
(521,-5,cs),
(543,-5,ls),
(592,-5,o),
(603,9,o),
(603,70,cs),
(603,717,ls),
(603,732,o),
(589,740,o),
(563,740,cs),
(537,740,o),
(523,732,o),
(523,717,cs),
(523,65,l),
(472,65,o),
(468,70,o),
(456,119,cs),
(326,644,ls),
(305,727,o),
(287,740,o),
(192,740,cs),
(170,740,ls),
(122,740,o),
(110,726,o),
(110,668,cs),
(110,18,ls),
(110,3,o),
(124,-5,o),
(150,-5,cs),
(176,-5,o),
(190,3,o),
(190,18,cs),
(190,670,l),
(241,670,o),
(245,666,o),
(257,616,cs),
(387,91,ls,{
name = hr00;
})
);
},
{
closed = 1;
nodes = (
(301,807,o),
(303,808,o),
(317,814,cs),
(493,898,ls),
(501,902,o),
(504,907,o),
(504,918,cs),
(504,944,o),
(476,986,o),
(458,986,cs),
(452,986,o),
(449,985,o),
(445,982,cs),
(279,868,ls),
(271,863,o),
(269,859,o),
(269,853,cs),
(269,837,o),
(289,807,o),
(299,807,c,{
name = hr00;
})
);
}
);
};
layerId = master01;
shapes = (
{
ref = N;
},
{
pos = (209,0);
ref = acutecomb.case;
}
);
width = 713;
}
);
unicode = 323;
},
{
glyphname = Ncaron;
lastChange = "2023-02-02 13:59:47 +0000";
layers = (
{
background = {
shapes = (
{
closed = 1;
nodes = (
(408,8,o),
(426,-5,o),
(521,-5,cs),
(543,-5,ls),
(592,-5,o),
(603,9,o),
(603,70,cs),
(603,717,ls),
(603,732,o),
(589,740,o),
(563,740,cs),
(537,740,o),
(523,732,o),
(523,717,cs),
(523,65,l),
(472,65,o),
(468,70,o),
(456,119,cs),
(326,644,ls),
(305,727,o),
(287,740,o),
(192,740,cs),
(170,740,ls),
(122,740,o),
(110,726,o),
(110,668,cs),
(110,18,ls),
(110,3,o),
(124,-5,o),
(150,-5,cs),
(176,-5,o),
(190,3,o),
(190,18,cs),
(190,670,l),
(241,670,o),
(245,666,o),
(257,616,cs),
(387,91,ls,{
name = hr00;
})
);
},
{
closed = 1;
nodes = (
(384,802,o),
(389,804,o),
(391,806,cs),
(511,922,ls),
(516,927,o),
(518,932,o),
(518,937,cs),
(518,955,o),
(499,981,o),
(486,981,cs),
(484,981,o),
(482,980,o),
(479,978,cs),
(376,902,l),
(273,978,ls),
(269,980,o),
(268,981,o),
(266,981,cs),
(253,981,o),
(234,955,o),
(234,937,cs),
(234,932,o),
(236,927,o),
(241,922,cs),
(361,806,ls),
(363,804,o),
(368,802,o),
(371,802,c),
(382,802,l,{
name = hr00;
})
);
}
);
};
layerId = master01;
shapes = (
{
ref = N;
},
{
pos = (135,0);
ref = caroncomb.case;
}
);
width = 713;
}
);
unicode = 327;
},
{
glyphname = Ncommaaccent;
lastChange = "2023-02-02 13:54:17 +0000";
layers = (
{
background = {
shapes = (
{
closed = 1;
nodes = (
(408,8,o),
(426,-5,o),
(521,-5,cs),
(543,-5,ls),
(592,-5,o),
(603,9,o),
(603,70,cs),
(603,717,ls),
(603,732,o),
(589,740,o),
(563,740,cs),
(537,740,o),
(523,732,o),
(523,717,cs),
(523,65,l),
(472,65,o),
(468,70,o),
(456,119,cs),
(326,644,ls),
(305,727,o),
(287,740,o),
(192,740,cs),
(170,740,ls),
(122,740,o),
(110,726,o),
(110,668,cs),
(110,18,ls),
(110,3,o),
(124,-5,o),
(150,-5,cs),
(176,-5,o),
(190,3,o),
(190,18,cs),
(190,670,l),
(241,670,o),
(245,666,o),
(257,616,cs),
(387,91,ls,{
name = hr00;
})
);
},
{
closed = 1;
nodes = (
(369,-257,o),
(375,-254,o),
(377,-248,cs),
(382,-234,ls),
(393,-198,o),
(399,-172,o),
(399,-155,cs),
(399,-64,ls),
(399,-46,o),
(381,-40,o),
(356,-40,cs),
(332,-40,o),
(314,-46,o),
(314,-64,cs),
(314,-116,ls),
(314,-140,o),
(338,-152,o),
(338,-174,cs,{
name = hr01;
}),
(338,-182,o),
(335,-190,o),
(332,-199,cs),
(322,-225,ls),
(320,-230,o),
(320,-232,o),
(320,-234,cs),
(320,-243,o),
(345,-257,o),
(362,-257,cs)
);
}
);
};
layerId = master01;
shapes = (
{
ref = N;
},
{
pos = (256,0);
ref = commaaccentcomb;
}
);
width = 713;
}
);
unicode = 325;
},
{
glyphname = Ntilde;
lastChange = "2023-02-02 13:59:47 +0000";
layers = (
{
background = {
shapes = (
{
closed = 1;
nodes = (
(408,8,o),
(426,-5,o),
(521,-5,cs),
(543,-5,ls),
(592,-5,o),
(603,9,o),
(603,70,cs),
(603,717,ls),
(603,732,o),
(589,740,o),
(563,740,cs),
(537,740,o),
(523,732,o),
(523,717,cs),
(523,65,l),
(472,65,o),
(468,70,o),
(456,119,cs),
(326,644,ls),
(305,727,o),
(287,740,o),
(192,740,cs),
(170,740,ls),
(122,740,o),
(110,726,o),
(110,668,cs),
(110,18,ls),
(110,3,o),
(124,-5,o),
(150,-5,cs),
(176,-5,o),
(190,3,o),
(190,18,cs),
(190,670,l),
(241,670,o),
(245,666,o),
(257,616,cs),
(387,91,ls,{
name = hr00;
})
);
},
{
closed = 1;
nodes = (
(274,951,o),
(268,952,o),
(263,952,cs),
(222,952,o),
(198,912,o),
(198,843,cs),
(198,832,o),
(210,827,o),
(233,827,cs),
(256,827,o),
(268,834,o),
(268,847,cs),
(268,864,o),
(272,872,o),
(281,872,cs),
(283,872,o),
(284,871,o),
(286,871,cs),
(427,832,ls),
(435,830,o),
(442,829,o),
(449,829,cs),
(491,829,o),
(515,869,o),
(515,937,cs),
(515,948,o),
(503,953,o),
(480,953,cs,{
name = hr01;
}),
(457,953,o),
(445,946,o),
(445,933,cs),
(445,916,o),
(441,908,o),
(433,908,cs),
(430,908,o),
(428,908,o),
(427,909,cs),
(286,948,l)
);
}
);
};
layerId = master01;
shapes = (
{
ref = N;
},
{
pos = (118,0);
ref = tildecomb.case;
}
);
width = 713;
}
);
unicode = 209;
},
{
glyphname = Eng;
lastChange = "2023-02-02 13:49:55 +0000";
layers = (
{
anchors = (
{
name = bottom;
pos = (357,0);
},
{
name = top;
pos = (357,740);
}
);
background = {
shapes = (
{
closed = 1;
nodes = (
(397,-250,ls),
(533,-250,o),
(603,-197,o),
(603,-92,cs),
(603,717,ls),
(603,732,o),
(589,740,o),
(563,740,cs),
(537,740,o),
(523,732,o),
(523,717,cs),
(523,65,l),
(473,65,o),
(468,69,o),
(456,119,cs),
(326,644,ls),
(305,727,o),
(287,740,o),
(192,740,cs),
(170,740,ls),
(121,740,o),
(110,726,o),
(110,665,cs),
(110,18,ls),
(110,3,o),
(124,-5,o),
(150,-5,cs),
(176,-5,o),
(190,3,o),
(190,18,cs),
(190,670,l),
(241,670,o),
(245,666,o),
(257,616,cs),
(387,91,ls),
(408,8,o),
(426,-5,o),
(523,-5,c),
(523,-102,ls),
(523,-155,o),
(482,-180,o),
(397,-180,cs),
(362,-180,ls),
(349,-180,o),
(342,-192,o),
(342,-215,cs),
(342,-238,o),
(349,-250,o),
(362,-250,c,{
name = hr00;
})
);
}
);
};
layerId = master01;
shapes = (
{
closed = 1;
nodes = (
(397,-250,ls),
(533,-250,o),
(603,-197,o),
(603,-92,cs),
(603,717,ls),
(603,732,o),
(589,740,o),
(563,740,cs),
(537,740,o),
(523,732,o),
(523,717,cs),
(523,65,l),
(473,65,o),
(468,69,o),
(456,119,cs),
(326,644,ls),
(305,727,o),
(287,740,o),
(192,740,cs),
(170,740,ls),
(121,740,o),
(110,726,o),
(110,665,cs),
(110,18,ls),
(110,3,o),
(124,-5,o),
(150,-5,cs),
(176,-5,o),
(190,3,o),
(190,18,cs),
(190,670,l),
(241,670,o),
(245,666,o),
(257,616,cs),
(387,91,ls),
(408,8,o),
(426,-5,o),
(523,-5,c),
(523,-102,ls),
(523,-155,o),
(482,-180,o),
(397,-180,cs),
(362,-180,ls),
(349,-180,o),
(342,-192,o),
(342,-215,cs),
(342,-238,o),
(349,-250,o),
(362,-250,c,{
name = hr00;
})
);
}
);
width = 713;
}
);
unicode = 330;
},
{
glyphname = O;
lastChange = "2023-02-02 13:49:55 +0000";
layers = (
{
anchors = (
{
name = bottom;
pos = (332,0);
},
{
name = center;
pos = (332,370);
},
{
name = ogonek;
pos = (597,10);
},
{
name = top;
pos = (332,740);
},
{
name = topleft;
pos = (20,740);
},
{
name = topright;
pos = (643,740);
}
);
background = {
shapes = (
{
closed = 1;
nodes = (
(563,701,o),
(484,755,o),
(335,755,cs),
(183,755,o),
(100,699,o),
(100,597,cs),
(100,143,ls),
(100,39,o),
(179,-15,o),
(328,-15,cs),
(480,-15,o),
(563,41,o),
(563,143,cs),
(563,597,ls,{
name = hr00;
})
);
},
{
closed = 1;
nodes = (
(180,658,o),
(234,685,o),
(335,685,cs),
(433,685,o),
(483,659,o),
(483,607,cs),
(483,133,ls),
(483,82,o),
(429,55,o),
(328,55,cs),
(230,55,o),
(180,81,o),
(180,133,cs),
(180,607,ls)
);
}
);
};
layerId = master01;
shapes = (
{
closed = 1;
nodes = (
(563,701,o),
(484,755,o),
(335,755,cs),
(183,755,o),
(100,699,o),
(100,597,cs),
(100,143,ls),
(100,39,o),
(179,-15,o),
(328,-15,cs),
(480,-15,o),
(563,41,o),
(563,143,cs),
(563,597,ls,{
name = hr00;
})
);
},
{
closed = 1;
nodes = (
(180,658,o),
(234,685,o),
(335,685,cs),
(433,685,o),
(483,659,o),
(483,607,cs),
(483,133,ls),
(483,82,o),
(429,55,o),
(328,55,cs),
(230,55,o),
(180,81,o),
(180,133,cs),
(180,607,ls)
);
}
);
width = 663;
}
);
unicode = 79;
},
{
glyphname = Oacute;
lastChange = "2023-02-02 13:54:17 +0000";
layers = (
{
background = {
shapes = (
{
closed = 1;
nodes = (
(563,701,o),
(484,755,o),
(335,755,cs),
(183,755,o),
(100,699,o),
(100,597,cs),
(100,143,ls),
(100,39,o),
(179,-15,o),
(328,-15,cs),
(480,-15,o),
(563,41,o),
(563,143,cs),
(563,597,ls,{
name = hr00;
})
);
},
{
closed = 1;
nodes = (
(180,658,o),
(234,685,o),
(335,685,cs),
(433,685,o),
(483,659,o),
(483,607,cs),
(483,133,ls),
(483,82,o),
(429,55,o),
(328,55,cs),
(230,55,o),
(180,81,o),
(180,133,cs),
(180,607,ls)
);
},
{
closed = 1;
nodes = (
(246,807,o),
(248,808,o),
(262,814,cs),
(438,898,ls),
(446,902,o),
(449,907,o),
(449,918,cs),
(449,944,o),
(421,986,o),
(403,986,cs),
(397,986,o),
(394,985,o),
(390,982,cs),
(224,868,ls),
(216,863,o),
(214,859,o),
(214,853,cs),
(214,837,o),
(234,807,o),
(244,807,cs,{
name = hr00;
})
);
}
);
};
layerId = master01;
shapes = (
{
ref = O;
},
{
pos = (164,0);
ref = acutecomb.case;
}
);
width = 663;
}
);
unicode = 211;
},
{
glyphname = Obreve;
lastChange = "2023-02-02 13:54:17 +0000";
layers = (
{
background = {
shapes = (
{
closed = 1;
nodes = (
(563,701,o),
(484,755,o),
(335,755,cs),
(183,755,o),
(100,699,o),
(100,597,cs),
(100,143,ls),
(100,39,o),
(179,-15,o),
(328,-15,cs),
(480,-15,o),
(563,41,o),
(563,143,cs),
(563,597,ls,{
name = hr00;
})
);
},
{
closed = 1;
nodes = (
(180,658,o),
(234,685,o),
(335,685,cs),
(433,685,o),
(483,659,o),
(483,607,cs),
(483,133,ls),
(483,82,o),
(429,55,o),
(328,55,cs),
(230,55,o),
(180,81,o),
(180,133,cs),
(180,607,ls)
);
},
{
closed = 1;
nodes = (
(280,949,o),
(263,954,o),
(244,954,cs),
(225,954,o),
(209,949,o),
(209,934,cs),
(209,909,ls),
(209,848,o),
(241,817,o),
(329,817,cs),
(416,817,o),
(453,848,o),
(453,909,cs),
(453,934,ls),
(453,949,o),
(436,954,o),
(417,954,cs),
(398,954,o),
(382,949,o),
(382,934,cs),
(382,910,ls),
(382,888,o),
(356,880,o),
(330,880,cs),
(302,880,o),
(280,887,o),
(280,909,cs),
(280,934,ls,{
name = hr00;
})
);
}
);
};
layerId = master01;
shapes = (
{
ref = O;
},
{
pos = (160,0);
ref = brevecomb.case;
}
);
width = 663;
}
);
unicode = 334;
},
{
glyphname = Ocircumflex;
lastChange = "2023-02-02 13:54:17 +0000";
layers = (
{
background = {
shapes = (
{
closed = 1;
nodes = (
(563,701,o),
(484,755,o),
(335,755,cs),
(183,755,o),
(100,699,o),
(100,597,cs),
(100,143,ls),
(100,39,o),
(179,-15,o),
(328,-15,cs),
(480,-15,o),
(563,41,o),
(563,143,cs),
(563,597,ls,{
name = hr00;
})
);
},
{
closed = 1;
nodes = (
(180,658,o),
(234,685,o),
(335,685,cs),
(433,685,o),
(483,659,o),
(483,607,cs),
(483,133,ls),
(483,82,o),
(429,55,o),
(328,55,cs),
(230,55,o),
(180,81,o),
(180,133,cs),
(180,607,ls)
);
},
{
closed = 1;
nodes = (
(323,986,o),
(318,984,o),
(316,982,cs),
(196,866,ls),
(191,861,o),
(189,856,o),
(189,851,cs),
(189,833,o),
(208,807,o),
(221,807,cs),
(223,807,o),
(224,808,o),
(228,810,cs),
(331,886,l),
(434,810,ls),
(437,808,o),
(439,807,o),
(441,807,cs),
(454,807,o),
(473,833,o),
(473,851,cs),
(473,856,o),
(471,861,o),
(466,866,cs),
(346,982,ls),
(344,984,o),
(339,986,o),
(337,986,cs),
(326,986,l,{
name = hr00;
})
);
}
);
};
layerId = master01;
shapes = (
{
ref = O;
},
{
pos = (90,0);
ref = circumflexcomb.case;
}
);
width = 663;
}
);
unicode = 212;
},
{
glyphname = Odieresis;
lastChange = "2023-02-02 13:54:17 +0000";
layers = (
{
background = {
shapes = (
{
closed = 1;
nodes = (
(563,701,o),
(484,755,o),
(335,755,cs),
(183,755,o),
(100,699,o),
(100,597,cs),
(100,143,ls),
(100,39,o),
(179,-15,o),
(328,-15,cs),
(480,-15,o),
(563,41,o),
(563,143,cs),
(563,597,ls,{
name = hr00;
})
);
},
{
closed = 1;
nodes = (
(180,658,o),
(234,685,o),
(335,685,cs),
(433,685,o),
(483,659,o),
(483,607,cs),
(483,133,ls),
(483,82,o),
(429,55,o),
(328,55,cs),
(230,55,o),
(180,81,o),
(180,133,cs),
(180,607,ls)
);
},
{
closed = 1;
nodes = (
(275,832,o),
(260,823,o),
(232,823,cs),
(203,823,o),
(188,831,o),
(188,848,cs),
(188,935,ls),
(188,951,o),
(203,960,o),
(231,960,cs),
(260,960,o),
(275,952,o),
(275,935,cs),
(275,848,ls,{
name = hr00;
})
);
},
{
closed = 1;
nodes = (
(475,832,o),
(460,823,o),
(432,823,cs),
(403,823,o),
(388,831,o),
(388,848,cs),
(388,935,ls),
(388,951,o),
(403,960,o),
(431,960,cs),
(460,960,o),
(475,952,o),
(475,935,cs),
(475,848,ls)
);
}
);
};
layerId = master01;
shapes = (
{
ref = O;
},
{
pos = (88,0);
ref = dieresiscomb.case;
}
);
width = 663;
}
);
unicode = 214;
},
{
glyphname = Ograve;
lastChange = "2023-02-02 13:54:17 +0000";
layers = (
{
background = {
shapes = (
{
closed = 1;
nodes = (
(563,701,o),
(484,755,o),
(335,755,cs),
(183,755,o),
(100,699,o),
(100,597,cs),
(100,143,ls),
(100,39,o),
(179,-15,o),
(328,-15,cs),
(480,-15,o),
(563,41,o),
(563,143,cs),
(563,597,ls,{
name = hr00;
})
);
},
{
closed = 1;
nodes = (
(180,658,o),
(234,685,o),
(335,685,cs),
(433,685,o),
(483,659,o),
(483,607,cs),
(483,133,ls),
(483,82,o),
(429,55,o),
(328,55,cs),
(230,55,o),
(180,81,o),
(180,133,cs),
(180,607,ls)
);
},
{
closed = 1;
nodes = (
(429,807,o),
(449,837,o),
(449,853,cs),
(449,859,o),
(447,863,o),
(439,868,cs),
(273,982,ls),
(269,985,o),
(266,986,o),
(260,986,cs),
(242,986,o),
(214,944,o),
(214,918,cs),
(214,907,o),
(217,902,o),
(225,898,cs),
(401,814,ls),
(415,808,o),
(417,807,o),
(419,807,cs,{
name = hr00;
})
);
}
);
};
layerId = master01;
shapes = (
{
ref = O;
},
{
pos = (164,0);
ref = gravecomb.case;
}
);
width = 663;
}
);
unicode = 210;
},
{
glyphname = Ohungarumlaut;
lastChange = "2023-02-02 14:00:00 +0000";
layers = (
{
background = {
shapes = (
{
closed = 1;
nodes = (
(563,701,o),
(484,755,o),
(335,755,cs),
(183,755,o),
(100,699,o),
(100,597,cs),
(100,143,ls),
(100,39,o),
(179,-15,o),
(328,-15,cs),
(480,-15,o),
(563,41,o),
(563,143,cs),
(563,597,ls,{
name = hr00;
})
);
},
{
closed = 1;
nodes = (
(180,658,o),
(234,685,o),
(335,685,cs),
(433,685,o),
(483,659,o),
(483,607,cs),
(483,133,ls),
(483,82,o),
(429,55,o),
(328,55,cs),
(230,55,o),
(180,81,o),
(180,133,cs),
(180,607,ls)
);
},
{
closed = 1;
nodes = (
(154,861,o),
(153,857,o),
(153,853,cs),
(153,838,o),
(172,807,o),
(187,807,cs),
(191,807,o),
(194,809,o),
(205,815,cs),
(341,897,ls),
(348,901,o),
(350,907,o),
(350,912,cs),
(350,936,o),
(320,982,o),
(298,982,cs),
(293,982,o),
(289,980,o),
(286,977,cs),
(158,864,ls,{
name = hr00;
})
);
},
{
closed = 1;
nodes = (
(374,861,o),
(373,857,o),
(373,853,cs),
(373,838,o),
(392,807,o),
(407,807,cs),
(411,807,o),
(414,809,o),
(425,815,cs),
(561,897,ls),
(568,901,o),
(570,907,o),
(570,912,cs),
(570,936,o),
(540,982,o),
(518,982,cs),
(513,982,o),
(509,980,o),
(506,977,cs),
(378,864,ls)
);
}
);
};
layerId = master01;
shapes = (
{
ref = O;
},
{
pos = (73,0);
ref = hungarumlautcomb.case;
}
);
width = 663;
}
);
unicode = 336;
},
{
glyphname = Omacron;
lastChange = "2023-02-02 13:54:17 +0000";
layers = (
{
background = {
shapes = (
{
closed = 1;
nodes = (
(563,701,o),
(484,755,o),
(335,755,cs),
(183,755,o),
(100,699,o),
(100,597,cs),
(100,143,ls),
(100,39,o),
(179,-15,o),
(328,-15,cs),
(480,-15,o),
(563,41,o),
(563,143,cs),
(563,597,ls,{
name = hr00;
})
);
},
{
closed = 1;
nodes = (
(180,658,o),
(234,685,o),
(335,685,cs),
(433,685,o),
(483,659,o),
(483,607,cs),
(483,133,ls),
(483,82,o),
(429,55,o),
(328,55,cs),
(230,55,o),
(180,81,o),
(180,133,cs),
(180,607,ls)
);
},
{
closed = 1;
nodes = (
(183,927,o),
(178,911,o),
(178,889,cs),
(178,868,o),
(183,850,o),
(198,850,cs),
(465,850,ls),
(480,850,o),
(485,867,o),
(485,889,cs),
(485,910,o),
(480,927,o),
(465,927,cs),
(198,927,ls,{
name = hr00;
})
);
}
);
};
layerId = master01;
shapes = (
{
ref = O;
},
{
pos = (78,0);
ref = macroncomb.case;
}
);
width = 663;
}
);
unicode = 332;
},
{
glyphname = Oslash;
lastChange = "2023-02-02 14:00:09 +0000";
layers = (
{
background = {
shapes = (
{
closed = 1;
nodes = (
(563,701,o),
(484,755,o),
(335,755,cs),
(183,755,o),
(100,699,o),
(100,597,cs),
(100,143,ls),
(100,39,o),
(179,-15,o),
(328,-15,cs),
(480,-15,o),
(563,41,o),
(563,143,cs),
(563,597,ls,{
name = hr00;
})
);
},
{
closed = 1;
nodes = (
(180,658,o),
(234,685,o),
(335,685,cs),
(433,685,o),
(483,659,o),
(483,607,cs),
(483,133,ls),
(483,82,o),
(429,55,o),
(328,55,cs),
(230,55,o),
(180,81,o),
(180,133,cs),
(180,607,ls)
);
},
{
closed = 1;
nodes = (
(489,821,o),
(490,826,o),
(490,828,cs),
(490,839,o),
(479,845,o),
(459,845,cs),
(435,845,o),
(421,837,o),
(417,822,cs),
(177,-71,ls),
(174,-84,o),
(173,-86,o),
(173,-88,cs),
(173,-99,o),
(184,-105,o),
(204,-105,cs),
(227,-105,o),
(241,-97,o),
(246,-82,cs),
(486,811,ls,{
name = hr00;
})
);
}
);
};
layerId = master01;
shapes = (
{
ref = O;
},
{
closed = 1;
nodes = (
(489,821,o),
(490,826,o),
(490,828,cs),
(490,839,o),
(479,845,o),
(459,845,cs),
(435,845,o),
(421,837,o),
(417,822,cs),
(177,-71,ls),
(174,-84,o),
(173,-86,o),
(173,-88,cs),
(173,-99,o),
(184,-105,o),
(204,-105,cs),
(227,-105,o),
(241,-97,o),
(246,-82,cs),
(486,811,ls,{
name = hr00;
})
);
}
);
width = 663;
}
);
unicode = 216;
},
{
glyphname = Oslashacute;
lastChange = "2023-02-02 13:54:17 +0000";
layers = (
{
background = {
shapes = (
{
closed = 1;
nodes = (
(246,807,o),
(248,808,o),
(262,814,cs),
(438,898,ls),
(446,902,o),
(449,907,o),
(449,918,cs),
(449,944,o),
(421,986,o),
(403,986,cs),
(397,986,o),
(394,985,o),
(390,982,cs),
(224,868,ls),
(216,863,o),
(214,859,o),
(214,853,cs),
(214,837,o),
(234,807,o),
(244,807,c,{
name = hr00;
})
);
},
{
closed = 1;
nodes = (
(563,701,o),
(484,755,o),
(335,755,cs),
(183,755,o),
(100,699,o),
(100,597,cs),
(100,143,ls),
(100,39,o),
(179,-15,o),
(328,-15,cs),
(480,-15,o),
(563,41,o),
(563,143,cs),
(563,597,ls,{
name = hr00;
})
);
},
{
closed = 1;
nodes = (
(180,658,o),
(234,685,o),
(335,685,cs),
(433,685,o),
(483,659,o),
(483,607,cs),
(483,133,ls),
(483,82,o),
(429,55,o),
(328,55,cs),
(230,55,o),
(180,81,o),
(180,133,cs),
(180,607,ls)
);
},
{
closed = 1;
nodes = (
(489,778,o),
(490,782,o),
(490,784,cs),
(490,794,o),
(479,800,o),
(459,800,cs),
(435,800,o),
(421,792,o),
(417,779,cs),
(177,-25,ls),
(174,-37,o),
(173,-38,o),
(173,-40,cs),
(173,-50,o),
(184,-55,o),
(204,-55,cs),
(227,-55,o),
(241,-48,o),
(246,-35,cs),
(486,769,ls,{
name = hr00;
})
);
}
);
};
layerId = master01;
shapes = (
{
ref = Oslash;
},
{
pos = (164,0);
ref = acutecomb.case;
}
);
width = 663;
}
);
unicode = 510;
},
{
glyphname = Otilde;
lastChange = "2023-02-02 13:54:17 +0000";
layers = (
{
background = {
shapes = (
{
closed = 1;
nodes = (
(563,701,o),
(484,755,o),
(335,755,cs),
(183,755,o),
(100,699,o),
(100,597,cs),
(100,143,ls),
(100,39,o),
(179,-15,o),
(328,-15,cs),
(480,-15,o),
(563,41,o),
(563,143,cs),
(563,597,ls,{
name = hr00;
})
);
},
{
closed = 1;
nodes = (
(180,658,o),
(234,685,o),
(335,685,cs),
(433,685,o),
(483,659,o),
(483,607,cs),
(483,133,ls),
(483,82,o),
(429,55,o),
(328,55,cs),
(230,55,o),
(180,81,o),
(180,133,cs),
(180,607,ls)
);
},
{
closed = 1;
nodes = (
(249,951,o),
(243,952,o),
(238,952,cs),
(197,952,o),
(173,912,o),
(173,843,cs),
(173,832,o),
(185,827,o),
(208,827,cs),
(231,827,o),
(243,834,o),
(243,847,cs),
(243,864,o),
(247,872,o),
(256,872,cs),
(258,872,o),
(259,871,o),
(261,871,cs),
(402,832,ls),
(410,830,o),
(417,829,o),
(424,829,cs),
(466,829,o),
(490,869,o),
(490,937,cs),
(490,948,o),
(478,953,o),
(455,953,cs,{
name = hr01;
}),
(432,953,o),
(420,946,o),
(420,933,cs),
(420,916,o),
(416,908,o),
(408,908,cs),
(405,908,o),
(403,908,o),
(402,909,cs),
(261,948,l)
);
}
);
};
layerId = master01;
shapes = (
{
ref = O;
},
{
pos = (73,0);
ref = tildecomb.case;
}
);
width = 663;
}
);
unicode = 213;
},
{
glyphname = OE;
lastChange = "2023-02-02 13:49:55 +0000";
layers = (
{
anchors = (
{
name = bottom;
pos = (493,0);
},
{
name = top;
pos = (493,740);
}
);
background = {
shapes = (
{
closed = 1;
nodes = (
(629,755,o),
(563,739,o),
(523,700,c),
(482,739,o),
(415,755,o),
(335,755,cs),
(205,755,o),
(100,714,o),
(100,597,cs),
(100,143,ls),
(100,26,o),
(198,-15,o),
(328,-15,cs),
(408,-15,o),
(479,0,o),
(522,40,c),
(562,0,o),
(630,-15,o),
(706,-15,cs),
(829,-15,o),
(926,26,o),
(926,143,cs),
(926,205,ls),
(926,222,o),
(909,228,o),
(886,228,cs),
(864,228,o),
(846,222,o),
(846,205,cs),
(846,133,ls),
(846,75,o),
(788,55,o),
(708,55,cs),
(627,55,o),
(563,75,o),
(563,133,cs),
(563,258,ls),
(563,316,o),
(602,346,o),
(671,346,cs),
(756,346,ls),
(771,346,o),
(776,362,o),
(776,381,cs),
(776,400,o),
(771,416,o),
(756,416,cs),
(671,416,ls),
(602,416,o),
(563,446,o),
(563,504,cs),
(563,607,ls),
(563,665,o),
(624,685,o),
(700,685,cs),
(772,685,o),
(824,665,o),
(824,607,cs,{
name = hr01;
}),
(824,582,ls),
(824,565,o),
(842,559,o),
(864,559,cs),
(887,559,o),
(904,565,o),
(904,582,cs),
(904,597,ls),
(904,714,o),
(813,755,o),
(705,755,cs)
);
},
{
closed = 1;
nodes = (
(483,75,o),
(414,55,o),
(328,55,cs),
(242,55,o),
(180,75,o),
(180,133,cs),
(180,607,ls),
(180,665,o),
(249,685,o),
(335,685,cs),
(421,685,o),
(483,665,o),
(483,607,cs),
(483,504,ls),
(483,429,o),
(514,395,o),
(566,381,c),
(514,366,o),
(483,333,o),
(483,258,cs),
(483,133,l)
);
}
);
};
layerId = master01;
shapes = (
{
closed = 1;
nodes = (
(629,755,o),
(563,739,o),
(523,700,c),
(482,739,o),
(415,755,o),
(335,755,cs),
(205,755,o),
(100,714,o),
(100,597,cs),
(100,143,ls),
(100,26,o),
(198,-15,o),
(328,-15,cs),
(408,-15,o),
(479,0,o),
(522,40,c),
(562,0,o),
(630,-15,o),
(706,-15,cs),
(829,-15,o),
(926,26,o),
(926,143,cs),
(926,205,ls),
(926,222,o),
(909,228,o),
(886,228,cs),
(864,228,o),
(846,222,o),
(846,205,cs),
(846,133,ls),
(846,75,o),
(788,55,o),
(708,55,cs),
(627,55,o),
(563,75,o),
(563,133,cs),
(563,258,ls),
(563,316,o),
(602,346,o),
(671,346,cs),
(756,346,ls),
(771,346,o),
(776,362,o),
(776,381,cs),
(776,400,o),
(771,416,o),
(756,416,cs),
(671,416,ls),
(602,416,o),
(563,446,o),
(563,504,cs),
(563,607,ls),
(563,665,o),
(624,685,o),
(700,685,cs),
(772,685,o),
(824,665,o),
(824,607,cs,{
name = hr01;
}),
(824,582,ls),
(824,565,o),
(842,559,o),
(864,559,cs),
(887,559,o),
(904,565,o),
(904,582,cs),
(904,597,ls),
(904,714,o),
(813,755,o),
(705,755,cs)
);
},
{
closed = 1;
nodes = (
(483,75,o),
(414,55,o),
(328,55,cs),
(242,55,o),
(180,75,o),
(180,133,cs),
(180,607,ls),
(180,665,o),
(249,685,o),
(335,685,cs),
(421,685,o),
(483,665,o),
(483,607,cs),
(483,504,ls),
(483,429,o),
(514,395,o),
(566,381,c),
(514,366,o),
(483,333,o),
(483,258,cs),
(483,133,l)
);
}
);
width = 986;
}
);
unicode = 338;
},
{
glyphname = P;
lastChange = "2023-02-02 13:49:55 +0000";
layers = (
{
anchors = (
{
name = bottom;
pos = (307,0);
},
{
name = top;
pos = (307,740);
}
);
background = {
shapes = (
{
closed = 1;
nodes = (
(227,350,o),
(220,338,o),
(220,315,cs),
(220,292,o),
(227,280,o),
(240,280,cs),
(327,280,ls),
(467,280,o),
(543,336,o),
(543,438,cs),
(543,597,ls),
(543,699,o),
(466,755,o),
(326,755,cs),
(186,755,o),
(110,699,o),
(110,597,cs),
(110,18,ls),
(110,3,o),
(124,-5,o),
(150,-5,cs),
(176,-5,o),
(190,3,o),
(190,18,cs),
(190,607,ls),
(190,658,o),
(237,685,o),
(326,685,cs),
(415,685,o),
(463,658,o),
(463,607,cs),
(463,428,ls),
(463,377,o),
(416,350,o),
(327,350,cs),
(240,350,ls,{
name = hr00;
})
);
}
);
};
layerId = master01;
shapes = (
{
closed = 1;
nodes = (
(227,350,o),
(220,338,o),
(220,315,cs),
(220,292,o),
(227,280,o),
(240,280,cs),
(327,280,ls),
(467,280,o),
(543,336,o),
(543,438,cs),
(543,597,ls),
(543,699,o),
(466,755,o),
(326,755,cs),
(186,755,o),
(110,699,o),
(110,597,cs),
(110,18,ls),
(110,3,o),
(124,-5,o),
(150,-5,cs),
(176,-5,o),
(190,3,o),
(190,18,cs),
(190,607,ls),
(190,658,o),
(237,685,o),
(326,685,cs),
(415,685,o),
(463,658,o),
(463,607,cs),
(463,428,ls),
(463,377,o),
(416,350,o),
(327,350,cs),
(240,350,ls,{
name = hr00;
})
);
}
);
width = 613;
}
);
unicode = 80;
},
{
glyphname = Thorn;
lastChange = "2023-02-02 13:49:55 +0000";
layers = (
{
anchors = (
{
name = bottom;
pos = (307,0);
},
{
name = top;
pos = (307,740);
}
);
background = {
shapes = (
{
closed = 1;
nodes = (
(225,210,o),
(220,195,o),
(220,175,cs),
(220,156,o),
(225,140,o),
(240,140,cs),
(327,140,ls),
(447,140,o),
(543,181,o),
(543,298,cs),
(543,457,ls),
(543,574,o),
(446,615,o),
(326,615,cs),
(264,615,o),
(219,604,o),
(190,577,c),
(190,732,ls),
(190,749,o),
(173,755,o),
(150,755,cs),
(128,755,o),
(110,749,o),
(110,732,cs),
(110,18,ls),
(110,1,o),
(128,-5,o),
(150,-5,cs),
(173,-5,o),
(190,1,o),
(190,18,cs),
(190,471,l),
(193,526,o),
(252,545,o),
(326,545,cs),
(402,545,o),
(463,525,o),
(463,467,cs),
(463,288,ls),
(463,230,o),
(403,210,o),
(327,210,cs),
(240,210,ls,{
name = hr00;
})
);
}
);
};
layerId = master01;
shapes = (
{
closed = 1;
nodes = (
(225,210,o),
(220,195,o),
(220,175,cs),
(220,156,o),
(225,140,o),
(240,140,cs),
(327,140,ls),
(447,140,o),
(543,181,o),
(543,298,cs),
(543,457,ls),
(543,574,o),
(446,615,o),
(326,615,cs),
(264,615,o),
(219,604,o),
(190,577,c),
(190,732,ls),
(190,749,o),
(173,755,o),
(150,755,cs),
(128,755,o),
(110,749,o),
(110,732,cs),
(110,18,ls),
(110,1,o),
(128,-5,o),
(150,-5,cs),
(173,-5,o),
(190,1,o),
(190,18,cs),
(190,471,l),
(193,526,o),
(252,545,o),
(326,545,cs),
(402,545,o),
(463,525,o),
(463,467,cs),
(463,288,ls),
(463,230,o),
(403,210,o),
(327,210,cs),
(240,210,ls,{
name = hr00;
})
);
}
);
width = 613;
}
);
unicode = 222;
},
{
glyphname = Q;
lastChange = "2023-02-02 13:49:55 +0000";
layers = (
{
anchors = (
{
name = bottom;
pos = (332,0);
},
{
name = top;
pos = (332,740);
}
);
background = {
shapes = (
{
closed = 1;
nodes = (
(230,55,o),
(180,81,o),
(180,133,cs),
(180,607,ls),
(180,658,o),
(234,685,o),
(335,685,cs),
(433,685,o),
(483,659,o),
(483,607,cs),
(483,133,ls),
(483,109,o),
(472,90,o),
(450,78,c),
(409,169,ls),
(401,186,o),
(392,191,o),
(372,191,cs),
(346,191,o),
(329,183,o),
(331,172,c),
(451,-95,l),
(454,-110,o),
(468,-117,o),
(493,-117,cs),
(517,-117,o),
(530,-110,o),
(529,-98,c),
(479,12,l),
(534,37,o),
(563,82,o),
(563,143,cs),
(563,597,ls),
(563,701,o),
(484,755,o),
(335,755,cs),
(183,755,o),
(100,699,o),
(100,597,cs),
(100,143,ls),
(100,39,o),
(179,-15,o),
(328,-15,cs),
(341,-15,o),
(348,-3,o),
(348,20,cs),
(348,43,o),
(341,55,o),
(328,55,cs,{
name = hr00;
})
);
}
);
};
layerId = master01;
shapes = (
{
closed = 1;
nodes = (
(230,55,o),
(180,81,o),
(180,133,cs),
(180,607,ls),
(180,658,o),
(234,685,o),
(335,685,cs),
(433,685,o),
(483,659,o),
(483,607,cs),
(483,133,ls),
(483,109,o),
(472,90,o),
(450,78,c),
(409,169,ls),
(401,186,o),
(392,191,o),
(372,191,cs),
(346,191,o),
(329,183,o),
(331,172,c),
(451,-95,l),
(454,-110,o),
(468,-117,o),
(493,-117,cs),
(517,-117,o),
(530,-110,o),
(529,-98,c),
(479,12,l),
(534,37,o),
(563,82,o),
(563,143,cs),
(563,597,ls),
(563,701,o),
(484,755,o),
(335,755,cs),
(183,755,o),
(100,699,o),
(100,597,cs),
(100,143,ls),
(100,39,o),
(179,-15,o),
(328,-15,cs),
(341,-15,o),
(348,-3,o),
(348,20,cs),
(348,43,o),
(341,55,o),
(328,55,cs,{
name = hr00;
})
);
}
);
width = 663;
}
);
unicode = 81;
},
{
glyphname = R;
lastChange = "2023-02-02 14:00:20 +0000";
layers = (
{
anchors = (
{
name = bottom;
pos = (333,0);
},
{
name = top;
pos = (322,740);
}
);
background = {
shapes = (
{
closed = 1;
nodes = (
(227,370,o),
(220,358,o),
(220,335,cs),
(220,312,o),
(227,300,o),
(240,300,cs),
(328,300,ls),
(399,300,o),
(410,294,o),
(423,246,cs),
(486,18,l),
(490,1,o),
(501,-5,o),
(525,-5,cs),
(551,-5,o),
(564,2,o),
(563,15,c),
(492,274,ls),
(483,306,o),
(473,328,o),
(455,342,c),
(518,359,o),
(543,396,o),
(543,458,cs),
(543,597,ls),
(543,699,o),
(466,755,o),
(326,755,cs),
(186,755,o),
(110,699,o),
(110,597,cs),
(110,18,ls),
(110,3,o),
(124,-5,o),
(150,-5,cs),
(176,-5,o),
(190,3,o),
(190,18,cs),
(190,607,ls),
(190,658,o),
(237,685,o),
(326,685,cs),
(415,685,o),
(463,658,o),
(463,607,cs),
(463,448,ls),
(463,397,o),
(416,370,o),
(327,370,cs),
(240,370,ls,{
name = hr00;
})
);
}
);
};
layerId = master01;
shapes = (
{
closed = 1;
nodes = (
(227,370,o),
(220,358,o),
(220,335,cs),
(220,312,o),
(227,300,o),
(240,300,cs),
(328,300,ls),
(399,300,o),
(410,294,o),
(423,246,cs),
(486,18,l),
(490,1,o),
(501,-5,o),
(525,-5,cs),
(551,-5,o),
(564,2,o),
(563,15,c),
(492,274,ls),
(483,306,o),
(473,328,o),
(455,342,c),
(518,359,o),
(543,396,o),
(543,458,cs),
(543,597,ls),
(543,699,o),
(466,755,o),
(326,755,cs),
(186,755,o),
(110,699,o),
(110,597,cs),
(110,18,ls),
(110,3,o),
(124,-5,o),
(150,-5,cs),
(176,-5,o),
(190,3,o),
(190,18,cs),
(190,607,ls),
(190,658,o),
(237,685,o),
(326,685,cs),
(415,685,o),
(463,658,o),
(463,607,cs),
(463,448,ls),
(463,397,o),
(416,370,o),
(327,370,cs),
(240,370,ls,{
name = hr00;
})
);
}
);
width = 644;
}
);
unicode = 82;
},
{
glyphname = Racute;
lastChange = "2023-02-02 13:54:17 +0000";
layers = (
{
background = {
shapes = (
{
closed = 1;
nodes = (
(227,370,o),
(220,358,o),
(220,335,cs),
(220,312,o),
(227,300,o),
(240,300,cs),
(328,300,ls),
(399,300,o),
(410,294,o),
(423,246,cs),
(486,18,l),
(490,1,o),
(501,-5,o),
(525,-5,cs),
(551,-5,o),
(564,2,o),
(563,15,c),
(492,274,ls),
(483,306,o),
(473,328,o),
(455,342,c),
(518,359,o),
(543,396,o),
(543,458,cs),
(543,597,ls),
(543,699,o),
(466,755,o),
(326,755,cs),
(186,755,o),
(110,699,o),
(110,597,cs),
(110,18,ls),
(110,3,o),
(124,-5,o),
(150,-5,cs),
(176,-5,o),
(190,3,o),
(190,18,cs),
(190,607,ls),
(190,658,o),
(237,685,o),
(326,685,cs),
(415,685,o),
(463,658,o),
(463,607,cs),
(463,448,ls),
(463,397,o),
(416,370,o),
(327,370,cs),
(240,370,ls,{
name = hr00;
})
);
},
{
closed = 1;
nodes = (
(256,807,o),
(258,808,o),
(272,814,cs),
(448,898,ls),
(456,902,o),
(459,907,o),
(459,918,cs),
(459,944,o),
(431,986,o),
(413,986,cs),
(407,986,o),
(404,985,o),
(400,982,cs),
(234,868,ls),
(226,863,o),
(224,859,o),
(224,853,cs),
(224,837,o),
(244,807,o),
(254,807,c,{
name = hr00;
})
);
}
);
};
layerId = master01;
shapes = (
{
ref = R;
},
{
pos = (154,0);
ref = acutecomb.case;
}
);
width = 644;
}
);
unicode = 340;
},
{
glyphname = Rcaron;
lastChange = "2023-02-02 13:54:17 +0000";
layers = (
{
background = {
shapes = (
{
closed = 1;
nodes = (
(227,370,o),
(220,358,o),
(220,335,cs),
(220,312,o),
(227,300,o),
(240,300,cs),
(328,300,ls),
(399,300,o),
(410,294,o),
(423,246,cs),
(486,18,l),
(490,1,o),
(501,-5,o),
(525,-5,cs),
(551,-5,o),
(564,2,o),
(563,15,c),
(492,274,ls),
(483,306,o),
(473,328,o),
(455,342,c),
(518,359,o),
(543,396,o),
(543,458,cs),
(543,597,ls),
(543,699,o),
(466,755,o),
(326,755,cs),
(186,755,o),
(110,699,o),
(110,597,cs),
(110,18,ls),
(110,3,o),
(124,-5,o),
(150,-5,cs),
(176,-5,o),
(190,3,o),
(190,18,cs),
(190,607,ls),
(190,658,o),
(237,685,o),
(326,685,cs),
(415,685,o),
(463,658,o),
(463,607,cs),
(463,448,ls),
(463,397,o),
(416,370,o),
(327,370,cs),
(240,370,ls,{
name = hr00;
})
);
},
{
closed = 1;
nodes = (
(330,802,o),
(335,804,o),
(337,806,cs),
(457,922,ls),
(462,927,o),
(464,932,o),
(464,937,cs),
(464,955,o),
(445,981,o),
(432,981,cs),
(430,981,o),
(428,980,o),
(425,978,cs),
(322,902,l),
(219,978,ls),
(215,980,o),
(214,981,o),
(212,981,cs),
(199,981,o),
(180,955,o),
(180,937,cs),
(180,932,o),
(182,927,o),
(187,922,cs),
(307,806,ls),
(309,804,o),
(314,802,o),
(317,802,c),
(328,802,l,{
name = hr00;
})
);
}
);
};
layerId = master01;
shapes = (
{
ref = R;
},
{
pos = (80,0);
ref = caroncomb.case;
}
);
width = 644;
}
);
unicode = 344;
},
{
glyphname = Rcommaaccent;
lastChange = "2023-02-02 14:00:20 +0000";
layers = (
{
background = {
shapes = (
{
closed = 1;
nodes = (
(227,370,o),
(220,358,o),
(220,335,cs),
(220,312,o),
(227,300,o),
(240,300,cs),
(328,300,ls),
(399,300,o),
(410,294,o),
(423,246,cs),
(486,18,l),
(490,1,o),
(501,-5,o),
(525,-5,cs),
(551,-5,o),
(564,2,o),
(563,15,c),
(492,274,ls),
(483,306,o),
(473,328,o),
(455,342,c),
(518,359,o),
(543,396,o),
(543,458,cs),
(543,597,ls),
(543,699,o),
(466,755,o),
(326,755,cs),
(186,755,o),
(110,699,o),
(110,597,cs),
(110,18,ls),
(110,3,o),
(124,-5,o),
(150,-5,cs),
(176,-5,o),
(190,3,o),
(190,18,cs),
(190,607,ls),
(190,658,o),
(237,685,o),
(326,685,cs),
(415,685,o),
(463,658,o),
(463,607,cs),
(463,448,ls),
(463,397,o),
(416,370,o),
(327,370,cs),
(240,370,ls,{
name = hr00;
})
);
},
{
closed = 1;
nodes = (
(345,-257,o),
(351,-254,o),
(353,-248,cs),
(358,-234,ls),
(369,-198,o),
(375,-172,o),
(375,-155,cs),
(375,-64,ls),
(375,-46,o),
(357,-40,o),
(332,-40,cs),
(308,-40,o),
(290,-46,o),
(290,-64,cs),
(290,-116,ls),
(290,-140,o),
(314,-152,o),
(314,-174,cs,{
name = hr01;
}),
(314,-182,o),
(311,-190,o),
(308,-199,cs),
(298,-225,ls),
(296,-230,o),
(296,-232,o),
(296,-234,cs),
(296,-243,o),
(321,-257,o),
(338,-257,cs)
);
}
);
};
layerId = master01;
shapes = (
{
ref = R;
},
{
pos = (232,0);
ref = commaaccentcomb;
}
);
width = 644;
}
);
unicode = 342;
},
{
glyphname = S;
lastChange = "2023-02-02 14:00:37 +0000";
layers = (
{
anchors = (
{
name = bottom;
pos = (299,0);
},
{
name = top;
pos = (319,740);
}
);
background = {
shapes = (
{
closed = 1;
nodes = (
(452,-15,o),
(537,43,o),
(537,143,cs),
(537,238,ls),
(537,324,o),
(501,360,o),
(382,387,cs),
(252,416,ls),
(190,429,o),
(174,451,o),
(174,522,cs),
(174,607,ls),
(174,658,o),
(222,685,o),
(311,685,cs),
(400,685,o),
(447,658,o),
(447,607,cs),
(447,553,ls),
(447,538,o),
(461,530,o),
(487,530,cs),
(513,530,o),
(527,538,o),
(527,553,cs),
(527,597,ls),
(527,699,o),
(451,755,o),
(311,755,cs),
(171,755,o),
(94,699,o),
(94,597,cs),
(94,520,ls),
(94,409,o),
(127,373,o),
(252,344,cs),
(341,324,ls),
(432,303,o),
(457,286,o),
(457,246,cs),
(457,133,ls),
(457,84,o),
(400,55,o),
(306,55,cs),
(214,55,o),
(160,84,o),
(160,133,cs,{
name = hr01;
}),
(160,187,ls),
(160,202,o),
(146,210,o),
(120,210,cs),
(94,210,o),
(80,202,o),
(80,187,cs),
(80,143,ls),
(80,43,o),
(162,-15,o),
(306,-15,c)
);
}
);
};
layerId = master01;
shapes = (
{
closed = 1;
nodes = (
(452,-15,o),
(537,43,o),
(537,143,cs),
(537,238,ls),
(537,324,o),
(501,360,o),
(382,387,cs),
(252,416,ls),
(190,430,o),
(174,451,o),
(174,522,cs),
(174,607,ls),
(174,658,o),
(222,685,o),
(311,685,cs),
(400,685,o),
(447,658,o),
(447,607,cs),
(447,553,ls),
(447,538,o),
(461,530,o),
(487,530,cs),
(513,530,o),
(527,538,o),
(527,553,cs),
(527,597,ls),
(527,699,o),
(451,755,o),
(311,755,cs),
(171,755,o),
(94,699,o),
(94,597,cs),
(94,520,ls),
(94,409,o),
(127,372,o),
(252,344,cs),
(341,324,ls),
(432,304,o),
(457,286,o),
(457,246,cs),
(457,133,ls),
(457,84,o),
(400,55,o),
(306,55,cs),
(214,55,o),
(160,84,o),
(160,133,cs,{
name = hr01;
}),
(160,187,ls),
(160,202,o),
(146,210,o),
(120,210,cs),
(94,210,o),
(80,202,o),
(80,187,cs),
(80,143,ls),
(80,43,o),
(162,-15,o),
(306,-15,c)
);
}
);
width = 617;
}
);
unicode = 83;
},
{
glyphname = Sacute;
lastChange = "2023-02-02 14:00:34 +0000";
layers = (
{
background = {
shapes = (
{
closed = 1;
nodes = (
(452,-15,o),
(537,43,o),
(537,143,cs),
(537,238,ls),
(537,324,o),
(501,360,o),
(382,387,cs),
(252,416,ls),
(190,429,o),
(174,451,o),
(174,522,cs),
(174,607,ls),
(174,658,o),
(222,685,o),
(311,685,cs),
(400,685,o),
(447,658,o),
(447,607,cs),
(447,553,ls),
(447,538,o),
(461,530,o),
(487,530,cs),
(513,530,o),
(527,538,o),
(527,553,cs),
(527,597,ls),
(527,699,o),
(451,755,o),
(311,755,cs),
(171,755,o),
(94,699,o),
(94,597,cs),
(94,520,ls),
(94,409,o),
(127,373,o),
(252,344,cs),
(341,324,ls),
(432,303,o),
(457,286,o),
(457,246,cs),
(457,133,ls),
(457,84,o),
(400,55,o),
(306,55,cs),
(214,55,o),
(160,84,o),
(160,133,cs,{
name = hr01;
}),
(160,187,ls),
(160,202,o),
(146,210,o),
(120,210,cs),
(94,210,o),
(80,202,o),
(80,187,cs),
(80,143,ls),
(80,43,o),
(162,-15,o),
(306,-15,c)
);
},
{
closed = 1;
nodes = (
(253,807,o),
(255,808,o),
(269,814,cs),
(445,898,ls),
(453,902,o),
(456,907,o),
(456,918,cs),
(456,944,o),
(428,986,o),
(410,986,cs),
(404,986,o),
(401,985,o),
(397,982,cs),
(231,868,ls),
(223,863,o),
(221,859,o),
(221,853,cs),
(221,837,o),
(241,807,o),
(251,807,c,{
name = hr00;
})
);
}
);
};
layerId = master01;
shapes = (
{
ref = S;
},
{
pos = (151,0);
ref = acutecomb.case;
}
);
width = 617;
}
);
unicode = 346;
},
{
glyphname = Scaron;
lastChange = "2023-02-02 14:00:34 +0000";
layers = (
{
background = {
shapes = (
{
closed = 1;
nodes = (
(452,-15,o),
(537,43,o),
(537,143,cs),
(537,238,ls),
(537,324,o),
(501,360,o),
(382,387,cs),
(252,416,ls),
(190,429,o),
(174,451,o),
(174,522,cs),
(174,607,ls),
(174,658,o),
(222,685,o),
(311,685,cs),
(400,685,o),
(447,658,o),
(447,607,cs),
(447,553,ls),
(447,538,o),
(461,530,o),
(487,530,cs),
(513,530,o),
(527,538,o),
(527,553,cs),
(527,597,ls),
(527,699,o),
(451,755,o),
(311,755,cs),
(171,755,o),
(94,699,o),
(94,597,cs),
(94,520,ls),
(94,409,o),
(127,373,o),
(252,344,cs),
(341,324,ls),
(432,303,o),
(457,286,o),
(457,246,cs),
(457,133,ls),
(457,84,o),
(400,55,o),
(306,55,cs),
(214,55,o),
(160,84,o),
(160,133,cs,{
name = hr01;
}),
(160,187,ls),
(160,202,o),
(146,210,o),
(120,210,cs),
(94,210,o),
(80,202,o),
(80,187,cs),
(80,143,ls),
(80,43,o),
(162,-15,o),
(306,-15,c)
);
},
{
closed = 1;
nodes = (
(316,802,o),
(321,804,o),
(323,806,cs),
(443,922,ls),
(448,927,o),
(450,932,o),
(450,937,cs),
(450,955,o),
(431,981,o),
(418,981,cs),
(416,981,o),
(414,980,o),
(411,978,cs),
(308,902,l),
(205,978,ls),
(201,980,o),
(200,981,o),
(198,981,cs),
(185,981,o),
(166,955,o),
(166,937,cs),
(166,932,o),
(168,927,o),
(173,922,cs),
(293,806,ls),
(295,804,o),
(300,802,o),
(303,802,c),
(314,802,l,{
name = hr00;
})
);
}
);
};
layerId = master01;
shapes = (
{
ref = S;
},
{
pos = (77,0);
ref = caroncomb.case;
}
);
width = 617;
}
);
unicode = 352;
},
{
glyphname = Scedilla;
lastChange = "2023-02-02 14:00:37 +0000";
layers = (
{
background = {
shapes = (
{
closed = 1;
nodes = (
(452,-15,o),
(537,43,o),
(537,143,cs),
(537,238,ls),
(537,324,o),
(501,360,o),
(382,387,cs),
(252,416,ls),
(190,429,o),
(174,451,o),
(174,522,cs),
(174,607,ls),
(174,658,o),
(222,685,o),
(311,685,cs),
(400,685,o),
(447,658,o),
(447,607,cs),
(447,553,ls),
(447,538,o),
(461,530,o),
(487,530,cs),
(513,530,o),
(527,538,o),
(527,553,cs),
(527,597,ls),
(527,699,o),
(451,755,o),
(311,755,cs),
(171,755,o),
(94,699,o),
(94,597,cs),
(94,520,ls),
(94,409,o),
(127,373,o),
(252,344,cs),
(341,324,ls),
(432,303,o),
(457,286,o),
(457,246,cs),
(457,133,ls),
(457,84,o),
(400,55,o),
(306,55,cs),
(214,55,o),
(160,84,o),
(160,133,cs,{
name = hr01;
}),
(160,187,ls),
(160,202,o),
(146,210,o),
(120,210,cs),
(94,210,o),
(80,202,o),
(80,187,cs),
(80,143,ls),
(80,43,o),
(162,-15,o),
(306,-15,c)
);
},
{
closed = 1;
nodes = (
(250,-157,o),
(273,-164,o),
(298,-164,cs),
(322,-164,o),
(347,-156,o),
(347,-134,cs),
(347,-109,ls),
(347,-77,o),
(333,-70,o),
(293,-70,c),
(293,-34,l),
(367,-34,o),
(414,-43,o),
(414,-108,cs),
(414,-130,ls),
(414,-191,o),
(357,-222,o),
(297,-222,cs),
(237,-222,o),
(183,-191,o),
(183,-130,cs),
(183,-117,ls),
(183,-102,o),
(198,-96,o),
(216,-96,cs),
(236,-96,o),
(250,-102,o),
(250,-117,cs),
(250,-135,ls,{
name = hr00;
})
);
}
);
};
layerId = master01;
shapes = (
{
ref = S;
},
{
pos = (1,0);
ref = cedillacomb;
}
);
width = 617;
}
);
unicode = 350;
},
{
glyphname = Scircumflex;
lastChange = "2023-02-02 14:00:34 +0000";
layers = (
{
background = {
shapes = (
{
closed = 1;
nodes = (
(452,-15,o),
(537,43,o),
(537,143,cs),
(537,238,ls),
(537,324,o),
(501,360,o),
(382,387,cs),
(252,416,ls),
(190,429,o),
(174,451,o),
(174,522,cs),
(174,607,ls),
(174,658,o),
(222,685,o),
(311,685,cs),
(400,685,o),
(447,658,o),
(447,607,cs),
(447,553,ls),
(447,538,o),
(461,530,o),
(487,530,cs),
(513,530,o),
(527,538,o),
(527,553,cs),
(527,597,ls),
(527,699,o),
(451,755,o),
(311,755,cs),
(171,755,o),
(94,699,o),
(94,597,cs),
(94,520,ls),
(94,409,o),
(127,373,o),
(252,344,cs),
(341,324,ls),
(432,303,o),
(457,286,o),
(457,246,cs),
(457,133,ls),
(457,84,o),
(400,55,o),
(306,55,cs),
(214,55,o),
(160,84,o),
(160,133,cs,{
name = hr01;
}),
(160,187,ls),
(160,202,o),
(146,210,o),
(120,210,cs),
(94,210,o),
(80,202,o),
(80,187,cs),
(80,143,ls),
(80,43,o),
(162,-15,o),
(306,-15,c)
);
},
{
closed = 1;
nodes = (
(311,986,o),
(306,985,o),
(303,982,cs),
(183,866,ls),
(177,860,o),
(176,855,o),
(176,851,cs),
(176,833,o),
(195,807,o),
(208,807,cs),
(210,807,o),
(212,808,o),
(215,810,cs),
(318,886,l),
(421,810,ls),
(424,808,o),
(426,807,o),
(428,807,cs),
(441,807,o),
(460,833,o),
(460,851,cs),
(460,855,o),
(459,860,o),
(453,866,cs),
(333,982,ls),
(330,985,o),
(325,986,o),
(324,986,cs),
(313,986,l,{
name = hr00;
})
);
}
);
};
layerId = master01;
shapes = (
{
ref = S;
},
{
pos = (77,0);
ref = circumflexcomb.case;
}
);
width = 617;
}
);
unicode = 348;
},
{
glyphname = Scommaaccent;
lastChange = "2023-02-02 14:00:37 +0000";
layers = (
{
background = {
shapes = (
{
closed = 1;
nodes = (
(452,-15,o),
(537,43,o),
(537,143,cs),
(537,238,ls),
(537,324,o),
(501,360,o),
(382,387,cs),
(252,416,ls),
(190,429,o),
(174,451,o),
(174,522,cs),
(174,607,ls),
(174,658,o),
(222,685,o),
(311,685,cs),
(400,685,o),
(447,658,o),
(447,607,cs),
(447,553,ls),
(447,538,o),
(461,530,o),
(487,530,cs),
(513,530,o),
(527,538,o),
(527,553,cs),
(527,597,ls),
(527,699,o),
(451,755,o),
(311,755,cs),
(171,755,o),
(94,699,o),
(94,597,cs),
(94,520,ls),
(94,409,o),
(127,373,o),
(252,344,cs),
(341,324,ls),
(432,303,o),
(457,286,o),
(457,246,cs),
(457,133,ls),
(457,84,o),
(400,55,o),
(306,55,cs),
(214,55,o),
(160,84,o),
(160,133,cs,{
name = hr01;
}),
(160,187,ls),
(160,202,o),
(146,210,o),
(120,210,cs),
(94,210,o),
(80,202,o),
(80,187,cs),
(80,143,ls),
(80,43,o),
(162,-15,o),
(306,-15,c)
);
},
{
closed = 1;
nodes = (
(321,-257,o),
(327,-254,o),
(329,-248,cs),
(334,-234,ls),
(345,-198,o),
(351,-172,o),
(351,-155,cs),
(351,-64,ls),
(351,-46,o),
(333,-40,o),
(308,-40,cs),
(284,-40,o),
(266,-46,o),
(266,-64,cs),
(266,-116,ls),
(266,-140,o),
(290,-152,o),
(290,-174,cs,{
name = hr01;
}),
(290,-182,o),
(287,-190,o),
(284,-199,cs),
(274,-225,ls),
(272,-230,o),
(272,-232,o),
(272,-234,cs),
(272,-243,o),
(297,-257,o),
(314,-257,cs)
);
}
);
};
layerId = master01;
shapes = (
{
ref = S;
},
{
pos = (198,0);
ref = commaaccentcomb;
}
);
width = 617;
}
);
unicode = 536;
},
{
glyphname = T;
kernLeft = T;
kernRight = T;
lastChange = "2023-02-02 14:42:17 +0000";
layers = (
{
anchors = (
{
name = bottom;
pos = (250,0);
},
{
name = center;
pos = (250,370);
},
{
name = top;
pos = (250,740);
}
);
background = {
shapes = (
{
closed = 1;
nodes = (
(27,740,o),
(20,728,o),
(20,705,cs),
(20,682,o),
(27,670,o),
(40,670,cs),
(210,670,l),
(210,18,ls),
(210,3,o),
(224,-5,o),
(250,-5,cs),
(276,-5,o),
(290,3,o),
(290,18,cs),
(290,670,l),
(460,670,ls),
(473,670,o),
(480,682,o),
(480,705,cs),
(480,728,o),
(473,740,o),
(460,740,cs),
(40,740,ls,{
name = hr00;
})
);
}
);
};
layerId = master01;
shapes = (
{
closed = 1;
nodes = (
(27,740,o),
(20,728,o),
(20,705,cs),
(20,682,o),
(27,670,o),
(40,670,cs),
(210,670,l),
(210,18,ls),
(210,3,o),
(224,-5,o),
(250,-5,cs),
(276,-5,o),
(290,3,o),
(290,18,cs),
(290,670,l),
(460,670,ls),
(473,670,o),
(480,682,o),
(480,705,cs),
(480,728,o),
(473,740,o),
(460,740,cs),
(40,740,ls,{
name = hr00;
})
);
}
);
width = 500;
}
);
unicode = 84;
},
{
glyphname = Tbar;
kernLeft = T;
kernRight = T;
lastChange = "2023-02-02 14:42:17 +0000";
layers = (
{
background = {
shapes = (
{
closed = 1;
nodes = (
(27,740,o),
(20,728,o),
(20,705,cs),
(20,682,o),
(27,670,o),
(40,670,cs),
(210,670,l),
(210,18,ls),
(210,3,o),
(224,-5,o),
(250,-5,cs),
(276,-5,o),
(290,3,o),
(290,18,cs),
(290,670,l),
(460,670,ls),
(473,670,o),
(480,682,o),
(480,705,cs),
(480,728,o),
(473,740,o),
(460,740,cs),
(40,740,ls,{
name = hr00;
})
);
},
{
closed = 1;
nodes = (
(71,408,o),
(66,395,o),
(66,377,cs),
(66,360,o),
(71,345,o),
(84,345,cs),
(417,345,ls),
(430,345,o),
(435,359,o),
(435,377,cs),
(435,394,o),
(430,408,o),
(417,408,cs),
(84,408,ls,{
name = hr00;
})
);
}
);
};
layerId = master01;
shapes = (
{
alignment = -1;
ref = T;
},
{
closed = 1;
nodes = (
(71,408,o),
(66,395,o),
(66,377,cs),
(66,360,o),
(71,345,o),
(84,345,cs),
(417,345,ls),
(430,345,o),
(435,359,o),
(435,377,cs),
(435,394,o),
(430,408,o),
(417,408,cs),
(84,408,ls,{
name = hr00;
})
);
}
);
width = 500;
}
);
unicode = 358;
},
{
glyphname = Tcaron;
kernLeft = T;
kernRight = T;
lastChange = "2023-02-02 14:42:17 +0000";
layers = (
{
background = {
shapes = (
{
closed = 1;
nodes = (
(27,740,o),
(20,728,o),
(20,705,cs),
(20,682,o),
(27,670,o),
(40,670,cs),
(210,670,l),
(210,18,ls),
(210,3,o),
(224,-5,o),
(250,-5,cs),
(276,-5,o),
(290,3,o),
(290,18,cs),
(290,670,l),
(460,670,ls),
(473,670,o),
(480,682,o),
(480,705,cs),
(480,728,o),
(473,740,o),
(460,740,cs),
(40,740,ls,{
name = hr00;
})
);
},
{
closed = 1;
nodes = (
(258,802,o),
(263,804,o),
(265,806,cs),
(385,922,ls),
(390,927,o),
(392,932,o),
(392,937,cs),
(392,955,o),
(373,981,o),
(360,981,cs),
(358,981,o),
(356,980,o),
(353,978,cs),
(250,902,l),
(147,978,ls),
(143,980,o),
(142,981,o),
(140,981,cs),
(127,981,o),
(108,955,o),
(108,937,cs),
(108,932,o),
(110,927,o),
(115,922,cs),
(235,806,ls),
(237,804,o),
(242,802,o),
(245,802,c),
(256,802,l,{
name = hr00;
})
);
}
);
};
layerId = master01;
shapes = (
{
ref = T;
},
{
pos = (8,0);
ref = caroncomb.case;
}
);
width = 500;
}
);
unicode = 356;
},
{
glyphname = Tcedilla;
kernLeft = T;
kernRight = T;
lastChange = "2023-02-02 14:42:17 +0000";
layers = (
{
background = {
shapes = (
{
closed = 1;
nodes = (
(27,740,o),
(20,728,o),
(20,705,cs),
(20,682,o),
(27,670,o),
(40,670,cs),
(210,670,l),
(210,18,ls),
(210,3,o),
(224,-5,o),
(250,-5,cs),
(276,-5,o),
(290,3,o),
(290,18,cs),
(290,670,l),
(460,670,ls),
(473,670,o),
(480,682,o),
(480,705,cs),
(480,728,o),
(473,740,o),
(460,740,cs),
(40,740,ls,{
name = hr00;
})
);
},
{
closed = 1;
nodes = (
(202,-157,o),
(225,-164,o),
(250,-164,cs),
(274,-164,o),
(299,-156,o),
(299,-134,cs),
(299,-109,ls),
(299,-77,o),
(285,-70,o),
(245,-70,c),
(245,-34,l),
(319,-34,o),
(366,-43,o),
(366,-108,cs),
(366,-130,ls),
(366,-191,o),
(309,-222,o),
(249,-222,cs),
(189,-222,o),
(135,-191,o),
(135,-130,cs),
(135,-117,ls),
(135,-102,o),
(150,-96,o),
(168,-96,cs),
(188,-96,o),
(202,-102,o),
(202,-117,cs),
(202,-135,ls,{
name = hr00;
})
);
}
);
};
layerId = master01;
shapes = (
{
ref = T;
},
{
pos = (-48,0);
ref = cedillacomb;
}
);
width = 500;
}
);
unicode = 354;
},
{
glyphname = Tcommaaccent;
kernLeft = T;
kernRight = T;
lastChange = "2023-02-02 14:42:17 +0000";
layers = (
{
background = {
shapes = (
{
closed = 1;
nodes = (
(27,740,o),
(20,728,o),
(20,705,cs),
(20,682,o),
(27,670,o),
(40,670,cs),
(210,670,l),
(210,18,ls),
(210,3,o),
(224,-5,o),
(250,-5,cs),
(276,-5,o),
(290,3,o),
(290,18,cs),
(290,670,l),
(460,670,ls),
(473,670,o),
(480,682,o),
(480,705,cs),
(480,728,o),
(473,740,o),
(460,740,cs),
(40,740,ls,{
name = hr00;
})
);
},
{
closed = 1;
nodes = (
(264,-257,o),
(270,-254,o),
(272,-248,cs),
(277,-234,ls),
(288,-198,o),
(294,-172,o),
(294,-155,cs),
(294,-64,ls),
(294,-46,o),
(276,-40,o),
(251,-40,cs),
(227,-40,o),
(209,-46,o),
(209,-64,cs),
(209,-116,ls),
(209,-140,o),
(233,-152,o),
(233,-174,cs,{
name = hr01;
}),
(233,-182,o),
(230,-190,o),
(227,-199,cs),
(217,-225,ls),
(215,-230,o),
(215,-232,o),
(215,-234,cs),
(215,-243,o),
(240,-257,o),
(257,-257,cs)
);
}
);
};
layerId = master01;
shapes = (
{
ref = T;
},
{
pos = (149,0);
ref = commaaccentcomb;
}
);
width = 500;
}
);
unicode = 538;
},
{
glyphname = U;
lastChange = "2023-02-02 14:01:09 +0000";
layers = (
{
anchors = (
{
name = bottom;
pos = (342,0);
},
{
name = ogonek;
pos = (467,37);
},
{
name = top;
pos = (342,740);
},
{
name = topright;
pos = (663,740);
}
);
background = {
shapes = (
{
closed = 1;
nodes = (
(189,737,o),
(175,745,o),
(149,745,cs),
(124,745,o),
(110,737,o),
(110,722,cs),
(110,143,ls),
(110,39,o),
(189,-15,o),
(338,-15,cs),
(490,-15,o),
(573,41,o),
(573,143,cs),
(573,722,ls),
(573,737,o),
(559,745,o),
(533,745,cs),
(507,745,o),
(493,737,o),
(493,722,cs),
(493,133,ls),
(493,82,o),
(439,55,o),
(338,55,cs),
(240,55,o),
(190,81,o),
(190,133,cs),
(189,722,l,{
name = hr00;
})
);
}
);
};
layerId = master01;
shapes = (
{
closed = 1;
nodes = (
(190,737,o),
(175,745,o),
(149,745,cs),
(124,745,o),
(110,737,o),
(110,722,cs),
(110,143,ls),
(110,39,o),
(189,-15,o),
(338,-15,cs),
(490,-15,o),
(573,41,o),
(573,143,cs),
(573,722,ls),
(573,737,o),
(559,745,o),
(533,745,cs),
(507,745,o),
(493,737,o),
(493,722,cs),
(493,133,ls),
(493,82,o),
(439,55,o),
(338,55,cs),
(240,55,o),
(190,81,o),
(190,133,cs),
(190,722,ls,{
name = hr00;
})
);
}
);
width = 683;
}
);
unicode = 85;
},
{
glyphname = Uacute;
lastChange = "2023-02-02 13:54:17 +0000";
layers = (
{
background = {
shapes = (
{
closed = 1;
nodes = (
(189,737,o),
(175,745,o),
(149,745,cs),
(124,745,o),
(110,737,o),
(110,722,cs),
(110,143,ls),
(110,39,o),
(189,-15,o),
(338,-15,cs),
(490,-15,o),
(573,41,o),
(573,143,cs),
(573,722,ls),
(573,737,o),
(559,745,o),
(533,745,cs),
(507,745,o),
(493,737,o),
(493,722,cs),
(493,133,ls),
(493,82,o),
(439,55,o),
(338,55,cs),
(240,55,o),
(190,81,o),
(190,133,cs),
(189,722,l,{
name = hr00;
})
);
},
{
closed = 1;
nodes = (
(256,807,o),
(258,808,o),
(272,814,cs),
(448,898,ls),
(456,902,o),
(459,907,o),
(459,918,cs),
(459,944,o),
(431,986,o),
(413,986,cs),
(407,986,o),
(404,985,o),
(400,982,cs),
(234,868,ls),
(226,863,o),
(224,859,o),
(224,853,cs),
(224,837,o),
(244,807,o),
(254,807,cs,{
name = hr00;
})
);
}
);
};
layerId = master01;
shapes = (
{
ref = U;
},
{
pos = (174,0);
ref = acutecomb.case;
}
);
width = 683;
}
);
unicode = 218;
},
{
glyphname = Ubreve;
lastChange = "2023-02-02 13:54:17 +0000";
layers = (
{
background = {
shapes = (
{
closed = 1;
nodes = (
(189,737,o),
(175,745,o),
(149,745,cs),
(124,745,o),
(110,737,o),
(110,722,cs),
(110,143,ls),
(110,39,o),
(189,-15,o),
(338,-15,cs),
(490,-15,o),
(573,41,o),
(573,143,cs),
(573,722,ls),
(573,737,o),
(559,745,o),
(533,745,cs),
(507,745,o),
(493,737,o),
(493,722,cs),
(493,133,ls),
(493,82,o),
(439,55,o),
(338,55,cs),
(240,55,o),
(190,81,o),
(190,133,cs),
(189,722,l,{
name = hr00;
})
);
},
{
closed = 1;
nodes = (
(290,949,o),
(273,954,o),
(254,954,cs),
(235,954,o),
(219,949,o),
(219,934,cs),
(219,909,ls),
(219,848,o),
(251,817,o),
(339,817,cs),
(426,817,o),
(463,848,o),
(463,909,cs),
(463,934,ls),
(463,949,o),
(446,954,o),
(427,954,cs),
(408,954,o),
(392,949,o),
(392,934,cs),
(392,910,ls),
(392,888,o),
(366,880,o),
(340,880,cs),
(312,880,o),
(290,887,o),
(290,909,cs),
(290,934,ls,{
name = hr00;
})
);
}
);
};
layerId = master01;
shapes = (
{
ref = U;
},
{
pos = (170,0);
ref = brevecomb.case;
}
);
width = 683;
}
);
unicode = 364;
},
{
glyphname = Ucircumflex;
lastChange = "2023-02-02 13:54:17 +0000";
layers = (
{
background = {
shapes = (
{
closed = 1;
nodes = (
(189,737,o),
(175,745,o),
(149,745,cs),
(124,745,o),
(110,737,o),
(110,722,cs),
(110,143,ls),
(110,39,o),
(189,-15,o),
(338,-15,cs),
(490,-15,o),
(573,41,o),
(573,143,cs),
(573,722,ls),
(573,737,o),
(559,745,o),
(533,745,cs),
(507,745,o),
(493,737,o),
(493,722,cs),
(493,133,ls),
(493,82,o),
(439,55,o),
(338,55,cs),
(240,55,o),
(190,81,o),
(190,133,cs),
(189,722,l,{
name = hr00;
})
);
},
{
closed = 1;
nodes = (
(333,986,o),
(328,984,o),
(326,982,cs),
(206,866,ls),
(201,861,o),
(199,856,o),
(199,851,cs),
(199,833,o),
(218,807,o),
(231,807,cs),
(233,807,o),
(234,808,o),
(238,810,cs),
(341,886,l),
(444,810,ls),
(447,808,o),
(449,807,o),
(451,807,cs),
(464,807,o),
(483,833,o),
(483,851,cs),
(483,856,o),
(481,861,o),
(476,866,cs),
(356,982,ls),
(354,984,o),
(349,986,o),
(347,986,cs),
(336,986,l,{
name = hr00;
})
);
}
);
};
layerId = master01;
shapes = (
{
ref = U;
},
{
pos = (100,0);
ref = circumflexcomb.case;
}
);
width = 683;
}
);
unicode = 219;
},
{
glyphname = Udieresis;
lastChange = "2023-02-02 13:54:17 +0000";
layers = (
{
background = {
shapes = (
{
closed = 1;
nodes = (
(189,737,o),
(175,745,o),
(149,745,cs),
(124,745,o),
(110,737,o),
(110,722,cs),
(110,143,ls),
(110,39,o),
(189,-15,o),
(338,-15,cs),
(490,-15,o),
(573,41,o),
(573,143,cs),
(573,722,ls),
(573,737,o),
(559,745,o),
(533,745,cs),
(507,745,o),
(493,737,o),
(493,722,cs),
(493,133,ls),
(493,82,o),
(439,55,o),
(338,55,cs),
(240,55,o),
(190,81,o),
(190,133,cs),
(189,722,l,{
name = hr00;
})
);
},
{
closed = 1;
nodes = (
(285,832,o),
(270,823,o),
(242,823,cs),
(213,823,o),
(198,831,o),
(198,848,cs),
(198,935,ls),
(198,951,o),
(213,960,o),
(241,960,cs),
(270,960,o),
(285,952,o),
(285,935,cs),
(285,848,ls,{
name = hr00;
})
);
},
{
closed = 1;
nodes = (
(485,832,o),
(470,823,o),
(442,823,cs),
(413,823,o),
(398,831,o),
(398,848,cs),
(398,935,ls),
(398,951,o),
(413,960,o),
(441,960,cs),
(470,960,o),
(485,952,o),
(485,935,cs),
(485,848,ls)
);
}
);
};
layerId = master01;
shapes = (
{
ref = U;
},
{
pos = (98,0);
ref = dieresiscomb.case;
}
);
width = 683;
}
);
unicode = 220;
},
{
glyphname = Ugrave;
lastChange = "2023-02-02 13:54:17 +0000";
layers = (
{
background = {
shapes = (
{
closed = 1;
nodes = (
(189,737,o),
(175,745,o),
(149,745,cs),
(124,745,o),
(110,737,o),
(110,722,cs),
(110,143,ls),
(110,39,o),
(189,-15,o),
(338,-15,cs),
(490,-15,o),
(573,41,o),
(573,143,cs),
(573,722,ls),
(573,737,o),
(559,745,o),
(533,745,cs),
(507,745,o),
(493,737,o),
(493,722,cs),
(493,133,ls),
(493,82,o),
(439,55,o),
(338,55,cs),
(240,55,o),
(190,81,o),
(190,133,cs),
(189,722,l,{
name = hr00;
})
);
},
{
closed = 1;
nodes = (
(439,807,o),
(459,837,o),
(459,853,cs),
(459,859,o),
(457,863,o),
(449,868,cs),
(283,982,ls),
(279,985,o),
(276,986,o),
(270,986,cs),
(252,986,o),
(224,944,o),
(224,918,cs),
(224,907,o),
(227,902,o),
(235,898,cs),
(411,814,ls),
(425,808,o),
(427,807,o),
(429,807,cs,{
name = hr00;
})
);
}
);
};
layerId = master01;
shapes = (
{
ref = U;
},
{
pos = (174,0);
ref = gravecomb.case;
}
);
width = 683;
}
);
unicode = 217;
},
{
glyphname = Uhungarumlaut;
lastChange = "2023-02-02 14:00:59 +0000";
layers = (
{
background = {
shapes = (
{
closed = 1;
nodes = (
(189,737,o),
(175,745,o),
(149,745,cs),
(124,745,o),
(110,737,o),
(110,722,cs),
(110,143,ls),
(110,39,o),
(189,-15,o),
(338,-15,cs),
(490,-15,o),
(573,41,o),
(573,143,cs),
(573,722,ls),
(573,737,o),
(559,745,o),
(533,745,cs),
(507,745,o),
(493,737,o),
(493,722,cs),
(493,133,ls),
(493,82,o),
(439,55,o),
(338,55,cs),
(240,55,o),
(190,81,o),
(190,133,cs),
(189,722,l,{
name = hr00;
})
);
},
{
closed = 1;
nodes = (
(164,861,o),
(163,857,o),
(163,853,cs),
(163,838,o),
(182,807,o),
(197,807,cs),
(201,807,o),
(204,809,o),
(215,815,cs),
(351,897,ls),
(358,901,o),
(360,907,o),
(360,912,cs),
(360,936,o),
(330,982,o),
(308,982,cs),
(303,982,o),
(299,980,o),
(296,977,cs),
(168,864,ls,{
name = hr00;
})
);
},
{
closed = 1;
nodes = (
(384,861,o),
(383,857,o),
(383,853,cs),
(383,838,o),
(402,807,o),
(417,807,cs),
(421,807,o),
(424,809,o),
(435,815,cs),
(571,897,ls),
(578,901,o),
(580,907,o),
(580,912,cs),
(580,936,o),
(550,982,o),
(528,982,cs),
(523,982,o),
(519,980,o),
(516,977,cs),
(388,864,ls)
);
}
);
};
layerId = master01;
shapes = (
{
ref = U;
},
{
pos = (83,0);
ref = hungarumlautcomb.case;
}
);
width = 683;
}
);
unicode = 368;
},
{
glyphname = Umacron;
lastChange = "2023-02-02 13:54:17 +0000";
layers = (
{
background = {
shapes = (
{
closed = 1;
nodes = (
(189,737,o),
(175,745,o),
(149,745,cs),
(124,745,o),
(110,737,o),
(110,722,cs),
(110,143,ls),
(110,39,o),
(189,-15,o),
(338,-15,cs),
(490,-15,o),
(573,41,o),
(573,143,cs),
(573,722,ls),
(573,737,o),
(559,745,o),
(533,745,cs),
(507,745,o),
(493,737,o),
(493,722,cs),
(493,133,ls),
(493,82,o),
(439,55,o),
(338,55,cs),
(240,55,o),
(190,81,o),
(190,133,cs),
(189,722,l,{
name = hr00;
})
);
},
{
closed = 1;
nodes = (
(193,927,o),
(188,911,o),
(188,889,cs),
(188,868,o),
(193,850,o),
(208,850,cs),
(475,850,ls),
(490,850,o),
(495,867,o),
(495,889,cs),
(495,910,o),
(490,927,o),
(475,927,cs),
(208,927,ls,{
name = hr00;
})
);
}
);
};
layerId = master01;
shapes = (
{
ref = U;
},
{
pos = (88,0);
ref = macroncomb.case;
}
);
width = 683;
}
);
unicode = 362;
},
{
glyphname = Uogonek;
lastChange = "2023-02-02 14:01:09 +0000";
layers = (
{
background = {
shapes = (
{
closed = 1;
nodes = (
(421,-222,o),
(467,-185,o),
(467,-130,cs),
(467,-117,ls),
(467,-104,o),
(455,-96,o),
(434,-96,cs),
(412,-96,o),
(400,-103,o),
(400,-117,cs),
(400,-135,ls),
(400,-154,o),
(383,-164,o),
(352,-164,cs),
(322,-164,o),
(303,-152,o),
(303,-134,cs),
(303,-109,ls),
(303,-74,o),
(316,-54,o),
(349,-41,cs),
(447,-2,ls),
(526,29,o),
(573,69,o),
(573,143,cs),
(573,722,ls),
(573,737,o),
(559,745,o),
(533,745,cs),
(507,745,o),
(493,737,o),
(493,722,cs),
(493,133,ls),
(493,82,o),
(439,55,o),
(338,55,cs),
(240,55,o),
(190,81,o),
(190,133,cs),
(190,722,ls),
(189,737,o),
(175,745,o),
(149,745,cs),
(124,745,o),
(110,737,o),
(110,722,cs),
(110,143,ls),
(110,46,o),
(178,-7,o),
(309,-14,c),
(249,-40,o),
(236,-60,o),
(236,-108,cs),
(236,-130,ls),
(236,-184,o),
(284,-222,o),
(353,-222,cs,{
name = hr00;
})
);
}
);
};
layerId = master01;
shapes = (
{
ref = U;
},
{
pos = (18,0);
ref = ogonekcomb;
}
);
width = 683;
}
);
unicode = 370;
},
{
glyphname = Uring;
lastChange = "2023-02-02 13:54:17 +0000";
layers = (
{
background = {
shapes = (
{
closed = 1;
nodes = (
(189,737,o),
(175,745,o),
(149,745,cs),
(124,745,o),
(110,737,o),
(110,722,cs),
(110,143,ls),
(110,39,o),
(189,-15,o),
(338,-15,cs),
(490,-15,o),
(573,41,o),
(573,143,cs),
(573,722,ls),
(573,737,o),
(559,745,o),
(533,745,cs),
(507,745,o),
(493,737,o),
(493,722,cs),
(493,133,ls),
(493,82,o),
(439,55,o),
(338,55,cs),
(240,55,o),
(190,81,o),
(190,133,cs),
(189,722,l,{
name = hr00;
})
);
},
{
closed = 1;
nodes = (
(452,968,o),
(419,996,o),
(343,996,cs),
(266,996,o),
(231,967,o),
(231,904,cs),
(231,879,ls),
(231,815,o),
(264,787,o),
(340,787,cs),
(417,787,o),
(452,816,o),
(452,879,cs),
(452,904,l,{
name = hr00;
})
);
},
{
closed = 1;
nodes = (
(293,931,o),
(312,943,o),
(342,943,cs),
(373,943,o),
(390,933,o),
(390,914,cs),
(390,870,ls),
(390,852,o),
(371,840,o),
(341,840,cs),
(310,840,o),
(293,850,o),
(293,869,cs),
(293,913,l)
);
}
);
};
layerId = master01;
shapes = (
{
ref = U;
},
{
pos = (198,0);
ref = ringcomb.case;
}
);
width = 683;
}
);
unicode = 366;
},
{
glyphname = Utilde;
lastChange = "2023-02-02 13:54:17 +0000";
layers = (
{
background = {
shapes = (
{
closed = 1;
nodes = (
(189,737,o),
(175,745,o),
(149,745,cs),
(124,745,o),
(110,737,o),
(110,722,cs),
(110,143,ls),
(110,39,o),
(189,-15,o),
(338,-15,cs),
(490,-15,o),
(573,41,o),
(573,143,cs),
(573,722,ls),
(573,737,o),
(559,745,o),
(533,745,cs),
(507,745,o),
(493,737,o),
(493,722,cs),
(493,133,ls),
(493,82,o),
(439,55,o),
(338,55,cs),
(240,55,o),
(190,81,o),
(190,133,cs),
(189,722,l,{
name = hr00;
})
);
},
{
closed = 1;
nodes = (
(263,950,o),
(255,952,o),
(248,952,cs),
(211,952,o),
(183,919,o),
(183,843,cs),
(183,831,o),
(198,827,o),
(218,827,cs),
(237,827,o),
(253,832,o),
(253,847,cs),
(253,865,o),
(258,872,o),
(266,872,cs),
(268,872,o),
(269,871,o),
(271,871,cs),
(412,832,ls),
(420,830,o),
(427,829,o),
(434,829,cs),
(471,829,o),
(500,861,o),
(500,937,cs),
(500,949,o),
(485,953,o),
(465,953,cs,{
name = hr01;
}),
(446,953,o),
(430,948,o),
(430,933,cs),
(430,916,o),
(426,908,o),
(418,908,cs),
(416,908,o),
(414,908,o),
(412,909,cs),
(271,948,l)
);
}
);
};
layerId = master01;
shapes = (
{
ref = U;
},
{
pos = (83,0);
ref = tildecomb.case;
}
);
width = 683;
}
);
unicode = 360;
},
{
glyphname = V;
lastChange = "2023-02-02 13:49:55 +0000";
layers = (
{
anchors = (
{
name = bottom;
pos = (318,0);
},
{
name = top;
pos = (318,740);
}
);
background = {
shapes = (
{
closed = 1;
nodes = (
(417,-15,o),
(456,18,o),
(475,122,cs),
(585,725,ls),
(586,738,o),
(573,745,o),
(547,745,cs),
(521,745,o),
(508,737,o),
(505,722,cs),
(397,133,ls),
(386,72,o),
(369,55,o),
(318,55,cs),
(267,55,o),
(250,73,o),
(239,133,cs),
(131,722,ls),
(128,738,o),
(114,745,o),
(89,745,cs),
(63,745,o),
(49,738,o),
(51,725,cs),
(161,122,ls),
(180,19,o),
(219,-15,o),
(318,-15,cs,{
name = hr00;
})
);
}
);
};
layerId = master01;
shapes = (
{
closed = 1;
nodes = (
(417,-15,o),
(456,18,o),
(475,122,cs),
(585,725,ls),
(586,738,o),
(573,745,o),
(547,745,cs),
(521,745,o),
(508,737,o),
(505,722,cs),
(397,133,ls),
(386,72,o),
(369,55,o),
(318,55,cs),
(267,55,o),
(250,73,o),
(239,133,cs),
(131,722,ls),
(128,738,o),
(114,745,o),
(89,745,cs),
(63,745,o),
(49,738,o),
(51,725,cs),
(161,122,ls),
(180,19,o),
(219,-15,o),
(318,-15,cs,{
name = hr00;
})
);
}
);
width = 636;
}
);
unicode = 86;
},
{
glyphname = W;
kernLeft = W;
kernRight = W;
lastChange = "2023-02-02 14:42:35 +0000";
layers = (
{
anchors = (
{
name = bottom;
pos = (492,0);
},
{
name = top;
pos = (492,740);
}
);
background = {
shapes = (
{
closed = 1;
nodes = (
(530,647,o),
(517,654,o),
(492,654,cs),
(467,654,o),
(453,646,o),
(452,631,cs),
(390,133,ls),
(382,76,o),
(360,55,o),
(307,55,cs),
(254,55,o),
(236,74,o),
(228,133,cs),
(150,722,ls),
(147,738,o),
(133,745,o),
(108,745,cs),
(84,745,o),
(70,738,o),
(70,727,cs),
(71,728,o),
(71,726,o),
(70,725,c),
(150,122,ls),
(162,22,o),
(204,-15,o),
(307,-15,cs),
(410,-15,o),
(454,23,o),
(464,122,cs),
(487,368,l),
(497,368,l),
(520,122,ls),
(528,24,o),
(572,-15,o),
(677,-15,cs),
(776,-15,o),
(814,18,o),
(834,122,cs),
(914,725,l),
(915,726,o),
(915,728,o),
(914,727,cs),
(914,738,o),
(900,745,o),
(876,745,cs),
(850,745,o),
(837,737,o),
(834,722,cs),
(756,133,ls),
(744,72,o),
(727,55,o),
(677,55,cs),
(623,55,o),
(601,76,o),
(594,133,cs),
(532,631,ls,{
name = hr00;
})
);
}
);
};
layerId = master01;
shapes = (
{
closed = 1;
nodes = (
(530,647,o),
(517,654,o),
(492,654,cs),
(467,654,o),
(453,646,o),
(452,631,cs),
(390,133,ls),
(382,76,o),
(360,55,o),
(307,55,cs),
(254,55,o),
(236,74,o),
(228,133,cs),
(150,722,ls),
(147,738,o),
(133,745,o),
(108,745,cs),
(84,745,o),
(70,738,o),
(70,727,cs),
(71,728,o),
(71,726,o),
(70,725,c),
(150,122,ls),
(162,22,o),
(204,-15,o),
(307,-15,cs),
(410,-15,o),
(454,23,o),
(464,122,cs),
(487,368,l),
(497,368,l),
(520,122,ls),
(528,24,o),
(572,-15,o),
(677,-15,cs),
(776,-15,o),
(814,18,o),
(834,122,cs),
(914,725,l),
(915,726,o),
(915,728,o),
(914,727,cs),
(914,738,o),
(900,745,o),
(876,745,cs),
(850,745,o),
(837,737,o),
(834,722,cs),
(756,133,ls),
(744,72,o),
(727,55,o),
(677,55,cs),
(623,55,o),
(601,76,o),
(594,133,cs),
(532,631,ls,{
name = hr00;
})
);
}
);
width = 984;
}
);
unicode = 87;
},
{
glyphname = Wacute;
kernLeft = W;
kernRight = W;
lastChange = "2023-02-02 14:42:35 +0000";
layers = (
{
background = {
shapes = (
{
closed = 1;
nodes = (
(530,647,o),
(517,654,o),
(492,654,cs),
(467,654,o),
(453,646,o),
(452,631,cs),
(390,133,ls),
(382,76,o),
(360,55,o),
(307,55,cs),
(254,55,o),
(236,74,o),
(228,133,cs),
(150,722,ls),
(147,738,o),
(133,745,o),
(108,745,cs),
(84,745,o),
(70,738,o),
(70,727,cs),
(71,728,o),
(71,726,o),
(70,725,c),
(150,122,ls),
(162,22,o),
(204,-15,o),
(307,-15,cs),
(410,-15,o),
(454,23,o),
(464,122,cs),
(487,368,l),
(497,368,l),
(520,122,ls),
(528,24,o),
(572,-15,o),
(677,-15,cs),
(776,-15,o),
(814,18,o),
(834,122,cs),
(914,725,l),
(915,726,o),
(915,728,o),
(914,727,cs),
(914,738,o),
(900,745,o),
(876,745,cs),
(850,745,o),
(837,737,o),
(834,722,cs),
(756,133,ls),
(744,72,o),
(727,55,o),
(677,55,cs),
(623,55,o),
(601,76,o),
(594,133,cs),
(532,631,ls,{
name = hr00;
})
);
},
{
closed = 1;
nodes = (
(406,807,o),
(408,808,o),
(422,814,cs),
(598,898,ls),
(606,902,o),
(609,907,o),
(609,918,cs),
(609,944,o),
(581,986,o),
(563,986,cs),
(557,986,o),
(554,985,o),
(550,982,cs),
(384,868,ls),
(376,863,o),
(374,859,o),
(374,853,cs),
(374,837,o),
(394,807,o),
(404,807,c,{
name = hr00;
})
);
}
);
};
layerId = master01;
shapes = (
{
ref = W;
},
{
pos = (324,0);
ref = acutecomb.case;
}
);
width = 984;
}
);
unicode = 7810;
},
{
glyphname = Wcircumflex;
kernLeft = W;
kernRight = W;
lastChange = "2023-02-02 14:42:35 +0000";
layers = (
{
background = {
shapes = (
{
closed = 1;
nodes = (
(530,647,o),
(517,654,o),
(492,654,cs),
(467,654,o),
(453,646,o),
(452,631,cs),
(390,133,ls),
(382,76,o),
(360,55,o),
(307,55,cs),
(254,55,o),
(236,74,o),
(228,133,cs),
(150,722,ls),
(147,738,o),
(133,745,o),
(108,745,cs),
(84,745,o),
(70,738,o),
(70,727,cs),
(71,728,o),
(71,726,o),
(70,725,c),
(150,122,ls),
(162,22,o),
(204,-15,o),
(307,-15,cs),
(410,-15,o),
(454,23,o),
(464,122,cs),
(487,368,l),
(497,368,l),
(520,122,ls),
(528,24,o),
(572,-15,o),
(677,-15,cs),
(776,-15,o),
(814,18,o),
(834,122,cs),
(914,725,l),
(915,726,o),
(915,728,o),
(914,727,cs),
(914,738,o),
(900,745,o),
(876,745,cs),
(850,745,o),
(837,737,o),
(834,722,cs),
(756,133,ls),
(744,72,o),
(727,55,o),
(677,55,cs),
(623,55,o),
(601,76,o),
(594,133,cs),
(532,631,ls,{
name = hr00;
})
);
},
{
closed = 1;
nodes = (
(485,986,o),
(480,985,o),
(477,982,cs),
(357,866,ls),
(351,860,o),
(350,855,o),
(350,851,cs),
(350,833,o),
(369,807,o),
(382,807,cs),
(384,807,o),
(386,808,o),
(389,810,cs),
(492,886,l),
(595,810,ls),
(598,808,o),
(600,807,o),
(602,807,cs),
(615,807,o),
(634,833,o),
(634,851,cs),
(634,855,o),
(633,860,o),
(627,866,cs),
(507,982,ls),
(504,985,o),
(499,986,o),
(498,986,cs),
(487,986,l,{
name = hr00;
})
);
}
);
};
layerId = master01;
shapes = (
{
ref = W;
},
{
pos = (250,0);
ref = circumflexcomb.case;
}
);
width = 984;
}
);
unicode = 372;
},
{
glyphname = Wdieresis;
kernLeft = W;
kernRight = W;
lastChange = "2023-02-02 14:42:35 +0000";
layers = (
{
background = {
shapes = (
{
closed = 1;
nodes = (
(530,647,o),
(517,654,o),
(492,654,cs),
(467,654,o),
(453,646,o),
(452,631,cs),
(390,133,ls),
(382,76,o),
(360,55,o),
(307,55,cs),
(254,55,o),
(236,74,o),
(228,133,cs),
(150,722,ls),
(147,738,o),
(133,745,o),
(108,745,cs),
(84,745,o),
(70,738,o),
(70,727,cs),
(71,728,o),
(71,726,o),
(70,725,c),
(150,122,ls),
(162,22,o),
(204,-15,o),
(307,-15,cs),
(410,-15,o),
(454,23,o),
(464,122,cs),
(487,368,l),
(497,368,l),
(520,122,ls),
(528,24,o),
(572,-15,o),
(677,-15,cs),
(776,-15,o),
(814,18,o),
(834,122,cs),
(914,725,l),
(915,726,o),
(915,728,o),
(914,727,cs),
(914,738,o),
(900,745,o),
(876,745,cs),
(850,745,o),
(837,737,o),
(834,722,cs),
(756,133,ls),
(744,72,o),
(727,55,o),
(677,55,cs),
(623,55,o),
(601,76,o),
(594,133,cs),
(532,631,ls,{
name = hr00;
})
);
},
{
closed = 1;
nodes = (
(435,829,o),
(416,823,o),
(392,823,cs),
(367,823,o),
(348,829,o),
(348,848,cs),
(348,935,ls),
(348,954,o),
(367,960,o),
(391,960,cs),
(416,960,o),
(435,954,o),
(435,935,cs),
(435,848,ls,{
name = hr00;
})
);
},
{
closed = 1;
nodes = (
(635,829,o),
(616,823,o),
(592,823,cs),
(567,823,o),
(548,829,o),
(548,848,cs),
(548,935,ls),
(548,954,o),
(567,960,o),
(591,960,cs),
(616,960,o),
(635,954,o),
(635,935,cs),
(635,848,ls)
);
}
);
};
layerId = master01;
shapes = (
{
ref = W;
},
{
pos = (248,0);
ref = dieresiscomb.case;
}
);
width = 984;
}
);
unicode = 7812;
},
{
glyphname = Wgrave;
kernLeft = W;
kernRight = W;
lastChange = "2023-02-02 14:42:35 +0000";
layers = (
{
background = {
shapes = (
{
closed = 1;
nodes = (
(530,647,o),
(517,654,o),
(492,654,cs),
(467,654,o),
(453,646,o),
(452,631,cs),
(390,133,ls),
(382,76,o),
(360,55,o),
(307,55,cs),
(254,55,o),
(236,74,o),
(228,133,cs),
(150,722,ls),
(147,738,o),
(133,745,o),
(108,745,cs),
(84,745,o),
(70,738,o),
(70,727,cs),
(71,728,o),
(71,726,o),
(70,725,c),
(150,122,ls),
(162,22,o),
(204,-15,o),
(307,-15,cs),
(410,-15,o),
(454,23,o),
(464,122,cs),
(487,368,l),
(497,368,l),
(520,122,ls),
(528,24,o),
(572,-15,o),
(677,-15,cs),
(776,-15,o),
(814,18,o),
(834,122,cs),
(914,725,l),
(915,726,o),
(915,728,o),
(914,727,cs),
(914,738,o),
(900,745,o),
(876,745,cs),
(850,745,o),
(837,737,o),
(834,722,cs),
(756,133,ls),
(744,72,o),
(727,55,o),
(677,55,cs),
(623,55,o),
(601,76,o),
(594,133,cs),
(532,631,ls,{
name = hr00;
})
);
},
{
closed = 1;
nodes = (
(589,807,o),
(609,837,o),
(609,853,cs),
(609,859,o),
(607,863,o),
(599,868,cs),
(433,982,ls),
(429,985,o),
(426,986,o),
(420,986,cs),
(402,986,o),
(374,944,o),
(374,918,cs),
(374,907,o),
(377,902,o),
(385,898,cs),
(561,814,ls),
(575,808,o),
(577,807,o),
(579,807,cs,{
name = hr00;
})
);
}
);
};
layerId = master01;
shapes = (
{
ref = W;
},
{
pos = (324,0);
ref = gravecomb.case;
}
);
width = 984;
}
);
unicode = 7808;
},
{
glyphname = X;
lastChange = "2023-02-02 13:49:55 +0000";
layers = (
{
anchors = (
{
name = bottom;
pos = (305,0);
},
{
name = top;
pos = (305,740);
}
);
background = {
shapes = (
{
closed = 1;
nodes = (
(59,2,o),
(73,-5,o),
(99,-5,cs),
(122,-5,o),
(133,1,o),
(137,18,c),
(212,267,ls),
(229,324,o),
(254,345,o),
(305,345,cs),
(356,345,o),
(380,325,o),
(398,267,cs),
(473,18,l),
(477,1,o),
(487,-5,o),
(511,-5,cs),
(537,-5,o),
(550,2,o),
(549,15,c),
(472,278,ls),
(456,333,o),
(438,364,o),
(403,380,c),
(436,396,o),
(454,427,o),
(472,482,cs),
(549,725,l),
(550,738,o),
(537,745,o),
(511,745,cs),
(487,745,o),
(477,739,o),
(473,722,c),
(398,493,ls),
(379,435,o),
(356,415,o),
(305,415,cs),
(254,415,o),
(231,435,o),
(212,493,cs),
(137,722,l),
(133,739,o),
(122,745,o),
(99,745,cs),
(73,745,o),
(59,738,o),
(61,725,c),
(138,482,ls),
(155,427,o),
(173,396,o),
(206,380,c),
(171,364,o),
(154,333,o),
(138,278,cs),
(61,15,l,{
name = hr00;
})
);
}
);
};
layerId = master01;
shapes = (
{
closed = 1;
nodes = (
(59,2,o),
(73,-5,o),
(99,-5,cs),
(122,-5,o),
(133,1,o),
(137,18,c),
(212,267,ls),
(229,324,o),
(254,345,o),
(305,345,cs),
(356,345,o),
(380,325,o),
(398,267,cs),
(473,18,l),
(477,1,o),
(487,-5,o),
(511,-5,cs),
(537,-5,o),
(550,2,o),
(549,15,c),
(472,278,ls),
(456,333,o),
(438,364,o),
(403,380,c),
(436,396,o),
(454,427,o),
(472,482,cs),
(549,725,l),
(550,738,o),
(537,745,o),
(511,745,cs),
(487,745,o),
(477,739,o),
(473,722,c),
(398,493,ls),
(379,435,o),
(356,415,o),
(305,415,cs),
(254,415,o),
(231,435,o),
(212,493,cs),
(137,722,l),
(133,739,o),
(122,745,o),
(99,745,cs),
(73,745,o),
(59,738,o),
(61,725,c),
(138,482,ls),
(155,427,o),
(173,396,o),
(206,380,c),
(171,364,o),
(154,333,o),
(138,278,cs),
(61,15,l,{
name = hr00;
})
);
}
);
width = 610;
}
);
unicode = 88;
},
{
glyphname = Y;
kernLeft = Y;
kernRight = Y;
lastChange = "2023-02-02 14:43:01 +0000";
layers = (
{
anchors = (
{
name = bottom;
pos = (290,0);
},
{
name = top;
pos = (290,740);
},
{
name = topleft;
pos = (20,740);
}
);
background = {
shapes = (
{
closed = 1;
nodes = (
(535,738,o),
(522,745,o),
(496,745,cs),
(471,745,o),
(457,738,o),
(454,722,c),
(369,393,ls),
(354,333,o),
(335,315,o),
(290,315,cs),
(244,315,o),
(225,334,o),
(211,393,c),
(126,722,ls),
(122,738,o),
(109,745,o),
(84,745,cs),
(58,745,o),
(44,738,o),
(46,725,c),
(133,382,ls),
(155,295,o),
(186,258,o),
(250,248,c),
(250,18,ls),
(250,3,o),
(264,-5,o),
(290,-5,cs),
(316,-5,o),
(330,3,o),
(330,18,cs),
(330,247,l),
(393,257,o),
(424,294,o),
(447,382,cs),
(534,725,l,{
name = hr00;
})
);
}
);
};
layerId = master01;
shapes = (
{
closed = 1;
nodes = (
(535,738,o),
(522,745,o),
(496,745,cs),
(471,745,o),
(457,738,o),
(454,722,c),
(369,393,ls),
(354,333,o),
(335,315,o),
(290,315,cs),
(244,315,o),
(225,334,o),
(211,393,c),
(126,722,ls),
(122,738,o),
(109,745,o),
(84,745,cs),
(58,745,o),
(44,738,o),
(46,725,c),
(133,382,ls),
(155,295,o),
(186,258,o),
(250,248,c),
(250,18,ls),
(250,3,o),
(264,-5,o),
(290,-5,cs),
(316,-5,o),
(330,3,o),
(330,18,cs),
(330,247,l),
(393,257,o),
(424,294,o),
(447,382,cs),
(534,725,l,{
name = hr00;
})
);
}
);
width = 580;
}
);
unicode = 89;
},
{
glyphname = Yacute;
kernLeft = Y;
kernRight = Y;
lastChange = "2023-02-02 14:43:02 +0000";
layers = (
{
background = {
shapes = (
{
closed = 1;
nodes = (
(535,738,o),
(522,745,o),
(496,745,cs),
(471,745,o),
(457,738,o),
(454,722,c),
(369,393,ls),
(354,333,o),
(335,315,o),
(290,315,cs),
(244,315,o),
(225,334,o),
(211,393,c),
(126,722,ls),
(122,738,o),
(109,745,o),
(84,745,cs),
(58,745,o),
(44,738,o),
(46,725,c),
(133,382,ls),
(155,295,o),
(186,258,o),
(250,248,c),
(250,18,ls),
(250,3,o),
(264,-5,o),
(290,-5,cs),
(316,-5,o),
(330,3,o),
(330,18,cs),
(330,247,l),
(393,257,o),
(424,294,o),
(447,382,cs),
(534,725,l,{
name = hr00;
})
);
},
{
closed = 1;
nodes = (
(234,807,o),
(236,808,o),
(250,814,cs),
(426,898,ls),
(434,902,o),
(437,907,o),
(437,918,cs),
(437,944,o),
(409,986,o),
(391,986,cs),
(385,986,o),
(382,985,o),
(378,982,cs),
(212,868,ls),
(204,863,o),
(202,859,o),
(202,853,cs),
(202,837,o),
(222,807,o),
(232,807,cs,{
name = hr00;
})
);
}
);
};
layerId = master01;
shapes = (
{
ref = Y;
},
{
pos = (122,0);
ref = acutecomb.case;
}
);
width = 580;
}
);
unicode = 221;
},
{
glyphname = Ycircumflex;
kernLeft = Y;
kernRight = Y;
lastChange = "2023-02-02 14:43:02 +0000";
layers = (
{
background = {
shapes = (
{
closed = 1;
nodes = (
(535,738,o),
(522,745,o),
(496,745,cs),
(471,745,o),
(457,738,o),
(454,722,c),
(369,393,ls),
(354,333,o),
(335,315,o),
(290,315,cs),
(244,315,o),
(225,334,o),
(211,393,c),
(126,722,ls),
(122,738,o),
(109,745,o),
(84,745,cs),
(58,745,o),
(44,738,o),
(46,725,c),
(133,382,ls),
(155,295,o),
(186,258,o),
(250,248,c),
(250,18,ls),
(250,3,o),
(264,-5,o),
(290,-5,cs),
(316,-5,o),
(330,3,o),
(330,18,cs),
(330,247,l),
(393,257,o),
(424,294,o),
(447,382,cs),
(534,725,l,{
name = hr00;
})
);
},
{
closed = 1;
nodes = (
(283,986,o),
(278,985,o),
(275,982,cs),
(155,866,ls),
(149,860,o),
(148,855,o),
(148,851,cs),
(148,833,o),
(167,807,o),
(180,807,cs),
(182,807,o),
(184,808,o),
(187,810,cs),
(290,886,l),
(393,810,ls),
(396,808,o),
(398,807,o),
(400,807,cs),
(413,807,o),
(432,833,o),
(432,851,cs),
(432,855,o),
(431,860,o),
(425,866,cs),
(305,982,ls),
(302,985,o),
(297,986,o),
(296,986,cs),
(285,986,l,{
name = hr00;
})
);
}
);
};
layerId = master01;
shapes = (
{
ref = Y;
},
{
pos = (48,0);
ref = circumflexcomb.case;
}
);
width = 580;
}
);
unicode = 374;
},
{
glyphname = Ydieresis;
kernLeft = Y;
kernRight = Y;
lastChange = "2023-02-02 14:43:02 +0000";
layers = (
{
background = {
shapes = (
{
closed = 1;
nodes = (
(535,738,o),
(522,745,o),
(496,745,cs),
(471,745,o),
(457,738,o),
(454,722,c),
(369,393,ls),
(354,333,o),
(335,315,o),
(290,315,cs),
(244,315,o),
(225,334,o),
(211,393,c),
(126,722,ls),
(122,738,o),
(109,745,o),
(84,745,cs),
(58,745,o),
(44,738,o),
(46,725,c),
(133,382,ls),
(155,295,o),
(186,258,o),
(250,248,c),
(250,18,ls),
(250,3,o),
(264,-5,o),
(290,-5,cs),
(316,-5,o),
(330,3,o),
(330,18,cs),
(330,247,l),
(393,257,o),
(424,294,o),
(447,382,cs),
(534,725,l,{
name = hr00;
})
);
},
{
closed = 1;
nodes = (
(233,832,o),
(218,823,o),
(190,823,cs),
(161,823,o),
(146,831,o),
(146,848,cs),
(146,935,ls),
(146,951,o),
(161,960,o),
(189,960,cs),
(218,960,o),
(233,952,o),
(233,935,cs),
(233,848,ls,{
name = hr00;
})
);
},
{
closed = 1;
nodes = (
(433,832,o),
(418,823,o),
(390,823,cs),
(361,823,o),
(346,831,o),
(346,848,cs),
(346,935,ls),
(346,951,o),
(361,960,o),
(389,960,cs),
(418,960,o),
(433,952,o),
(433,935,cs),
(433,848,ls)
);
}
);
};
layerId = master01;
shapes = (
{
ref = Y;
},
{
pos = (46,0);
ref = dieresiscomb.case;
}
);
width = 580;
}
);
unicode = 376;
},
{
glyphname = Ygrave;
kernLeft = Y;
kernRight = Y;
lastChange = "2023-02-02 14:43:02 +0000";
layers = (
{
background = {
shapes = (
{
closed = 1;
nodes = (
(535,738,o),
(522,745,o),
(496,745,cs),
(471,745,o),
(457,738,o),
(454,722,c),
(369,393,ls),
(354,333,o),
(335,315,o),
(290,315,cs),
(244,315,o),
(225,334,o),
(211,393,c),
(126,722,ls),
(122,738,o),
(109,745,o),
(84,745,cs),
(58,745,o),
(44,738,o),
(46,725,c),
(133,382,ls),
(155,295,o),
(186,258,o),
(250,248,c),
(250,18,ls),
(250,3,o),
(264,-5,o),
(290,-5,cs),
(316,-5,o),
(330,3,o),
(330,18,cs),
(330,247,l),
(393,257,o),
(424,294,o),
(447,382,cs),
(534,725,l,{
name = hr00;
})
);
},
{
closed = 1;
nodes = (
(397,807,o),
(417,837,o),
(417,853,cs),
(417,859,o),
(415,863,o),
(407,868,cs),
(241,982,ls),
(237,985,o),
(234,986,o),
(228,986,cs),
(210,986,o),
(182,944,o),
(182,918,cs),
(182,907,o),
(185,902,o),
(193,898,cs),
(369,814,ls),
(383,808,o),
(385,807,o),
(387,807,cs,{
name = hr00;
})
);
}
);
};
layerId = master01;
shapes = (
{
ref = Y;
},
{
pos = (122,0);
ref = gravecomb.case;
}
);
width = 580;
}
);
unicode = 7922;
},
{
glyphname = Z;
lastChange = "2023-02-02 14:01:26 +0000";
layers = (
{
anchors = (
{
name = bottom;
pos = (298,0);
},
{
name = center;
pos = (298,370);
},
{
name = top;
pos = (328,740);
}
);
background = {
shapes = (
{
closed = 1;
nodes = (
(524,559,o),
(535,577,o),
(535,628,cs),
(535,705,ls),
(535,728,o),
(528,740,o),
(515,740,cs),
(119,740,ls),
(106,740,o),
(99,728,o),
(99,705,cs),
(99,682,o),
(106,670,o),
(119,670,cs),
(455,670,l),
(455,630,ls),
(455,600,o),
(446,582,o),
(411,543,cs),
(156,256,ls),
(70,159,o),
(60,142,o),
(60,92,cs),
(60,35,ls),
(60,12,o),
(67,0,o),
(80,0,cs),
(516,0,ls),
(529,0,o),
(536,12,o),
(536,35,cs),
(536,58,o),
(529,70,o),
(516,70,cs),
(140,70,l),
(140,90,ls),
(140,120,o),
(148,136,o),
(184,177,cs),
(439,464,ls,{
name = hr00;
})
);
}
);
};
layerId = master01;
shapes = (
{
closed = 1;
nodes = (
(524,559,o),
(535,577,o),
(535,628,cs),
(535,705,ls),
(535,728,o),
(528,740,o),
(515,740,cs),
(119,740,ls),
(106,740,o),
(99,728,o),
(99,705,cs),
(99,682,o),
(106,670,o),
(119,670,cs),
(455,670,l),
(455,630,ls),
(455,600,o),
(446,582,o),
(411,543,cs),
(156,256,ls),
(70,159,o),
(60,142,o),
(60,92,cs),
(60,35,ls),
(60,12,o),
(67,0,o),
(80,0,cs),
(516,0,ls),
(529,0,o),
(536,12,o),
(536,35,cs),
(536,58,o),
(529,70,o),
(516,70,cs),
(140,70,l),
(140,90,ls),
(140,120,o),
(148,136,o),
(184,177,cs),
(439,464,ls,{
name = hr00;
})
);
}
);
width = 595;
}
);
unicode = 90;
},
{
glyphname = Zacute;
lastChange = "2023-02-02 14:01:26 +0000";
layers = (
{
background = {
shapes = (
{
closed = 1;
nodes = (
(524,559,o),
(535,577,o),
(535,628,cs),
(535,705,ls),
(535,728,o),
(528,740,o),
(515,740,cs),
(119,740,ls),
(106,740,o),
(99,728,o),
(99,705,cs),
(99,682,o),
(106,670,o),
(119,670,cs),
(455,670,l),
(455,630,ls),
(455,600,o),
(446,582,o),
(411,543,cs),
(156,256,ls),
(70,159,o),
(60,142,o),
(60,92,cs),
(60,35,ls),
(60,12,o),
(67,0,o),
(80,0,cs),
(516,0,ls),
(529,0,o),
(536,12,o),
(536,35,cs),
(536,58,o),
(529,70,o),
(516,70,cs),
(140,70,l),
(140,90,ls),
(140,120,o),
(148,136,o),
(184,177,cs),
(439,464,ls,{
name = hr00;
})
);
},
{
closed = 1;
nodes = (
(262,807,o),
(264,808,o),
(278,814,cs),
(454,898,ls),
(462,902,o),
(465,907,o),
(465,918,cs),
(465,944,o),
(437,986,o),
(419,986,cs),
(413,986,o),
(410,985,o),
(406,982,cs),
(240,868,ls),
(232,863,o),
(230,859,o),
(230,853,cs),
(230,837,o),
(250,807,o),
(260,807,c,{
name = hr00;
})
);
}
);
};
layerId = master01;
shapes = (
{
ref = Z;
},
{
pos = (160,0);
ref = acutecomb.case;
}
);
width = 595;
}
);
unicode = 377;
},
{
glyphname = Zcaron;
lastChange = "2023-02-02 14:01:26 +0000";
layers = (
{
background = {
shapes = (
{
closed = 1;
nodes = (
(524,559,o),
(535,577,o),
(535,628,cs),
(535,705,ls),
(535,728,o),
(528,740,o),
(515,740,cs),
(119,740,ls),
(106,740,o),
(99,728,o),
(99,705,cs),
(99,682,o),
(106,670,o),
(119,670,cs),
(455,670,l),
(455,630,ls),
(455,600,o),
(446,582,o),
(411,543,cs),
(156,256,ls),
(70,159,o),
(60,142,o),
(60,92,cs),
(60,35,ls),
(60,12,o),
(67,0,o),
(80,0,cs),
(516,0,ls),
(529,0,o),
(536,12,o),
(536,35,cs),
(536,58,o),
(529,70,o),
(516,70,cs),
(140,70,l),
(140,90,ls),
(140,120,o),
(148,136,o),
(184,177,cs),
(439,464,ls,{
name = hr00;
})
);
},
{
closed = 1;
nodes = (
(335,802,o),
(340,804,o),
(342,806,cs),
(462,922,ls),
(467,927,o),
(469,932,o),
(469,937,cs),
(469,955,o),
(450,981,o),
(437,981,cs),
(435,981,o),
(433,980,o),
(430,978,cs),
(327,902,l),
(224,978,ls),
(220,980,o),
(219,981,o),
(217,981,cs),
(204,981,o),
(185,955,o),
(185,937,cs),
(185,932,o),
(187,927,o),
(192,922,cs),
(312,806,ls),
(314,804,o),
(319,802,o),
(322,802,c),
(333,802,l,{
name = hr00;
})
);
}
);
};
layerId = master01;
shapes = (
{
ref = Z;
},
{
pos = (86,0);
ref = caroncomb.case;
}
);
width = 595;
}
);
unicode = 381;
},
{
glyphname = Zdotaccent;
lastChange = "2023-02-02 14:01:26 +0000";
layers = (
{
background = {
shapes = (
{
closed = 1;
nodes = (
(524,559,o),
(535,577,o),
(535,628,cs),
(535,705,ls),
(535,728,o),
(528,740,o),
(515,740,cs),
(119,740,ls),
(106,740,o),
(99,728,o),
(99,705,cs),
(99,682,o),
(106,670,o),
(119,670,cs),
(455,670,l),
(455,630,ls),
(455,600,o),
(446,582,o),
(411,543,cs),
(156,256,ls),
(70,159,o),
(60,142,o),
(60,92,cs),
(60,35,ls),
(60,12,o),
(67,0,o),
(80,0,cs),
(516,0,ls),
(529,0,o),
(536,12,o),
(536,35,cs),
(536,58,o),
(529,70,o),
(516,70,cs),
(140,70,l),
(140,90,ls),
(140,120,o),
(148,136,o),
(184,177,cs),
(439,464,ls,{
name = hr00;
})
);
},
{
closed = 1;
nodes = (
(371,829,o),
(352,823,o),
(328,823,cs),
(303,823,o),
(284,829,o),
(284,848,cs),
(284,935,ls),
(284,954,o),
(303,960,o),
(327,960,cs),
(352,960,o),
(371,954,o),
(371,935,cs),
(371,848,ls,{
name = hr00;
})
);
}
);
};
layerId = master01;
shapes = (
{
ref = Z;
},
{
pos = (184,0);
ref = dotaccentcomb.case;
}
);
width = 595;
}
);
unicode = 379;
},
{
glyphname = C.001;
lastChange = "2023-02-02 13:49:55 +0000";
layers = (
{
anchors = (
{
name = bottom;
pos = (249,0);
},
{
name = top;
pos = (249,740);
}
);
background = {
shapes = (
{
closed = 1;
nodes = (
(164,706,o),
(205,717,o),
(256,717,cs),
(307,717,o),
(343,706,o),
(343,675,cs),
(343,628,ls),
(343,613,o),
(358,607,o),
(376,607,cs),
(394,607,o),
(408,613,o),
(408,628,cs),
(408,668,ls),
(408,747,o),
(342,776,o),
(256,776,cs),
(169,776,o),
(99,747,o),
(99,668,cs),
(99,378,ls),
(99,299,o),
(169,270,o),
(256,270,cs),
(342,270,o),
(408,299,o),
(408,378,cs),
(408,417,ls),
(408,433,o),
(394,439,o),
(376,439,cs),
(358,439,o),
(343,433,o),
(343,417,cs),
(343,371,ls),
(343,340,o),
(307,329,o),
(256,329,cs),
(205,329,o),
(164,340,o),
(164,371,cs),
(164,675,ls,{
name = hr00;
})
);
}
);
};
layerId = master01;
shapes = (
{
closed = 1;
nodes = (
(164,706,o),
(205,717,o),
(256,717,cs),
(307,717,o),
(343,706,o),
(343,675,cs),
(343,628,ls),
(343,613,o),
(358,607,o),
(376,607,cs),
(394,607,o),
(408,613,o),
(408,628,cs),
(408,668,ls),
(408,747,o),
(342,776,o),
(256,776,cs),
(169,776,o),
(99,747,o),
(99,668,cs),
(99,378,ls),
(99,299,o),
(169,270,o),
(256,270,cs),
(342,270,o),
(408,299,o),
(408,378,cs),
(408,417,ls),
(408,433,o),
(394,439,o),
(376,439,cs),
(358,439,o),
(343,433,o),
(343,417,cs),
(343,371,ls),
(343,340,o),
(307,329,o),
(256,329,cs),
(205,329,o),
(164,340,o),
(164,371,cs),
(164,675,ls,{
name = hr00;
})
);
}
);
width = 498;
}
);
},
{
glyphname = R.001;
lastChange = "2023-02-02 13:49:55 +0000";
layers = (
{
anchors = (
{
name = bottom;
pos = (250,0);
},
{
name = top;
pos = (250,740);
}
);
background = {
shapes = (
{
closed = 1;
nodes = (
(205,529,o),
(201,518,o),
(201,501,cs),
(201,484,o),
(205,471,o),
(220,471,cs),
(251,471,ls),
(293,471,o),
(298,467,o),
(305,442,cs),
(345,297,ls),
(349,282,o),
(358,277,o),
(377,277,cs),
(393,277,o),
(408,281,o),
(408,297,cs),
(408,298,o),
(408,299,o),
(363,464,cs),
(359,479,o),
(354,492,o),
(346,501,c),
(377,512,o),
(395,535,o),
(395,579,cs),
(395,668,ls),
(395,747,o),
(331,776,o),
(250,776,cs),
(170,776,o),
(105,747,o),
(105,668,cs),
(105,299,ls),
(105,283,o),
(120,277,o),
(137,277,cs),
(156,277,o),
(170,283,o),
(170,299,cs),
(170,675,ls),
(170,706,o),
(205,717,o),
(250,717,cs),
(294,717,o),
(331,706,o),
(331,675,cs),
(331,572,ls),
(331,540,o),
(296,529,o),
(251,529,cs),
(220,529,ls,{
name = hr00;
})
);
}
);
};
layerId = master01;
shapes = (
{
closed = 1;
nodes = (
(205,529,o),
(201,518,o),
(201,501,cs),
(201,484,o),
(205,471,o),
(220,471,cs),
(251,471,ls),
(293,471,o),
(298,467,o),
(305,442,cs),
(345,297,ls),
(349,282,o),
(358,277,o),
(377,277,cs),
(393,277,o),
(408,281,o),
(408,297,cs),
(408,298,o),
(408,299,o),
(363,464,cs),
(359,479,o),
(354,492,o),
(346,501,c),
(377,512,o),
(395,535,o),
(395,579,cs),
(395,668,ls),
(395,747,o),
(331,776,o),
(250,776,cs),
(170,776,o),
(105,747,o),
(105,668,cs),
(105,299,ls),
(105,283,o),
(120,277,o),
(137,277,cs),
(156,277,o),
(170,283,o),
(170,299,cs),
(170,675,ls),
(170,706,o),
(205,717,o),
(250,717,cs),
(294,717,o),
(331,706,o),
(331,675,cs),
(331,572,ls),
(331,540,o),
(296,529,o),
(251,529,cs),
(220,529,ls,{
name = hr00;
})
);
}
);
width = 499;
}
);
},
{
glyphname = I.ss01;
lastChange = "2023-02-02 14:56:09 +0000";
layers = (
{
anchors = (
{
name = bottom;
pos = (160,0);
},
{
name = ogonek;
pos = (273,37);
},
{
name = top;
pos = (160,740);
},
{
name = topleft;
pos = (20,740);
}
);
background = {
shapes = (
{
closed = 1;
nodes = (
(273,677,o),
(280,688,o),
(280,709,cs),
(280,730,o),
(273,740,o),
(260,740,cs),
(60,740,ls),
(47,740,o),
(40,730,o),
(40,709,cs),
(40,688,o),
(47,677,o),
(60,677,cs),
(120,677,l),
(120,63,l),
(60,63,ls),
(47,63,o),
(40,53,o),
(40,32,cs),
(40,11,o),
(47,0,o),
(60,0,cs),
(260,0,ls),
(273,0,o),
(280,11,o),
(280,32,cs),
(280,53,o),
(273,63,o),
(260,63,cs),
(200,63,l),
(200,677,l),
(260,677,ls,{
name = hr00;
})
);
}
);
};
layerId = master01;
shapes = (
{
closed = 1;
nodes = (
(273,677,o),
(280,688,o),
(280,709,cs),
(280,730,o),
(273,740,o),
(260,740,cs),
(60,740,ls),
(47,740,o),
(40,730,o),
(40,709,cs),
(40,688,o),
(47,677,o),
(60,677,cs),
(120,677,l),
(120,63,l),
(60,63,ls),
(47,63,o),
(40,53,o),
(40,32,cs),
(40,11,o),
(47,0,o),
(60,0,cs),
(260,0,ls),
(273,0,o),
(280,11,o),
(280,32,cs),
(280,53,o),
(273,63,o),
(260,63,cs),
(200,63,l),
(200,677,l),
(260,677,ls,{
name = hr00;
})
);
}
);
width = 320;
}
);
},
{
glyphname = IJ.ss01;
lastChange = "2023-02-02 14:58:59 +0000";
layers = (
{
background = {
shapes = (
{
closed = 1;
nodes = (
(273,677,o),
(280,688,o),
(280,709,cs),
(280,730,o),
(273,740,o),
(260,740,cs),
(60,740,ls),
(47,740,o),
(40,730,o),
(40,709,cs),
(40,688,o),
(47,677,o),
(60,677,cs),
(120,677,l),
(120,63,l),
(60,63,ls),
(47,63,o),
(40,53,o),
(40,32,cs),
(40,11,o),
(47,0,o),
(60,0,cs),
(260,0,ls),
(273,0,o),
(280,11,o),
(280,32,cs),
(280,53,o),
(273,63,o),
(260,63,cs),
(200,63,l),
(200,677,l),
(260,677,ls,{
name = hr00;
})
);
},
{
closed = 1;
nodes = (
(633,82,o),
(594,55,o),
(521,55,cs),
(449,55,o),
(410,82,o),
(410,133,cs),
(410,265,ls),
(410,280,o),
(396,288,o),
(370,288,cs),
(344,288,o),
(330,280,o),
(330,265,cs),
(330,143,ls),
(330,44,o),
(401,-15,o),
(521,-15,cs),
(641,-15,o),
(713,44,o),
(713,143,cs),
(713,722,ls),
(713,737,o),
(699,745,o),
(673,745,cs),
(647,745,o),
(633,737,o),
(633,722,cs),
(633,133,ls,{
name = hr00;
})
);
}
);
};
layerId = master01;
shapes = (
{
ref = I.ss01;
},
{
pos = (320,0);
ref = J;
}
);
width = 823;
}
);
},
{
glyphname = Iacute.ss01;
lastChange = "2023-02-02 14:58:59 +0000";
layers = (
{
background = {
shapes = (
{
closed = 1;
nodes = (
(273,677,o),
(280,688,o),
(280,709,cs),
(280,730,o),
(273,740,o),
(260,740,cs),
(60,740,ls),
(47,740,o),
(40,730,o),
(40,709,cs),
(40,688,o),
(47,677,o),
(60,677,cs),
(120,677,l),
(120,63,l),
(60,63,ls),
(47,63,o),
(40,53,o),
(40,32,cs),
(40,11,o),
(47,0,o),
(60,0,cs),
(260,0,ls),
(273,0,o),
(280,11,o),
(280,32,cs),
(280,53,o),
(273,63,o),
(260,63,cs),
(200,63,l),
(200,677,l),
(260,677,ls,{
name = hr00;
})
);
},
{
closed = 1;
nodes = (
(75,807,o),
(77,808,o),
(91,814,cs),
(267,898,ls),
(275,902,o),
(278,907,o),
(278,918,cs),
(278,944,o),
(250,986,o),
(232,986,cs),
(226,986,o),
(223,985,o),
(219,982,cs),
(53,868,ls),
(45,863,o),
(43,859,o),
(43,853,cs),
(43,837,o),
(63,807,o),
(73,807,cs,{
name = hr00;
})
);
}
);
};
layerId = master01;
shapes = (
{
ref = I.ss01;
},
{
pos = (-8,0);
ref = acutecomb.case;
}
);
width = 320;
}
);
},
{
glyphname = Ibreve.ss01;
lastChange = "2023-02-02 14:58:59 +0000";
layers = (
{
background = {
shapes = (
{
closed = 1;
nodes = (
(273,677,o),
(280,688,o),
(280,709,cs),
(280,730,o),
(273,740,o),
(260,740,cs),
(60,740,ls),
(47,740,o),
(40,730,o),
(40,709,cs),
(40,688,o),
(47,677,o),
(60,677,cs),
(120,677,l),
(120,63,l),
(60,63,ls),
(47,63,o),
(40,53,o),
(40,32,cs),
(40,11,o),
(47,0,o),
(60,0,cs),
(260,0,ls),
(273,0,o),
(280,11,o),
(280,32,cs),
(280,53,o),
(273,63,o),
(260,63,cs),
(200,63,l),
(200,677,l),
(260,677,ls,{
name = hr00;
})
);
},
{
closed = 1;
nodes = (
(109,949,o),
(92,954,o),
(73,954,cs),
(54,954,o),
(38,949,o),
(38,934,cs),
(38,909,ls),
(38,848,o),
(70,817,o),
(158,817,cs),
(245,817,o),
(282,848,o),
(282,909,cs),
(282,934,ls),
(282,949,o),
(265,954,o),
(246,954,cs),
(227,954,o),
(211,949,o),
(211,934,cs),
(211,910,ls),
(211,888,o),
(185,880,o),
(159,880,cs),
(131,880,o),
(109,887,o),
(109,909,cs),
(109,934,ls,{
name = hr00;
})
);
}
);
};
layerId = master01;
shapes = (
{
ref = I.ss01;
},
{
pos = (-12,0);
ref = brevecomb.case;
}
);
width = 320;
}
);
},
{
glyphname = Icircumflex.ss01;
lastChange = "2023-02-02 14:58:59 +0000";
layers = (
{
background = {
shapes = (
{
closed = 1;
nodes = (
(273,677,o),
(280,688,o),
(280,709,cs),
(280,730,o),
(273,740,o),
(260,740,cs),
(60,740,ls),
(47,740,o),
(40,730,o),
(40,709,cs),
(40,688,o),
(47,677,o),
(60,677,cs),
(120,677,l),
(120,63,l),
(60,63,ls),
(47,63,o),
(40,53,o),
(40,32,cs),
(40,11,o),
(47,0,o),
(60,0,cs),
(260,0,ls),
(273,0,o),
(280,11,o),
(280,32,cs),
(280,53,o),
(273,63,o),
(260,63,cs),
(200,63,l),
(200,677,l),
(260,677,ls,{
name = hr00;
})
);
},
{
closed = 1;
nodes = (
(152,986,o),
(147,984,o),
(145,982,cs),
(25,866,ls),
(20,861,o),
(18,856,o),
(18,851,cs),
(18,833,o),
(37,807,o),
(50,807,cs),
(52,807,o),
(53,808,o),
(57,810,cs),
(160,886,l),
(263,810,ls),
(266,808,o),
(268,807,o),
(270,807,cs),
(283,807,o),
(302,833,o),
(302,851,cs),
(302,856,o),
(300,861,o),
(295,866,cs),
(175,982,ls),
(173,984,o),
(168,986,o),
(166,986,cs),
(155,986,l,{
name = hr00;
})
);
}
);
};
layerId = master01;
shapes = (
{
ref = I.ss01;
},
{
pos = (-82,0);
ref = circumflexcomb.case;
}
);
width = 320;
}
);
},
{
glyphname = Idieresis.ss01;
lastChange = "2023-02-02 14:58:59 +0000";
layers = (
{
background = {
shapes = (
{
closed = 1;
nodes = (
(273,677,o),
(280,688,o),
(280,709,cs),
(280,730,o),
(273,740,o),
(260,740,cs),
(60,740,ls),
(47,740,o),
(40,730,o),
(40,709,cs),
(40,688,o),
(47,677,o),
(60,677,cs),
(120,677,l),
(120,63,l),
(60,63,ls),
(47,63,o),
(40,53,o),
(40,32,cs),
(40,11,o),
(47,0,o),
(60,0,cs),
(260,0,ls),
(273,0,o),
(280,11,o),
(280,32,cs),
(280,53,o),
(273,63,o),
(260,63,cs),
(200,63,l),
(200,677,l),
(260,677,ls,{
name = hr00;
})
);
},
{
closed = 1;
nodes = (
(104,832,o),
(89,823,o),
(61,823,cs),
(32,823,o),
(17,831,o),
(17,848,cs),
(17,935,ls),
(17,951,o),
(32,960,o),
(60,960,cs),
(89,960,o),
(104,952,o),
(104,935,cs),
(104,848,ls,{
name = hr00;
})
);
},
{
closed = 1;
nodes = (
(304,832,o),
(289,823,o),
(261,823,cs),
(232,823,o),
(217,831,o),
(217,848,cs),
(217,935,ls),
(217,951,o),
(232,960,o),
(260,960,cs),
(289,960,o),
(304,952,o),
(304,935,cs),
(304,848,ls)
);
}
);
};
layerId = master01;
shapes = (
{
ref = I.ss01;
},
{
pos = (-84,0);
ref = dieresiscomb.case;
}
);
width = 320;
}
);
},
{
glyphname = Idotaccent.ss01;
lastChange = "2023-02-02 14:58:59 +0000";
layers = (
{
background = {
shapes = (
{
closed = 1;
nodes = (
(273,677,o),
(280,688,o),
(280,709,cs),
(280,730,o),
(273,740,o),
(260,740,cs),
(60,740,ls),
(47,740,o),
(40,730,o),
(40,709,cs),
(40,688,o),
(47,677,o),
(60,677,cs),
(120,677,l),
(120,63,l),
(60,63,ls),
(47,63,o),
(40,53,o),
(40,32,cs),
(40,11,o),
(47,0,o),
(60,0,cs),
(260,0,ls),
(273,0,o),
(280,11,o),
(280,32,cs),
(280,53,o),
(273,63,o),
(260,63,cs),
(200,63,l),
(200,677,l),
(260,677,ls,{
name = hr00;
})
);
},
{
closed = 1;
nodes = (
(203,829,o),
(184,823,o),
(160,823,cs),
(135,823,o),
(116,829,o),
(116,848,cs),
(116,935,ls),
(116,954,o),
(135,960,o),
(159,960,cs),
(184,960,o),
(203,954,o),
(203,935,cs),
(203,848,ls,{
name = hr00;
})
);
}
);
};
layerId = master01;
shapes = (
{
ref = I.ss01;
},
{
pos = (16,0);
ref = dotaccentcomb.case;
}
);
width = 320;
}
);
},
{
glyphname = Igrave.ss01;
lastChange = "2023-02-02 14:58:59 +0000";
layers = (
{
background = {
shapes = (
{
closed = 1;
nodes = (
(273,677,o),
(280,688,o),
(280,709,cs),
(280,730,o),
(273,740,o),
(260,740,cs),
(60,740,ls),
(47,740,o),
(40,730,o),
(40,709,cs),
(40,688,o),
(47,677,o),
(60,677,cs),
(120,677,l),
(120,63,l),
(60,63,ls),
(47,63,o),
(40,53,o),
(40,32,cs),
(40,11,o),
(47,0,o),
(60,0,cs),
(260,0,ls),
(273,0,o),
(280,11,o),
(280,32,cs),
(280,53,o),
(273,63,o),
(260,63,cs),
(200,63,l),
(200,677,l),
(260,677,ls,{
name = hr00;
})
);
},
{
closed = 1;
nodes = (
(258,807,o),
(278,837,o),
(278,853,cs),
(278,859,o),
(276,863,o),
(268,868,cs),
(102,982,ls),
(98,985,o),
(95,986,o),
(89,986,cs),
(71,986,o),
(43,944,o),
(43,918,cs),
(43,907,o),
(46,902,o),
(54,898,cs),
(230,814,ls),
(244,808,o),
(246,807,o),
(248,807,cs,{
name = hr00;
})
);
}
);
};
layerId = master01;
shapes = (
{
ref = I.ss01;
},
{
pos = (-8,0);
ref = gravecomb.case;
}
);
width = 320;
}
);
},
{
glyphname = Imacron.ss01;
lastChange = "2023-02-02 14:58:59 +0000";
layers = (
{
background = {
shapes = (
{
closed = 1;
nodes = (
(273,677,o),
(280,688,o),
(280,709,cs),
(280,730,o),
(273,740,o),
(260,740,cs),
(60,740,ls),
(47,740,o),
(40,730,o),
(40,709,cs),
(40,688,o),
(47,677,o),
(60,677,cs),
(120,677,l),
(120,63,l),
(60,63,ls),
(47,63,o),
(40,53,o),
(40,32,cs),
(40,11,o),
(47,0,o),
(60,0,cs),
(260,0,ls),
(273,0,o),
(280,11,o),
(280,32,cs),
(280,53,o),
(273,63,o),
(260,63,cs),
(200,63,l),
(200,677,l),
(260,677,ls,{
name = hr00;
})
);
},
{
closed = 1;
nodes = (
(14,927,o),
(7,914,o),
(7,889,cs),
(7,864,o),
(14,850,o),
(27,850,cs),
(294,850,ls),
(307,850,o),
(314,863,o),
(314,889,cs),
(314,914,o),
(307,927,o),
(294,927,cs),
(27,927,ls,{
name = hr00;
})
);
}
);
};
layerId = master01;
shapes = (
{
ref = I.ss01;
},
{
pos = (-94,0);
ref = macroncomb.case;
}
);
width = 320;
}
);
},
{
glyphname = Iogonek.ss01;
lastChange = "2023-02-02 14:58:59 +0000";
layers = (
{
background = {
shapes = (
{
closed = 1;
nodes = (
(227,-222,o),
(273,-185,o),
(273,-130,cs),
(273,-117,ls),
(273,-104,o),
(261,-96,o),
(240,-96,cs),
(218,-96,o),
(206,-103,o),
(206,-117,cs),
(206,-135,ls),
(206,-154,o),
(189,-164,o),
(158,-164,cs),
(128,-164,o),
(109,-152,o),
(109,-134,cs),
(109,-109,ls),
(109,-74,o),
(122,-54,o),
(155,-41,cs),
(260,0,l),
(272,5,o),
(280,11,o),
(280,32,cs),
(280,53,o),
(273,63,o),
(260,63,cs),
(200,63,l),
(200,677,l),
(260,677,ls),
(273,677,o),
(280,688,o),
(280,709,cs),
(280,730,o),
(273,740,o),
(260,740,cs),
(60,740,ls),
(47,740,o),
(40,730,o),
(40,709,cs),
(40,688,o),
(47,677,o),
(60,677,cs),
(120,677,l),
(120,63,l),
(60,63,ls),
(47,63,o),
(40,53,o),
(40,32,cs),
(40,11,o),
(47,0,o),
(60,0,cs),
(140,0,l),
(140,-4,l),
(59,-36,o),
(42,-54,o),
(42,-108,cs),
(42,-130,ls),
(42,-184,o),
(90,-222,o),
(159,-222,cs,{
name = hr00;
})
);
}
);
};
layerId = master01;
shapes = (
{
ref = I.ss01;
},
{
pos = (-176,0);
ref = ogonekcomb;
}
);
width = 320;
}
);
},
{
glyphname = Itilde.ss01;
lastChange = "2023-02-02 14:58:59 +0000";
layers = (
{
background = {
shapes = (
{
closed = 1;
nodes = (
(273,677,o),
(280,688,o),
(280,709,cs),
(280,730,o),
(273,740,o),
(260,740,cs),
(60,740,ls),
(47,740,o),
(40,730,o),
(40,709,cs),
(40,688,o),
(47,677,o),
(60,677,cs),
(120,677,l),
(120,63,l),
(60,63,ls),
(47,63,o),
(40,53,o),
(40,32,cs),
(40,11,o),
(47,0,o),
(60,0,cs),
(260,0,ls),
(273,0,o),
(280,11,o),
(280,32,cs),
(280,53,o),
(273,63,o),
(260,63,cs),
(200,63,l),
(200,677,l),
(260,677,ls,{
name = hr00;
})
);
},
{
closed = 1;
nodes = (
(82,950,o),
(74,952,o),
(67,952,cs),
(30,952,o),
(2,919,o),
(2,843,cs),
(2,831,o),
(17,827,o),
(37,827,cs),
(56,827,o),
(72,832,o),
(72,847,cs),
(72,865,o),
(77,872,o),
(85,872,cs),
(87,872,o),
(88,871,o),
(90,871,cs),
(231,832,ls),
(239,830,o),
(246,829,o),
(253,829,cs),
(290,829,o),
(319,861,o),
(319,937,cs),
(319,949,o),
(304,953,o),
(284,953,cs,{
name = hr01;
}),
(265,953,o),
(249,948,o),
(249,933,cs),
(249,916,o),
(245,908,o),
(237,908,cs),
(235,908,o),
(233,908,o),
(231,909,cs),
(90,948,l)
);
}
);
};
layerId = master01;
shapes = (
{
ref = I.ss01;
},
{
pos = (-99,0);
ref = tildecomb.case;
}
);
width = 320;
}
);
},
{
glyphname = a;
kernLeft = a;
lastChange = "2023-02-02 14:36:34 +0000";
layers = (
{
anchors = (
{
name = bottom;
pos = (302,0);
},
{
name = ogonek;
pos = (514,38);
},
{
name = top;
pos = (302,605);
}
);
background = {
shapes = (
{
closed = 1;
nodes = (
(376,0,o),
(383,12,o),
(383,35,cs),
(383,58,o),
(376,70,o),
(363,70,cs),
(246,70,ls),
(180,70,o),
(160,90,o),
(160,158,cs),
(160,166,ls),
(160,229,o),
(176,247,o),
(246,254,cs),
(413,271,l),
(413,137,ls),
(413,58,o),
(440,-10,o),
(472,-10,cs,{
name = hr01;
}),
(491,-10,o),
(523,14,o),
(523,29,cs),
(523,41,o),
(493,63,o),
(493,147,cs),
(493,442,ls),
(493,544,o),
(417,600,o),
(277,600,cs),
(140,600,ls),
(127,600,o),
(120,588,o),
(120,565,cs),
(120,542,o),
(127,530,o),
(140,530,cs),
(277,530,ls),
(366,530,o),
(413,503,o),
(413,452,cs),
(413,341,l),
(240,324,ls),
(116,311,o),
(80,276,o),
(80,166,cs),
(80,158,ls),
(80,44,o),
(127,0,o),
(246,0,cs,{
name = hr02;
}),
(363,0,ls)
);
}
);
};
layerId = master01;
shapes = (
{
closed = 1;
nodes = (
(376,0,o),
(383,12,o),
(383,35,cs),
(383,58,o),
(376,70,o),
(363,70,cs),
(246,70,ls),
(180,70,o),
(160,90,o),
(160,158,cs),
(160,166,ls),
(160,229,o),
(176,247,o),
(246,254,cs),
(413,271,l),
(413,137,ls),
(413,58,o),
(440,-10,o),
(472,-10,cs,{
name = hr01;
}),
(491,-10,o),
(523,14,o),
(523,29,cs),
(523,41,o),
(493,63,o),
(493,147,cs),
(493,442,ls),
(493,544,o),
(417,600,o),
(277,600,cs),
(140,600,ls),
(127,600,o),
(120,588,o),
(120,565,cs),
(120,542,o),
(127,530,o),
(140,530,cs),
(277,530,ls),
(366,530,o),
(413,503,o),
(413,452,cs),
(413,341,l),
(240,324,ls),
(116,312,o),
(80,276,o),
(80,166,cs),
(80,158,ls),
(80,44,o),
(127,0,o),
(246,0,cs,{
name = hr02;
}),
(363,0,ls)
);
}
);
width = 603;
}
);
unicode = 97;
},
{
glyphname = aacute;
kernLeft = a;
lastChange = "2023-02-02 14:36:34 +0000";
layers = (
{
background = {
shapes = (
{
closed = 1;
nodes = (
(376,0,o),
(383,12,o),
(383,35,cs),
(383,58,o),
(376,70,o),
(363,70,cs),
(246,70,ls),
(180,70,o),
(160,90,o),
(160,158,cs),
(160,166,ls),
(160,229,o),
(176,247,o),
(246,254,cs),
(413,271,l),
(413,137,ls),
(413,58,o),
(440,-10,o),
(472,-10,cs,{
name = hr01;
}),
(491,-10,o),
(523,14,o),
(523,29,cs),
(523,41,o),
(493,63,o),
(493,147,cs),
(493,442,ls),
(493,544,o),
(417,600,o),
(277,600,cs),
(140,600,ls),
(127,600,o),
(120,588,o),
(120,565,cs),
(120,542,o),
(127,530,o),
(140,530,cs),
(277,530,ls),
(366,530,o),
(413,503,o),
(413,452,cs),
(413,341,l),
(240,324,ls),
(116,311,o),
(80,276,o),
(80,166,cs),
(80,158,ls),
(80,44,o),
(127,0,o),
(246,0,cs,{
name = hr02;
}),
(363,0,ls)
);
},
{
closed = 1;
nodes = (
(243,667,o),
(245,668,o),
(259,674,cs),
(435,758,ls),
(443,762,o),
(446,767,o),
(446,778,cs),
(446,804,o),
(418,846,o),
(400,846,cs),
(394,846,o),
(391,845,o),
(387,842,cs),
(221,728,ls),
(213,723,o),
(211,719,o),
(211,713,cs),
(211,697,o),
(231,667,o),
(241,667,cs,{
name = hr00;
})
);
}
);
};
layerId = master01;
shapes = (
{
ref = a;
},
{
pos = (134,0);
ref = acutecomb;
}
);
width = 603;
}
);
unicode = 225;
},
{
glyphname = abreve;
kernLeft = a;
lastChange = "2023-02-02 14:36:34 +0000";
layers = (
{
background = {
shapes = (
{
closed = 1;
nodes = (
(376,0,o),
(383,12,o),
(383,35,cs),
(383,58,o),
(376,70,o),
(363,70,cs),
(246,70,ls),
(180,70,o),
(160,90,o),
(160,158,cs),
(160,166,ls),
(160,229,o),
(176,247,o),
(246,254,cs),
(413,271,l),
(413,137,ls),
(413,58,o),
(440,-10,o),
(472,-10,cs,{
name = hr01;
}),
(491,-10,o),
(523,14,o),
(523,29,cs),
(523,41,o),
(493,63,o),
(493,147,cs),
(493,442,ls),
(493,544,o),
(417,600,o),
(277,600,cs),
(140,600,ls),
(127,600,o),
(120,588,o),
(120,565,cs),
(120,542,o),
(127,530,o),
(140,530,cs),
(277,530,ls),
(366,530,o),
(413,503,o),
(413,452,cs),
(413,341,l),
(240,324,ls),
(116,311,o),
(80,276,o),
(80,166,cs),
(80,158,ls),
(80,44,o),
(127,0,o),
(246,0,cs,{
name = hr02;
}),
(363,0,ls)
);
},
{
closed = 1;
nodes = (
(250,809,o),
(233,814,o),
(214,814,cs),
(195,814,o),
(179,809,o),
(179,794,cs),
(179,769,ls),
(179,708,o),
(211,677,o),
(299,677,cs),
(386,677,o),
(423,708,o),
(423,769,cs),
(423,794,ls),
(423,809,o),
(406,814,o),
(387,814,cs),
(368,814,o),
(352,809,o),
(352,794,cs),
(352,770,ls),
(352,748,o),
(326,740,o),
(300,740,cs),
(272,740,o),
(250,747,o),
(250,769,cs),
(250,794,ls,{
name = hr00;
})
);
}
);
};
layerId = master01;
shapes = (
{
ref = a;
},
{
pos = (130,0);
ref = brevecomb;
}
);
width = 603;
}
);
unicode = 259;
},
{
glyphname = acircumflex;
kernLeft = a;
lastChange = "2023-02-02 14:36:34 +0000";
layers = (
{
background = {
shapes = (
{
closed = 1;
nodes = (
(376,0,o),
(383,12,o),
(383,35,cs),
(383,58,o),
(376,70,o),
(363,70,cs),
(246,70,ls),
(180,70,o),
(160,90,o),
(160,158,cs),
(160,166,ls),
(160,229,o),
(176,247,o),
(246,254,cs),
(413,271,l),
(413,137,ls),
(413,58,o),
(440,-10,o),
(472,-10,cs,{
name = hr01;
}),
(491,-10,o),
(523,14,o),
(523,29,cs),
(523,41,o),
(493,63,o),
(493,147,cs),
(493,442,ls),
(493,544,o),
(417,600,o),
(277,600,cs),
(140,600,ls),
(127,600,o),
(120,588,o),
(120,565,cs),
(120,542,o),
(127,530,o),
(140,530,cs),
(277,530,ls),
(366,530,o),
(413,503,o),
(413,452,cs),
(413,341,l),
(240,324,ls),
(116,311,o),
(80,276,o),
(80,166,cs),
(80,158,ls),
(80,44,o),
(127,0,o),
(246,0,cs,{
name = hr02;
}),
(363,0,ls)
);
},
{
closed = 1;
nodes = (
(301,846,o),
(296,844,o),
(294,842,cs),
(174,726,ls),
(169,721,o),
(167,716,o),
(167,711,cs),
(167,693,o),
(186,667,o),
(199,667,cs),
(201,667,o),
(202,668,o),
(206,670,cs),
(309,746,l),
(412,670,ls),
(415,668,o),
(417,667,o),
(419,667,cs),
(432,667,o),
(451,693,o),
(451,711,cs),
(451,716,o),
(449,721,o),
(444,726,cs),
(324,842,ls),
(322,844,o),
(317,846,o),
(315,846,cs),
(304,846,l,{
name = hr00;
})
);
}
);
};
layerId = master01;
shapes = (
{
ref = a;
},
{
pos = (60,0);
ref = circumflexcomb;
}
);
width = 603;
}
);
unicode = 226;
},
{
glyphname = adieresis;
kernLeft = a;
lastChange = "2023-02-02 14:36:34 +0000";
layers = (
{
background = {
shapes = (
{
closed = 1;
nodes = (
(376,0,o),
(383,12,o),
(383,35,cs),
(383,58,o),
(376,70,o),
(363,70,cs),
(246,70,ls),
(180,70,o),
(160,90,o),
(160,158,cs),
(160,166,ls),
(160,229,o),
(176,247,o),
(246,254,cs),
(413,271,l),
(413,137,ls),
(413,58,o),
(440,-10,o),
(472,-10,cs,{
name = hr01;
}),
(491,-10,o),
(523,14,o),
(523,29,cs),
(523,41,o),
(493,63,o),
(493,147,cs),
(493,442,ls),
(493,544,o),
(417,600,o),
(277,600,cs),
(140,600,ls),
(127,600,o),
(120,588,o),
(120,565,cs),
(120,542,o),
(127,530,o),
(140,530,cs),
(277,530,ls),
(366,530,o),
(413,503,o),
(413,452,cs),
(413,341,l),
(240,324,ls),
(116,311,o),
(80,276,o),
(80,166,cs),
(80,158,ls),
(80,44,o),
(127,0,o),
(246,0,cs,{
name = hr02;
}),
(363,0,ls)
);
},
{
closed = 1;
nodes = (
(252,692,o),
(237,683,o),
(209,683,cs),
(180,683,o),
(165,691,o),
(165,708,cs),
(165,795,ls),
(165,811,o),
(180,820,o),
(208,820,cs),
(237,820,o),
(252,812,o),
(252,795,cs),
(252,708,ls,{
name = hr00;
})
);
},
{
closed = 1;
nodes = (
(452,692,o),
(437,683,o),
(409,683,cs),
(380,683,o),
(365,691,o),
(365,708,cs),
(365,795,ls),
(365,811,o),
(380,820,o),
(408,820,cs),
(437,820,o),
(452,812,o),
(452,795,cs),
(452,708,ls)
);
}
);
};
layerId = master01;
shapes = (
{
ref = a;
},
{
pos = (58,0);
ref = dieresiscomb;
}
);
width = 603;
}
);
unicode = 228;
},
{
glyphname = agrave;
kernLeft = a;
lastChange = "2023-02-02 14:36:34 +0000";
layers = (
{
background = {
shapes = (
{
closed = 1;
nodes = (
(376,0,o),
(383,12,o),
(383,35,cs),
(383,58,o),
(376,70,o),
(363,70,cs),
(246,70,ls),
(180,70,o),
(160,90,o),
(160,158,cs),
(160,166,ls),
(160,229,o),
(176,247,o),
(246,254,cs),
(413,271,l),
(413,137,ls),
(413,58,o),
(440,-10,o),
(472,-10,cs,{
name = hr01;
}),
(491,-10,o),
(523,14,o),
(523,29,cs),
(523,41,o),
(493,63,o),
(493,147,cs),
(493,442,ls),
(493,544,o),
(417,600,o),
(277,600,cs),
(140,600,ls),
(127,600,o),
(120,588,o),
(120,565,cs),
(120,542,o),
(127,530,o),
(140,530,cs),
(277,530,ls),
(366,530,o),
(413,503,o),
(413,452,cs),
(413,341,l),
(240,324,ls),
(116,311,o),
(80,276,o),
(80,166,cs),
(80,158,ls),
(80,44,o),
(127,0,o),
(246,0,cs,{
name = hr02;
}),
(363,0,ls)
);
},
{
closed = 1;
nodes = (
(404,667,o),
(424,697,o),
(424,713,cs),
(424,719,o),
(422,723,o),
(414,728,cs),
(248,842,ls),
(244,845,o),
(241,846,o),
(235,846,cs),
(217,846,o),
(189,804,o),
(189,778,cs),
(189,767,o),
(192,762,o),
(200,758,cs),
(376,674,ls),
(390,668,o),
(392,667,o),
(394,667,cs,{
name = hr00;
})
);
}
);
};
layerId = master01;
shapes = (
{
ref = a;
},
{
pos = (134,0);
ref = gravecomb;
}
);
width = 603;
}
);
unicode = 224;
},
{
glyphname = amacron;
kernLeft = a;
lastChange = "2023-02-02 14:36:34 +0000";
layers = (
{
background = {
shapes = (
{
closed = 1;
nodes = (
(376,0,o),
(383,12,o),
(383,35,cs),
(383,58,o),
(376,70,o),
(363,70,cs),
(246,70,ls),
(180,70,o),
(160,90,o),
(160,158,cs),
(160,166,ls),
(160,229,o),
(176,247,o),
(246,254,cs),
(413,271,l),
(413,137,ls),
(413,58,o),
(440,-10,o),
(472,-10,cs,{
name = hr01;
}),
(491,-10,o),
(523,14,o),
(523,29,cs),
(523,41,o),
(493,63,o),
(493,147,cs),
(493,442,ls),
(493,544,o),
(417,600,o),
(277,600,cs),
(140,600,ls),
(127,600,o),
(120,588,o),
(120,565,cs),
(120,542,o),
(127,530,o),
(140,530,cs),
(277,530,ls),
(366,530,o),
(413,503,o),
(413,452,cs),
(413,341,l),
(240,324,ls),
(116,311,o),
(80,276,o),
(80,166,cs),
(80,158,ls),
(80,44,o),
(127,0,o),
(246,0,cs,{
name = hr02;
}),
(363,0,ls)
);
},
{
closed = 1;
nodes = (
(155,787,o),
(148,774,o),
(148,749,cs),
(148,724,o),
(155,710,o),
(168,710,cs),
(435,710,ls),
(448,710,o),
(455,723,o),
(455,749,cs),
(455,774,o),
(448,787,o),
(435,787,cs),
(168,787,ls,{
name = hr00;
})
);
}
);
};
layerId = master01;
shapes = (
{
ref = a;
},
{
pos = (48,0);
ref = macroncomb;
}
);
width = 603;
}
);
unicode = 257;
},
{
glyphname = aogonek;
kernLeft = a;
lastChange = "2023-02-02 14:36:34 +0000";
layers = (
{
background = {
shapes = (
{
closed = 1;
nodes = (
(471,-222,o),
(517,-185,o),
(517,-130,cs),
(517,-117,ls),
(517,-104,o),
(505,-96,o),
(484,-96,cs),
(462,-96,o),
(450,-103,o),
(450,-117,cs),
(450,-135,ls),
(450,-154,o),
(433,-164,o),
(402,-164,cs),
(372,-164,o),
(353,-152,o),
(353,-134,cs),
(353,-109,ls),
(353,-74,o),
(366,-54,o),
(399,-41,cs),
(479,-9,ls),
(497,-2,o),
(523,15,o),
(523,29,cs),
(523,41,o),
(493,63,o),
(493,147,cs,{
name = hr01;
}),
(493,442,ls),
(493,544,o),
(417,600,o),
(277,600,cs),
(140,600,ls),
(127,600,o),
(120,588,o),
(120,565,cs),
(120,542,o),
(127,530,o),
(140,530,cs),
(277,530,ls),
(366,530,o),
(413,503,o),
(413,452,cs),
(413,341,l),
(240,324,ls),
(116,311,o),
(80,276,o),
(80,166,cs),
(80,158,ls),
(80,44,o),
(127,0,o),
(246,0,cs),
(313,0,ls),
(326,0,o),
(333,12,o),
(333,35,cs),
(333,58,o),
(326,70,o),
(313,70,cs),
(246,70,ls),
(180,70,o),
(160,90,o),
(160,158,cs),
(160,166,ls),
(160,229,o),
(176,247,o),
(246,254,cs),
(413,271,l),
(413,137,ls),
(413,88,o),
(423,44,o),
(438,17,c),
(384,-4,ls),
(303,-36,o),
(286,-54,o),
(286,-108,cs),
(286,-130,ls),
(286,-184,o),
(334,-222,o),
(403,-222,cs)
);
}
);
};
layerId = master01;
shapes = (
{
ref = a;
},
{
pos = (65,1);
ref = ogonekcomb;
}
);
width = 603;
}
);
unicode = 261;
},
{
glyphname = aring;
kernLeft = a;
lastChange = "2023-02-02 14:36:34 +0000";
layers = (
{
background = {
shapes = (
{
closed = 1;
nodes = (
(376,0,o),
(383,12,o),
(383,35,cs),
(383,58,o),
(376,70,o),
(363,70,cs),
(246,70,ls),
(180,70,o),
(160,90,o),
(160,158,cs),
(160,166,ls),
(160,229,o),
(176,247,o),
(246,254,cs),
(413,271,l),
(413,137,ls),
(413,58,o),
(440,-10,o),
(472,-10,cs,{
name = hr01;
}),
(491,-10,o),
(523,14,o),
(523,29,cs),
(523,41,o),
(493,63,o),
(493,147,cs),
(493,442,ls),
(493,544,o),
(417,600,o),
(277,600,cs),
(140,600,ls),
(127,600,o),
(120,588,o),
(120,565,cs),
(120,542,o),
(127,530,o),
(140,530,cs),
(277,530,ls),
(366,530,o),
(413,503,o),
(413,452,cs),
(413,341,l),
(240,324,ls),
(116,311,o),
(80,276,o),
(80,166,cs),
(80,158,ls),
(80,44,o),
(127,0,o),
(246,0,cs,{
name = hr02;
}),
(363,0,ls)
);
},
{
closed = 1;
nodes = (
(412,828,o),
(379,856,o),
(303,856,cs),
(226,856,o),
(191,827,o),
(191,764,cs),
(191,739,ls),
(191,675,o),
(224,647,o),
(300,647,cs),
(377,647,o),
(412,676,o),
(412,739,cs),
(412,764,l,{
name = hr00;
})
);
},
{
closed = 1;
nodes = (
(253,791,o),
(272,803,o),
(302,803,cs),
(333,803,o),
(350,793,o),
(350,774,cs),
(350,730,ls),
(350,712,o),
(331,700,o),
(301,700,cs),
(270,700,o),
(253,710,o),
(253,729,cs),
(253,773,l)
);
}
);
};
layerId = master01;
shapes = (
{
ref = a;
},
{
pos = (158,0);
ref = ringcomb;
}
);
width = 603;
}
);
unicode = 229;
},
{
glyphname = aringacute;
kernLeft = a;
lastChange = "2023-02-02 14:36:34 +0000";
layers = (
{
background = {
shapes = (
{
closed = 1;
nodes = (
(376,0,o),
(383,12,o),
(383,35,cs),
(383,58,o),
(376,70,o),
(363,70,cs),
(246,70,ls),
(180,70,o),
(160,90,o),
(160,158,cs),
(160,166,ls),
(160,229,o),
(176,247,o),
(246,254,cs),
(413,271,l),
(413,137,ls),
(413,58,o),
(440,-10,o),
(472,-10,cs,{
name = hr01;
}),
(491,-10,o),
(523,14,o),
(523,29,cs),
(523,41,o),
(493,63,o),
(493,147,cs),
(493,442,ls),
(493,544,o),
(417,600,o),
(277,600,cs),
(140,600,ls),
(127,600,o),
(120,588,o),
(120,565,cs),
(120,542,o),
(127,530,o),
(140,530,cs),
(277,530,ls),
(366,530,o),
(413,503,o),
(413,452,cs),
(413,341,l),
(240,324,ls),
(116,311,o),
(80,276,o),
(80,166,cs),
(80,158,ls),
(80,44,o),
(127,0,o),
(246,0,cs,{
name = hr02;
}),
(363,0,ls)
);
},
{
closed = 1;
nodes = (
(379,647,o),
(412,676,o),
(412,739,cs),
(412,764,ls),
(412,775,o),
(411,785,o),
(409,794,c),
(499,835,ls),
(505,838,o),
(508,842,o),
(508,850,cs),
(508,871,o),
(485,904,o),
(470,904,cs),
(465,904,o),
(463,903,o),
(460,901,cs),
(373,843,l),
(357,852,o),
(335,856,o),
(308,856,cs),
(234,856,o),
(201,827,o),
(201,764,cs),
(201,739,ls),
(201,675,o),
(233,647,o),
(305,647,cs,{
name = hr00;
})
);
},
{
closed = 1;
nodes = (
(263,791,o),
(280,803,o),
(307,803,cs),
(335,803,o),
(350,793,o),
(350,774,cs),
(350,730,ls),
(350,712,o),
(333,700,o),
(306,700,cs),
(278,700,o),
(263,710,o),
(263,729,cs),
(263,773,ls)
);
}
);
};
layerId = master01;
shapes = (
{
closed = 1;
nodes = (
(379,647,o),
(412,676,o),
(412,739,cs),
(412,764,ls),
(412,775,o),
(411,785,o),
(409,794,c),
(499,835,ls),
(505,838,o),
(508,842,o),
(508,850,cs),
(508,871,o),
(485,904,o),
(470,904,cs),
(465,904,o),
(463,903,o),
(460,901,cs),
(373,843,l),
(357,852,o),
(335,856,o),
(308,856,cs),
(234,856,o),
(201,827,o),
(201,764,cs),
(201,739,ls),
(201,675,o),
(233,647,o),
(305,647,cs,{
name = hr00;
})
);
},
{
ref = a;
},
{
closed = 1;
nodes = (
(278,700,o),
(263,710,o),
(263,729,cs),
(263,773,ls),
(263,791,o),
(280,803,o),
(307,803,cs),
(335,803,o),
(350,793,o),
(350,774,cs),
(350,730,ls),
(350,712,o),
(333,700,o),
(306,700,cs)
);
}
);
width = 603;
}
);
unicode = 507;
},
{
glyphname = atilde;
kernLeft = a;
lastChange = "2023-02-02 14:36:34 +0000";
layers = (
{
background = {
shapes = (
{
closed = 1;
nodes = (
(376,0,o),
(383,12,o),
(383,35,cs),
(383,58,o),
(376,70,o),
(363,70,cs),
(246,70,ls),
(180,70,o),
(160,90,o),
(160,158,cs),
(160,166,ls),
(160,229,o),
(176,247,o),
(246,254,cs),
(413,271,l),
(413,137,ls),
(413,58,o),
(440,-10,o),
(472,-10,cs,{
name = hr01;
}),
(491,-10,o),
(523,14,o),
(523,29,cs),
(523,41,o),
(493,63,o),
(493,147,cs),
(493,442,ls),
(493,544,o),
(417,600,o),
(277,600,cs),
(140,600,ls),
(127,600,o),
(120,588,o),
(120,565,cs),
(120,542,o),
(127,530,o),
(140,530,cs),
(277,530,ls),
(366,530,o),
(413,503,o),
(413,452,cs),
(413,341,l),
(240,324,ls),
(116,311,o),
(80,276,o),
(80,166,cs),
(80,158,ls),
(80,44,o),
(127,0,o),
(246,0,cs,{
name = hr02;
}),
(363,0,ls)
);
},
{
closed = 1;
nodes = (
(219,811,o),
(213,812,o),
(208,812,cs),
(167,812,o),
(143,772,o),
(143,703,cs),
(143,692,o),
(155,687,o),
(178,687,cs),
(201,687,o),
(213,694,o),
(213,707,cs),
(213,724,o),
(217,732,o),
(226,732,cs),
(228,732,o),
(229,731,o),
(231,731,cs),
(372,692,ls),
(380,690,o),
(387,689,o),
(394,689,cs),
(436,689,o),
(460,729,o),
(460,797,cs),
(460,808,o),
(448,813,o),
(425,813,cs,{
name = hr01;
}),
(402,813,o),
(390,806,o),
(390,793,cs),
(390,776,o),
(386,768,o),
(378,768,cs),
(375,768,o),
(373,768,o),
(372,769,cs),
(231,808,l)
);
}
);
};
layerId = master01;
shapes = (
{
ref = a;
},
{
pos = (43,0);
ref = tildecomb;
}
);
width = 603;
}
);
unicode = 227;
},
{
glyphname = ae;
kernLeft = a;
lastChange = "2023-02-02 14:36:34 +0000";
layers = (
{
anchors = (
{
name = bottom;
pos = (476,0);
},
{
name = top;
pos = (494,605);
}
);
background = {
shapes = (
{
closed = 1;
nodes = (
(378,0,o),
(383,15,o),
(383,35,cs),
(383,54,o),
(378,70,o),
(363,70,cs),
(246,70,ls),
(170,70,o),
(160,100,o),
(160,158,cs),
(160,166,ls),
(160,224,o),
(170,246,o),
(246,254,cs),
(413,271,l),
(413,149,ls),
(413,32,o),
(513,-9,o),
(631,-9,cs,{
name = hr01;
}),
(749,-9,o),
(851,22,o),
(851,139,cs),
(851,167,ls),
(851,184,o),
(833,190,o),
(811,190,cs),
(788,190,o),
(771,184,o),
(771,167,cs),
(771,129,ls),
(771,71,o),
(699,61,o),
(623,61,cs),
(547,61,o),
(493,81,o),
(493,139,cs),
(493,277,l),
(688,296,ls),
(807,308,o),
(851,337,o),
(851,454,cs),
(851,465,ls),
(851,582,o),
(773,621,o),
(646,621,cs),
(560,621,o),
(484,602,o),
(444,554,c),
(404,587,o),
(344,600,o),
(277,600,cs,{
name = hr02;
}),
(140,600,ls),
(125,600,o),
(120,585,o),
(120,565,cs),
(120,546,o),
(125,530,o),
(140,530,cs),
(277,530,ls),
(351,530,o),
(413,511,o),
(413,456,cs),
(413,341,l),
(240,324,ls),
(124,312,o),
(80,283,o),
(80,166,cs),
(80,158,ls),
(80,41,o),
(130,0,o),
(246,0,cs),
(363,0,ls)
);
},
{
closed = 1;
nodes = (
(493,531,o),
(556,551,o),
(631,551,cs,{
name = hr03;
}),
(709,551,o),
(771,531,o),
(771,473,cs),
(771,454,ls),
(771,396,o),
(761,374,o),
(681,366,cs),
(493,347,l),
(493,473,ls)
);
}
);
};
layerId = master01;
shapes = (
{
closed = 1;
nodes = (
(378,0,o),
(383,15,o),
(383,35,cs),
(383,54,o),
(378,70,o),
(363,70,cs),
(246,70,ls),
(170,70,o),
(160,100,o),
(160,158,cs),
(160,166,ls),
(160,224,o),
(170,246,o),
(246,254,cs),
(413,271,l),
(413,149,ls),
(413,32,o),
(513,-9,o),
(631,-9,cs,{
name = hr01;
}),
(749,-9,o),
(851,22,o),
(851,139,cs),
(851,167,ls),
(851,184,o),
(833,190,o),
(811,190,cs),
(788,190,o),
(771,184,o),
(771,167,cs),
(771,129,ls),
(771,71,o),
(699,61,o),
(623,61,cs),
(547,61,o),
(493,81,o),
(493,139,cs),
(493,277,l),
(688,296,ls),
(807,308,o),
(851,337,o),
(851,454,cs),
(851,465,ls),
(851,582,o),
(773,621,o),
(646,621,cs),
(560,621,o),
(484,602,o),
(444,554,c),
(404,587,o),
(344,600,o),
(277,600,cs,{
name = hr02;
}),
(140,600,ls),
(125,600,o),
(120,585,o),
(120,565,cs),
(120,546,o),
(125,530,o),
(140,530,cs),
(277,530,ls),
(351,530,o),
(413,511,o),
(413,456,cs),
(413,341,l),
(240,324,ls),
(124,313,o),
(80,283,o),
(80,166,cs),
(80,158,ls),
(80,41,o),
(130,0,o),
(246,0,cs),
(363,0,ls)
);
},
{
closed = 1;
nodes = (
(493,531,o),
(556,551,o),
(631,551,cs,{
name = hr03;
}),
(709,551,o),
(771,531,o),
(771,473,cs),
(771,454,ls),
(771,396,o),
(761,374,o),
(681,366,cs),
(493,347,l),
(493,473,ls)
);
}
);
width = 951;
}
);
unicode = 230;
},
